<svg id="Layer_1" data-name="Layer 1" xmlns="http://www.w3.org/2000/svg" xmlns:xlink="http://www.w3.org/1999/xlink" viewBox="0 0 125.93 192.09"><defs><style>.cls-1{fill:url(#linear-gradient);}.cls-2{fill:url(#linear-gradient-5);}.cls-3{fill:url(#linear-gradient-6);}.cls-4{fill:url(#linear-gradient-7);}.cls-5{fill:url(#linear-gradient-8);}</style><linearGradient id="linear-gradient" x1="360.37" y1="223.44" x2="183.37" y2="496.44" gradientUnits="userSpaceOnUse"><stop offset="0" stop-color="#fcd2ab"/><stop offset="0.15" stop-color="#ffe7c3"/><stop offset="0.43" stop-color="#e5b38e"/><stop offset="0.59" stop-color="#bf8b6d"/><stop offset="0.73" stop-color="#e5b38e"/><stop offset="0.93" stop-color="#ffe7c3"/><stop offset="1" stop-color="#fcd4b0"/></linearGradient><linearGradient id="linear-gradient-5" x1="196.26" y1="515.93" x2="316.26" y2="316.93" gradientUnits="userSpaceOnUse"><stop offset="0" stop-color="#fcd2ab"/><stop offset="0.3" stop-color="#fbcfa7"/><stop offset="0.6" stop-color="#e0ae89"/><stop offset="0.67" stop-color="#deab88"/><stop offset="1" stop-color="#bf8b6d"/></linearGradient><linearGradient id="linear-gradient-6" x1="205.51" y1="521.51" x2="325.51" y2="322.51" xlink:href="#linear-gradient-5"/><linearGradient id="linear-gradient-7" x1="215.91" y1="527.78" x2="335.91" y2="328.78" xlink:href="#linear-gradient-5"/><linearGradient id="linear-gradient-8" x1="261.37" y1="539.17" x2="399.17" y2="310.66" gradientUnits="userSpaceOnUse"><stop offset="0" stop-color="#feeddc"/><stop offset="0.18" stop-color="#b88769"/><stop offset="0.68" stop-color="#fadcbd"/><stop offset="0.78" stop-color="#deab88"/><stop offset="0.89" stop-color="#b58567"/><stop offset="1" stop-color="#876149"/></linearGradient></defs><path class="cls-1" d="M332.41,293.56c1.45,0,2.15-.73,2.17-2.38a3,3,0,0,0-3.23-3c-1.21,0-1.94.78-2,2.14A3.11,3.11,0,0,0,332.41,293.56Z" transform="translate(-286.17 -288.19)"/><path class="cls-1" d="M340.22,300.89a2.66,2.66,0,0,0,2.4-2.67,2.27,2.27,0,0,0-2.46-2.37,2.42,2.42,0,0,0-2.49,2.24A3.08,3.08,0,0,0,340.22,300.89Z" transform="translate(-286.17 -288.19)"/><path class="cls-1" d="M349.25,307.78c.54,0,.91-.2.9-.71a1.21,1.21,0,0,0-1.2-1.25.64.64,0,0,0-.75.76A1.23,1.23,0,0,0,349.25,307.78Z" transform="translate(-286.17 -288.19)"/><path class="cls-1" d="M375.57,351.24c.53-.75,1-1.51,1.57-2.25a2.69,2.69,0,0,1,.63-.77,20.58,20.58,0,0,0,3.16-2.73,5.06,5.06,0,0,1,1.61-1.13,17.53,17.53,0,0,1,2.75-1.05,12.14,12.14,0,0,1,3.33-.65,2.11,2.11,0,0,0,1-.24,17.44,17.44,0,0,1,2.4-.56,6.86,6.86,0,0,0,1.79-.36,11.17,11.17,0,0,1,1.87-.51c.36-.11.66-.39,1-.53a9.12,9.12,0,0,0,3.64-2.54c1.39-1.63,2.68-3.34,4.13-4.92a4.12,4.12,0,0,0,.44-.65c.51-.8,1-1.62,1.53-2.41q.38-.57.78-1.14c1.21-.27,1.65-1.38,2.17-2.34a2.21,2.21,0,0,0,.24-.61,16.84,16.84,0,0,0,2.25-2.22.85.85,0,0,0,.2-.72.88.88,0,0,0-.6-.43,2.33,2.33,0,0,0-1.23,0,6.22,6.22,0,0,1-2.8.24,42.31,42.31,0,0,1-5-.2,38.26,38.26,0,0,0-5.67-.06,8.08,8.08,0,0,0-2.93.27c-.79.3-1.64.5-2.41.85a7.85,7.85,0,0,1-2.87,1.1.26.26,0,0,0-.22.12,7.66,7.66,0,0,1-1.36,1.64c-1.29.57-2.55,1.19-3.1,2.66a4.2,4.2,0,0,0-1.37,1.95h0c0,.18,0,.36,0,.54a1.47,1.47,0,0,0-.82,1.66,3.37,3.37,0,0,1-.14.77c-.45,1-.75,2.1-1.26,3.07-.33.63-.15,1.39-.65,2s-.32,1.45-.74,2a1.62,1.62,0,0,0-.25,1,12.71,12.71,0,0,0,0,1.38,2.28,2.28,0,0,1-.48,1.47c-1,1.58-2,3.11-2.82,4.78-.1.2-.05.5-.36.4a.79.79,0,0,1-.48-.43,14.72,14.72,0,0,1-.28-2.1c-.05-.87,0-1.75,0-2.63a7.26,7.26,0,0,0-.25-2.93,1,1,0,0,1,0-.81,1.86,1.86,0,0,0,.25-1.42,22,22,0,0,1,.57-5.31c.14-.72.4-1.41.53-2.13s.51-1.36.7-2.07.52-1.63.78-2.45.89-1.5.76-2.45c0-.06.12-.12.16-.2.71-1.31.72-2.83,1.18-4.22a8.15,8.15,0,0,0,0-1.92,14.23,14.23,0,0,1,.28-2c.13-.58-.35-1-.28-1.55.17-1.33-.43-2.48-.77-3.7a13.49,13.49,0,0,0-1.53-3.09l-.1-.16c-.48-1.07-1-2.11-1.56-3.12a2.61,2.61,0,0,0-1.09-1.14c-.24-.36-.47-.73-.7-1.1a4.64,4.64,0,0,0-.85-1.33,2.14,2.14,0,0,1-.13-.19,5.81,5.81,0,0,1-1-1.93,4.2,4.2,0,0,0-1.38-2.07c-.19-.21-.26,0-.4,0a1.19,1.19,0,0,0-.8.76,3.68,3.68,0,0,0-.49,1.87,3.81,3.81,0,0,1-.16,1.47,27.54,27.54,0,0,0-2.1,4.86,8.36,8.36,0,0,0-.39,3.47,9.47,9.47,0,0,0-.35,2.78c0,.16,0,.33,0,.49a17.68,17.68,0,0,0-.08,2.3,20.27,20.27,0,0,0,.31,4.85,9.81,9.81,0,0,1,.57,3.64c0,.06.14.13.17.2a4.28,4.28,0,0,1,.37,2.2c0,.32-.15.11-.31.09-.71-.1-.76-.8-1.15-1.18a35.18,35.18,0,0,0-4-3.71,10.27,10.27,0,0,0-2.54-1.54c-.71-.23-1.27-.81-2-.86s-1.39-.48-2.12-.59c-.29,0-.56-.23-.86-.26-1.06-.11-2.13-.19-3.2-.28-.09,0-.23,0-.27,0-.49-.55-1.22,0-1.67-.32a2.73,2.73,0,0,0-1.85-.2,22.55,22.55,0,0,1-4.86-.35,18,18,0,0,0-4.07-.52c-.15,0-.31-.12-.48-.16a10.74,10.74,0,0,0-3.6-.68.83.83,0,0,0-.77.46c-.12.28,0,.56.27.84a20.21,20.21,0,0,1,1.91,2.53c1.16,1.91,2.11,3.93,3.31,5.83a22.77,22.77,0,0,0,2.91,3.92,8.68,8.68,0,0,1,1.05,1.2c.26.37.81.58,1,1.1a.71.71,0,0,0,.38.38,11.73,11.73,0,0,1,2.73,1.77c.6.43,1.36.6,1.92,1s1.6.5,2.15,1.18c1-.05,1.75.68,2.69.87s1.81.82,2.75,1a14.76,14.76,0,0,0,4.19.63c1.28-.1,2.58,0,3.87,0a2.26,2.26,0,0,0,.69,0,4.28,4.28,0,0,1,3.24,0,.58.58,0,0,0,.52,0c.39-.4.87-.19,1.3-.2a1.6,1.6,0,0,1,1.57,1.33c.18.94.36,1.88.56,2.81.05.25.23.48.26.72a30.38,30.38,0,0,0,.56,3.79c.34,1.28.17,2.63.54,3.92.15.56-.08,1.25.15,1.74s-.14,1.29.42,1.77c-.08,1.54.19,3.06.25,4.59.1,2.58.07,5.17,0,7.75s-.17,5.09-.27,7.63c0,.19.08.45,0,.55-.52.53,0,1.26-.35,1.79s-.12,1.34-.18,2c-.12,1.39-.19,2.79-.29,4.18,0,0,0,.12,0,.13s-.31.16-.35.12a1.45,1.45,0,0,1-.45-.61c-.07-.35.07-.76,0-1.1a37.88,37.88,0,0,1-1.1-4.8c-.06-.34-.21-.66-.26-1a7.05,7.05,0,0,0-.24-1.84,2.37,2.37,0,0,1,.22-1.94.34.34,0,0,0,0-.28c-.5-.89-.18-1.86-.27-2.79v-.2a5,5,0,0,0-.87-3.26,6.89,6.89,0,0,0-1-2.39,11.77,11.77,0,0,0-1.72-2.28c0-.07,0-.13-.05-.2-.07-.52-.33-1.09-1-1.11l-.41-.28c-.85-.88-1.72-1.74-2.6-2.58a5.09,5.09,0,0,0-1.77-1.07,6.08,6.08,0,0,0-2.85-.8c-.45-.5-1.11,0-1.54-.28a3,3,0,0,0-1.56-.24c-.51,0-1,0-1.52,0-1.13-.1-2.08.79-3.24.57-.09,0-.21.13-.33.17L346,356.31c-.4.13-.82.23-1.22.39s-.68.3-1,.45h0a6.64,6.64,0,0,0-3.25,1.28c-.29.1-.57.2-.86.27a4.82,4.82,0,0,0-2,.85.9.9,0,0,0-.29,1.21,1.88,1.88,0,0,0,.48.45c.58.37,1.2.69,1.79,1.05a3.72,3.72,0,0,0,1.18.93l.06,0,.21.19a.85.85,0,0,1,.33.1l.27.15c.35.26.6.67,1,.91a33.83,33.83,0,0,1,4.17,3c1.6,1.32,3.39,2.36,5,3.65,1,.78,2.1,1.32,3,2.14,1.31,1.24,3,1.61,4.51,2.51a.85.85,0,0,0,.4,0,4.25,4.25,0,0,1,1.56.25c.46.18,1.07-.09,1.53.31,1.14-.21,2.21.36,3.34.28.46,0,.93,0,1.39,0a.91.91,0,0,1,.71.3c.7.58.76,1.6,1.49,2.16.14,1.16.95,2.16.84,3.39,0,.19.13.4.21.6a21.69,21.69,0,0,1,.87,4.07,11,11,0,0,1,0,2.07c0,.71-.44,1.36-.28,2.1,0,.09-.15.21-.19.33a8.2,8.2,0,0,0-.59,2.09,4.48,4.48,0,0,1-.59,2c-.1.19-.28.39-.27.57a7,7,0,0,1-.55,2.27,37.69,37.69,0,0,0-1.19,4,4,4,0,0,1-.54,1.27c-.24.44,0,1-.31,1.24-.49.35-.44.86-.64,1.28-.31.65-.38,1.43-.74,2a16.15,16.15,0,0,0-.81,1.61c-.24.51-.63,1-.91,1.56-.62,1.19-1.32,2.32-2,3.46s-1.53,2.22-2.22,3.36a42.52,42.52,0,0,1-3.18,4.77,6.16,6.16,0,0,0-1,1.39,7.06,7.06,0,0,1-1.67,2.08,1,1,0,0,1-.2.11,2.34,2.34,0,0,1-.09-.24,7.12,7.12,0,0,1,.7-3,2.23,2.23,0,0,1,.4-.93,9.32,9.32,0,0,0,1.95-3.77c.36-1.18.75-2.36,1.13-3.55a4.84,4.84,0,0,0,.54-2.27c0-.1.13-.21.18-.33a9.27,9.27,0,0,0,.61-1.82,7.65,7.65,0,0,0,0-1.59,1.55,1.55,0,0,0,0-.57,13.71,13.71,0,0,1,0-1.57,9.09,9.09,0,0,0-.56-3.79,7.76,7.76,0,0,0-1.48-2.69,24.2,24.2,0,0,0-4.08-3.82,22.35,22.35,0,0,0-2.18-1.51,39.77,39.77,0,0,1-4.18-3c-1.11-.79-2.17-1.65-3.28-2.44a1,1,0,0,0-1.69.8c0,.27-.12.66,0,.8a.94.94,0,0,1,.26.61c-.27.24-.28.67-.06,1.41,0,.1.07.21.11.31.08,1.09.15,2.19.22,3.28,0,.05,0,.11,0,.14.48.65.15,1.4.28,2.1a10.48,10.48,0,0,1,.28,2.24q-.07,1.59,0,3.18c0,1,.17,2.05.26,3.07a1.24,1.24,0,0,0,.09.38,7,7,0,0,1,.43,2c.16.91-.11,1.89.58,2.68.07.08,0,.27,0,.41.11,1.1.9,1.94,1.13,3,.06.27.45.45.57.72a5.84,5.84,0,0,0,1.85,1.85,9.79,9.79,0,0,0,4.39,2.1c.37.05.62.23.63.58a6.75,6.75,0,0,1,0,2.06c-.22.8-.37,1.6-.51,2.42a1.2,1.2,0,0,1-.24.58,1.88,1.88,0,0,0-.33.7A16,16,0,0,1,350,431a4.33,4.33,0,0,0-1,2.06,1.51,1.51,0,0,1-.47.76,26.71,26.71,0,0,1-2.36,2.61c-.84.73-1.29,1.83-2.32,2.36a24.24,24.24,0,0,1-3.63,3.88,23.64,23.64,0,0,1-3,2.73,43.37,43.37,0,0,0-4.62,3.82,10.78,10.78,0,0,1-1.36,1.06c-.06.05-.39-.1-.39-.17a1,1,0,0,1,.13-.63c.41-.61.65-1.3,1.05-1.92a2.3,2.3,0,0,0,.48-1.19,1.75,1.75,0,0,1,1.17-1.32,3,3,0,0,0,2.2-1.31,21,21,0,0,0,2.73-4.13,10.26,10.26,0,0,0,.59-1.14c.18-.43.31-.89.49-1.32s.42-.76.54-1.16a13.93,13.93,0,0,1,.81-2.57,7.07,7.07,0,0,0-.29-3.45,1.61,1.61,0,0,1-.23-.88,3.51,3.51,0,0,0-.52-1.86,1.94,1.94,0,0,1-.3-.84,4.2,4.2,0,0,0-.49-1.68c0-.26-.05-.53-.06-.79a5.42,5.42,0,0,0-1.63-3.86c-.39-1-.77-2-1.16-3-.19-.51-.43-.61-1.19-.58-.43,0-.71.19-.74.61a17.22,17.22,0,0,1-.78,2.72,3.08,3.08,0,0,0-.2.56c-.21.74-.17,1.49-.4,2.24a2.5,2.5,0,0,1-.09.25,2.41,2.41,0,0,0-.26.81c-.59,1.71-1.26,3.4-1.75,5.14a.37.37,0,0,1-.05.11,27.47,27.47,0,0,1-1.41,2.6c-.45.87-.84,1.78-1.26,2.66a1.91,1.91,0,0,0-.17.62,5.06,5.06,0,0,1-.27,2.25.58.58,0,0,0,0,.53c.45.53.2,1.13.27,1.7a1.74,1.74,0,0,0,.07.66c.62.93.85,2.1,1.74,2.89a3.72,3.72,0,0,1,1.06,1.35,2.77,2.77,0,0,1-.06,2.32c-.59,1.25-1.26,2.44-1.92,3.64a14.48,14.48,0,0,1-3.94,4.44c-2,1.55-4,3-6.07,4.41-.92.65-2.12.82-2.88,1.74,0,.05-.17,0-.25.05-.39.18-.78.35-1.16.54s-.76.4-1.14.58c-.89.43-1.6,1.2-2.62,1.38a.73.73,0,0,0-.42.29,1.33,1.33,0,0,1-1.31.55.82.82,0,0,0-.58.24c-.37.36-.7.72-1.3.59-.11,0-.29.17-.42.29-.3.26-.52.67-1,.52-.42.63-1.36.45-1.75,1.13-.06.11-.23.26-.3.24-.74-.22-1.1.5-1.68.67-.16.05-.25.19-.4,0s-.18-.17-.07-.4c.6-1.28,1.15-2.57,1.68-3.88.39-1,.36-1,1.36-1.62.32-.22.83-.4.92-.7.25-.84,1.09-1.14,1.48-1.88a10.23,10.23,0,0,1,1.78-1.9,6.08,6.08,0,0,0,.4-.66,36.2,36.2,0,0,0,2-3c.76-1.25,1.54-2.51,2.29-3.77s1.41-2.64,2-4a2.53,2.53,0,0,0,.31-1.26c-.12-2,.2-4-.28-6a11.06,11.06,0,0,1-.64-3.06s-.08-.06-.1-.1c-.14-.49-.38-.95-.55-1.43s-.46-1-.61-1.54a23.17,23.17,0,0,0-1.3-3.07,19,19,0,0,0-1.95-3.25c-.1-.18-.19-.37-.28-.55a8.7,8.7,0,0,0-2.42-2.86c-1-1.19-2.21-2.29-3.24-3.5a.6.6,0,0,0-1-.05,2.22,2.22,0,0,0-1,1.66,12.79,12.79,0,0,1-.45,2.11,5.13,5.13,0,0,0-.31,1.48,9.57,9.57,0,0,1-.57,1.94c-.25.64-.05,1.5-.4,2a7.19,7.19,0,0,0-.66,1.94c-.17.59-.63,1.07-.63,1.69s-.53,1.17-.7,1.79a8.5,8.5,0,0,1-.65,1.67,2.09,2.09,0,0,0-.32,1.52,7.84,7.84,0,0,0-.9,3.64c-.4.33-.12.78-.2,1.17a6.31,6.31,0,0,0-.27,1.26c0,1.76-.1,3.52,0,5.26.08,1.16.53,2.28.66,3.45a8.23,8.23,0,0,0,.72,2.2,14.14,14.14,0,0,0,2,3.59l.47.58a3.1,3.1,0,0,0,.66.83c.34.43.68.87,1,1.29.2.24.16.38.1.68-.16.73-.55,1.37-.69,2.07a11.46,11.46,0,0,1-.85,2.7,7.49,7.49,0,0,1-.28.71c-.57.94-.81,2.11-1.92,2.64a9.54,9.54,0,0,1-2.1.94,3.47,3.47,0,0,0-1.53.63c-.56.46-1.29-.06-1.76.48,0,0-.2,0-.25,0a1,1,0,0,1-.86.27c-.27,0-.71-.11-.8,0-.36.52-1,0-1.37.43s-.92,0-1.41.27-1,.07-1.47.12a.81.81,0,0,0-.45.23c-.1.07-.21.26-.18.32a.58.58,0,0,0,.36.26,47.71,47.71,0,0,0,6-.28c.11,0,.22-.13.34-.17a9.08,9.08,0,0,1,1.23-.36,22.93,22.93,0,0,0,3.54-1.17,4.5,4.5,0,0,1,1.86-.51,1.83,1.83,0,0,0,1.17-.5,6,6,0,0,1,1-.59c1.1-.49,2.24-.83,3.32-1.36a6.7,6.7,0,0,1,1.86-.81,9.25,9.25,0,0,0,2.68-.93,7.66,7.66,0,0,1,3.13-.79h4.15a2.48,2.48,0,0,0,.82,0c1.33-.51,2.7-.1,4.05-.22.1,0,.21.22.31.22.63,0,.56.51.4.74-.28.41-.17.64,0,1.08a19.33,19.33,0,0,0,3.39,6.06,15.13,15.13,0,0,0,2.81,2.54c.82.61,1.85.89,2.7,1.5.43.32,1.11.29,1.53.61s1.11.14,1.61.5a5.15,5.15,0,0,0,1.41.57c1,.34,2.07.27,3.1.52a7.1,7.1,0,0,0,1.6.08h0a2.32,2.32,0,0,0,1.41.22,18.24,18.24,0,0,0,4.48-.25,29.53,29.53,0,0,0,4.58-1.32c.27-.13.58-.16.84-.31.74-.43,1.44-1,2.21-1.34a20,20,0,0,1,2.67-1.59,8.55,8.55,0,0,0,1.19-.45,1.19,1.19,0,0,0,.37-1.62,17.71,17.71,0,0,0-1.36-1.38,2,2,0,0,1-1.44-.85,7.16,7.16,0,0,0-2.62-2.5c-.52-.5-.78-1.29-1.61-1.42l-.06-.06-.83-1c.05-.43-.25-.67-.5-.93a6.35,6.35,0,0,0-2.77-1.64,1.63,1.63,0,0,0-1-.45,3,3,0,0,1-1.21-.43,13.25,13.25,0,0,0-1.82-1,19.76,19.76,0,0,1-2-.89l-.59-.25c-.8-.35-1.71-.37-2.48-.69s-1.81-.23-2.62-.69a31.57,31.57,0,0,0-4.74.24,10.49,10.49,0,0,0-5.34,2.83,10.78,10.78,0,0,1-1.28,1.25c-.57.42-1.17.92-2,.44a1.74,1.74,0,0,0-.8-.05h-3.18c-.93,0-1.85,0-2.77,0-.38,0-.76-.1-1.15-.15l.89-.88c.05-.05.17,0,.24-.07,1-.55,1.95-1.1,2.91-1.67,1.12-.65,2.25-1.27,3.32-2a36.87,36.87,0,0,0,4-2.95c1.5-1.33,3.45-2,4.76-3.59,0-.05.19,0,.25-.05l2.73-2.11c.87-.68,1.73-1.39,2.61-2.05.49-.36,1-.66,1.53-1a26.3,26.3,0,0,1,2.31-1.45,16.5,16.5,0,0,1,4.25-1.43c.62-.12,1.22-.44,1.85-.52a18.06,18.06,0,0,1,2.21,0,.56.56,0,0,0,.37-.1c.25-.26.44,0,.68,0a2.61,2.61,0,0,1,1.8,1.32c1.12,1.55,2,3.32,3.62,4.42.46,1.27,2,1.2,2.7,2.12,1.3.13,2.43.92,3.81.88.86,0,1.76.28,2.66.23a.43.43,0,0,1,.23.08,3.24,3.24,0,0,0,2.4.12,8.92,8.92,0,0,0,2.58-.76c1.07.17,1.54-.93,2.44-1.14a1.83,1.83,0,0,0,.45-.25c1.34-.76,2.71-1.48,4-2.31a17.32,17.32,0,0,0,2.41-1.85A20.14,20.14,0,0,1,380.5,445c.14-.09.33-.11.47-.2.9-.62.91-1,.11-1.83-.23-.23-.44-.48-.81-.38a1.61,1.61,0,0,1-1.24-.33,2.53,2.53,0,0,0-1.46-.51.51.51,0,0,1-.35-.15c-.66-.68-1.7-.66-2.38-1.28-.37-.33-.91-.19-1.28-.64a1.7,1.7,0,0,0-1.32-.38c-.62.07-.78-.51-1.29-.63-1-.24-1.85-1-3-.8,0,0-.13-.17-.2-.17-1-.1-2-.65-3.05-.65h-6a3,3,0,0,0-.8.05,13.76,13.76,0,0,0-1.45.5,3.71,3.71,0,0,0-1.36.69c-.4.45-1,.29-1.38.75a14.34,14.34,0,0,1-1.16,1.18c-.26.26-.53.52-.78.79a2.39,2.39,0,0,1-1.49.76,14,14,0,0,0-2.81.57,2.43,2.43,0,0,1-1,.23,10.23,10.23,0,0,0-4,.78c-.13,0-.31-.05-.46-.08,0-.13,0-.29.1-.37.91-.95,1.84-1.87,2.66-2.91s1.9-2.07,2.86-3.09c1.71-1.85,3.24-3.83,4.86-5.76,1-1.22,1.94-2.52,3-3.74,1.88-2.29,3.35-4.88,5.35-7.07-.09-.53.46-.57.68-.64,1.8-.55,3.38-1.63,5.18-2.21,1.08-.34,2.09-.79,3.1.12a.42.42,0,0,0,.25.06c.75,0,1.45.44,2.24.3a1.27,1.27,0,0,1,.76.14,3.21,3.21,0,0,0,1.5.42,9.43,9.43,0,0,1,1.55.25,15.7,15.7,0,0,0,3.48-.3c.44,0,.85-.45,1.3-.5.64-.08,1-.69,1.46-.8a4.71,4.71,0,0,0,1.79-1.05,10.83,10.83,0,0,0,1.64-1.37c.89-1,1.72-2,2.55-3.09.38-.48.7-1,1.06-1.5,1.18-1.58,2.23-3.27,3.56-4.74a1.51,1.51,0,0,0,.29-1.4,1,1,0,0,0-1.36-.59,3.18,3.18,0,0,1-1.78.4c-2.12,0-4.25,0-6.37,0a18.53,18.53,0,0,0-3.57.23c-1.45.07-2.9.2-4.35.33-.7.06-1.36.22-1.51.94-.12.53-.32,1-.48,1.53a11,11,0,0,0-1.88,2.29c-.53.89-1.18,1.71-1.71,2.61a13,13,0,0,0-1.29,2.37,2.55,2.55,0,0,1-1.37,1.57,15.18,15.18,0,0,1-2.27.87c-.82.2-1.39.85-2.17,1.12l-.54.18a4.73,4.73,0,0,1,0-.65c0-.07.16-.12.18-.19a2.3,2.3,0,0,1,.79-1.33c.5-.37.24-1.17.87-1.46a.6.6,0,0,0,.3-.41,6.2,6.2,0,0,1,1.1-2c.5-.85.93-1.75,1.36-2.63s.75-1.89,1.14-2.84a21.23,21.23,0,0,0,1.09-3.14,7.43,7.43,0,0,1,.61-1.83c.33-.62.26-1.34.65-2a26.24,26.24,0,0,1,2.55-3.65c.89-1,1.29-2.31,2.31-3.19.77-1.78,2.29-2.89,3.67-4.12a2.76,2.76,0,0,1,1.39-.63c1.15-.16,2.32-.16,3.48-.31s2,.34,3.07.28c2-.1,4.08.22,6.12-.23a13.43,13.43,0,0,0,2.36-.34,4.41,4.41,0,0,1,1.56-.26,1.05,1.05,0,0,0,.49-.13c1-.58,2.15-.78,3.16-1.43a16.29,16.29,0,0,0,3.52-3.21c.9-1,1.39-2.36,2.37-3.33a7.89,7.89,0,0,0,.81-1.32,11.71,11.71,0,0,1,1-1.25c.4-.45,1-.79,1.23-1.3s.82-.6,1.1-1a4.52,4.52,0,0,1,.48-.5,1,1,0,0,0,0-1.22,2.29,2.29,0,0,0-1.61-.79,4.1,4.1,0,0,0-.7,0c-.84-.58-2-.18-2.88-.8a5.48,5.48,0,0,0-4.89-.72,8,8,0,0,1-2,.39h-.54l-.35,0-.06,0a1.28,1.28,0,0,0-1.42-.15l-.11,0a17.35,17.35,0,0,0-2.14.19c-.62.09-1.24.18-1.86.29a.63.63,0,0,0-.24,0l-.06,0a7.86,7.86,0,0,0-3.59,1.51,57.38,57.38,0,0,0-4.51,4.45,1.83,1.83,0,0,0-.43.61c-.15.18-.32.35-.47.54-.74.9-1,2.1-1.85,3,.13.88-.43,1.61-.51,2.41-.11,1-1,1.52-1.27,2.39a23.32,23.32,0,0,0-4.26,3.73,3.46,3.46,0,0,0-.78,1.06,4.82,4.82,0,0,1-1.39,1.91,6.41,6.41,0,0,1-.58.45c0-.27-.05-.54-.07-.8,0-.1,0-.21,0-.28.65-1.24.62-2.68,1.12-4a5.52,5.52,0,0,0,.26-1.83c.08-1.53.18-3.06.27-4.59,0-.05,0-.11,0-.14.4-.46.21-1,.28-1.55s.23-1,.26-1.55c0-.78,0-1.56,0-2.35a8.48,8.48,0,0,1,.24-2.39c.2-.7-.07-1.51.31-2.22a32.88,32.88,0,0,1,.29-5.15c.17-2.74-.35-5.45-.29-8.19,0-.18.05-.44-.05-.52-.58-.54-.07-1.27-.41-1.92a3.51,3.51,0,0,1-.06-2.16A4.71,4.71,0,0,1,375.57,351.24Zm13.32-19.09s0,0,0,0,0,0,0,0Zm-1.81,5.18.12.07h0v0l-.16,0Zm-3.2-3.25h0ZM352,326.67v-.06h0Zm8.28,6.36v0l0,0h0Zm.4,4.13-.09,0c.81.06,1.62.15,2.42.25A4.55,4.55,0,0,1,360.72,337.16Zm11.8-14.42h0ZM365.66,375c-.16,0-.31-.17-.47-.17l-1.07,0,.52-.17c.84-.3,1.59-.57,2.37.3a1.45,1.45,0,0,0,.65.45A13.54,13.54,0,0,1,365.66,375ZM336,437.65l0,0v-.05Zm-22.44,3.78v0l0,0Zm16.35,20.11a2.77,2.77,0,0,1,1.5-.41,5.77,5.77,0,0,0,.72,0,7.62,7.62,0,0,1-1.36.27l-.88.13Zm-5.39,4.59h.31a.61.61,0,0,1,0,.4c-.63,1.72.33,3,1.19,4.3h0c.56.31.72.94,1.11,1.39a14.19,14.19,0,0,0,2.6,2.24c-.08.13-.15.29-.45.08a14.16,14.16,0,0,1-4.93-6.66,5.12,5.12,0,0,0-.42-.65C323.56,466.56,323.79,466.14,324.53,466.13Zm46.13-52.78a3.19,3.19,0,0,0,.3-.42,5.81,5.81,0,0,0-.16.85,1.94,1.94,0,0,0,0,.24A.41.41,0,0,1,370.66,413.35Zm24.83-27.84-.2.05h0Zm-9.15-2.7h0Z" transform="translate(-286.17 -288.19)"/><path class="cls-2" d="M332.41,293.56c1.45,0,2.15-.73,2.17-2.38a3,3,0,0,0-3.23-3c-1.21,0-1.94.78-2,2.14A3.11,3.11,0,0,0,332.41,293.56Z" transform="translate(-286.17 -288.19)"/><path class="cls-3" d="M340.22,300.89a2.66,2.66,0,0,0,2.4-2.67,2.27,2.27,0,0,0-2.46-2.37,2.42,2.42,0,0,0-2.49,2.24A3.08,3.08,0,0,0,340.22,300.89Z" transform="translate(-286.17 -288.19)"/><path class="cls-4" d="M349.25,307.78c.54,0,.91-.2.9-.71a1.21,1.21,0,0,0-1.2-1.25.64.64,0,0,0-.75.76A1.23,1.23,0,0,0,349.25,307.78Z" transform="translate(-286.17 -288.19)"/><path class="cls-5" d="M375.57,351.24c.53-.75,1-1.51,1.57-2.25a2.69,2.69,0,0,1,.63-.77,20.58,20.58,0,0,0,3.16-2.73,5.06,5.06,0,0,1,1.61-1.13,17.53,17.53,0,0,1,2.75-1.05,12.14,12.14,0,0,1,3.33-.65,2.11,2.11,0,0,0,1-.24,17.44,17.44,0,0,1,2.4-.56,6.86,6.86,0,0,0,1.79-.36,11.17,11.17,0,0,1,1.87-.51c.36-.11.66-.39,1-.53a9.12,9.12,0,0,0,3.64-2.54c1.39-1.63,2.68-3.34,4.13-4.92a4.12,4.12,0,0,0,.44-.65c.51-.8,1-1.62,1.53-2.41q.38-.57.78-1.14c1.21-.27,1.65-1.38,2.17-2.34a2.21,2.21,0,0,0,.24-.61,16.84,16.84,0,0,0,2.25-2.22.85.85,0,0,0,.2-.72.88.88,0,0,0-.6-.43,2.33,2.33,0,0,0-1.23,0,6.22,6.22,0,0,1-2.8.24,42.31,42.31,0,0,1-5-.2,38.26,38.26,0,0,0-5.67-.06,8.08,8.08,0,0,0-2.93.27c-.79.3-1.64.5-2.41.85a7.85,7.85,0,0,1-2.87,1.1.26.26,0,0,0-.22.12,7.66,7.66,0,0,1-1.36,1.64c-1.29.57-2.55,1.19-3.1,2.66a4.2,4.2,0,0,0-1.37,1.95h0c0,.18,0,.36,0,.54a1.47,1.47,0,0,0-.82,1.66,3.37,3.37,0,0,1-.14.77c-.45,1-.75,2.1-1.26,3.07-.33.63-.15,1.39-.65,2s-.32,1.45-.74,2a1.62,1.62,0,0,0-.25,1,12.71,12.71,0,0,0,0,1.38,2.28,2.28,0,0,1-.48,1.47c-1,1.58-2,3.11-2.82,4.78-.1.2-.05.5-.36.4a.79.79,0,0,1-.48-.43,14.72,14.72,0,0,1-.28-2.1c-.05-.87,0-1.75,0-2.63a7.26,7.26,0,0,0-.25-2.93,1,1,0,0,1,0-.81,1.86,1.86,0,0,0,.25-1.42,22,22,0,0,1,.57-5.31c.14-.72.4-1.41.53-2.13s.51-1.36.7-2.07.52-1.63.78-2.45.89-1.5.76-2.45c0-.06.12-.12.16-.2.71-1.31.72-2.83,1.18-4.22a8.15,8.15,0,0,0,0-1.92,14.23,14.23,0,0,1,.28-2c.13-.58-.35-1-.28-1.55.17-1.33-.43-2.48-.77-3.7a13.49,13.49,0,0,0-1.53-3.09l-.1-.16c-.48-1.07-1-2.11-1.56-3.12a2.61,2.61,0,0,0-1.09-1.14c-.24-.36-.47-.73-.7-1.1a4.64,4.64,0,0,0-.85-1.33,2.14,2.14,0,0,1-.13-.19,5.81,5.81,0,0,1-1-1.93,4.2,4.2,0,0,0-1.38-2.07c-.19-.21-.26,0-.4,0a1.19,1.19,0,0,0-.8.76,3.68,3.68,0,0,0-.49,1.87,3.81,3.81,0,0,1-.16,1.47,27.54,27.54,0,0,0-2.1,4.86,8.36,8.36,0,0,0-.39,3.47,9.47,9.47,0,0,0-.35,2.78c0,.16,0,.33,0,.49a17.68,17.68,0,0,0-.08,2.3,20.27,20.27,0,0,0,.31,4.85,9.81,9.81,0,0,1,.57,3.64c0,.06.14.13.17.2a4.28,4.28,0,0,1,.37,2.2c0,.32-.15.11-.31.09-.71-.1-.76-.8-1.15-1.18a35.18,35.18,0,0,0-4-3.71,10.27,10.27,0,0,0-2.54-1.54c-.71-.23-1.27-.81-2-.86s-1.39-.48-2.12-.59c-.29,0-.56-.23-.86-.26-1.06-.11-2.13-.19-3.2-.28-.09,0-.23,0-.27,0-.49-.55-1.22,0-1.67-.32a2.73,2.73,0,0,0-1.85-.2,22.55,22.55,0,0,1-4.86-.35,18,18,0,0,0-4.07-.52c-.15,0-.31-.12-.48-.16a10.74,10.74,0,0,0-3.6-.68.83.83,0,0,0-.77.46c-.12.28,0,.56.27.84a20.21,20.21,0,0,1,1.91,2.53c1.16,1.91,2.11,3.93,3.31,5.83a22.77,22.77,0,0,0,2.91,3.92,8.68,8.68,0,0,1,1.05,1.2c.26.37.81.58,1,1.1a.71.71,0,0,0,.38.38,11.73,11.73,0,0,1,2.73,1.77c.6.43,1.36.6,1.92,1s1.6.5,2.15,1.18c1-.05,1.75.68,2.69.87s1.81.82,2.75,1a14.76,14.76,0,0,0,4.19.63c1.28-.1,2.58,0,3.87,0a2.26,2.26,0,0,0,.69,0,4.28,4.28,0,0,1,3.24,0,.58.58,0,0,0,.52,0c.39-.4.87-.19,1.3-.2a1.6,1.6,0,0,1,1.57,1.33c.18.94.36,1.88.56,2.81.05.25.23.48.26.72a30.38,30.38,0,0,0,.56,3.79c.34,1.28.17,2.63.54,3.92.15.56-.08,1.25.15,1.74s-.14,1.29.42,1.77c-.08,1.54.19,3.06.25,4.59.1,2.58.07,5.17,0,7.75s-.17,5.09-.27,7.63c0,.19.08.45,0,.55-.52.53,0,1.26-.35,1.79s-.12,1.34-.18,2c-.12,1.39-.19,2.79-.29,4.18,0,0,0,.12,0,.13s-.31.16-.35.12a1.45,1.45,0,0,1-.45-.61c-.07-.35.07-.76,0-1.1a37.88,37.88,0,0,1-1.1-4.8c-.06-.34-.21-.66-.26-1a7.05,7.05,0,0,0-.24-1.84,2.37,2.37,0,0,1,.22-1.94.34.34,0,0,0,0-.28c-.5-.89-.18-1.86-.27-2.79v-.2a5,5,0,0,0-.87-3.26,6.89,6.89,0,0,0-1-2.39,11.77,11.77,0,0,0-1.72-2.28c0-.07,0-.13-.05-.2-.07-.52-.33-1.09-1-1.11l-.41-.28c-.85-.88-1.72-1.74-2.6-2.58a5.09,5.09,0,0,0-1.77-1.07,6.08,6.08,0,0,0-2.85-.8c-.45-.5-1.11,0-1.54-.28a3,3,0,0,0-1.56-.24c-.51,0-1,0-1.52,0-1.13-.1-2.08.79-3.24.57-.09,0-.21.13-.33.17L346,356.31c-.4.13-.82.23-1.22.39s-.68.3-1,.45h0a6.64,6.64,0,0,0-3.25,1.28c-.29.1-.57.2-.86.27a4.82,4.82,0,0,0-2,.85.9.9,0,0,0-.29,1.21,1.88,1.88,0,0,0,.48.45c.58.37,1.2.69,1.79,1.05a3.72,3.72,0,0,0,1.18.93l.06,0,.21.19a.85.85,0,0,1,.33.1l.27.15c.35.26.6.67,1,.91a33.83,33.83,0,0,1,4.17,3c1.6,1.32,3.39,2.36,5,3.65,1,.78,2.1,1.32,3,2.14,1.31,1.24,3,1.61,4.51,2.51a.85.85,0,0,0,.4,0,4.25,4.25,0,0,1,1.56.25c.46.18,1.07-.09,1.53.31,1.14-.21,2.21.36,3.34.28.46,0,.93,0,1.39,0a.91.91,0,0,1,.71.3c.7.58.76,1.6,1.49,2.16.14,1.16.95,2.16.84,3.39,0,.19.13.4.21.6a21.69,21.69,0,0,1,.87,4.07,11,11,0,0,1,0,2.07c0,.71-.44,1.36-.28,2.1,0,.09-.15.21-.19.33a8.2,8.2,0,0,0-.59,2.09,4.48,4.48,0,0,1-.59,2c-.1.19-.28.39-.27.57a7,7,0,0,1-.55,2.27,37.69,37.69,0,0,0-1.19,4,4,4,0,0,1-.54,1.27c-.24.44,0,1-.31,1.24-.49.35-.44.86-.64,1.28-.31.65-.38,1.43-.74,2a16.15,16.15,0,0,0-.81,1.61c-.24.51-.63,1-.91,1.56-.62,1.19-1.32,2.32-2,3.46s-1.53,2.22-2.22,3.36a42.52,42.52,0,0,1-3.18,4.77,6.16,6.16,0,0,0-1,1.39,7.06,7.06,0,0,1-1.67,2.08,1,1,0,0,1-.2.11,2.34,2.34,0,0,1-.09-.24,7.12,7.12,0,0,1,.7-3,2.23,2.23,0,0,1,.4-.93,9.32,9.32,0,0,0,1.95-3.77c.36-1.18.75-2.36,1.13-3.55a4.84,4.84,0,0,0,.54-2.27c0-.1.13-.21.18-.33a9.27,9.27,0,0,0,.61-1.82,7.65,7.65,0,0,0,0-1.59,1.55,1.55,0,0,0,0-.57,13.71,13.71,0,0,1,0-1.57,9.09,9.09,0,0,0-.56-3.79,7.76,7.76,0,0,0-1.48-2.69,24.2,24.2,0,0,0-4.08-3.82,22.35,22.35,0,0,0-2.18-1.51,39.77,39.77,0,0,1-4.18-3c-1.11-.79-2.17-1.65-3.28-2.44a1,1,0,0,0-1.69.8c0,.27-.12.66,0,.8a.94.94,0,0,1,.26.61c-.27.24-.28.67-.06,1.41,0,.1.07.21.11.31.08,1.09.15,2.19.22,3.28,0,.05,0,.11,0,.14.48.65.15,1.4.28,2.1a10.48,10.48,0,0,1,.28,2.24q-.07,1.59,0,3.18c0,1,.17,2.05.26,3.07a1.24,1.24,0,0,0,.09.38,7,7,0,0,1,.43,2c.16.91-.11,1.89.58,2.68.07.08,0,.27,0,.41.11,1.1.9,1.94,1.13,3,.06.27.45.45.57.72a5.84,5.84,0,0,0,1.85,1.85,9.79,9.79,0,0,0,4.39,2.1c.37.05.62.23.63.58a6.75,6.75,0,0,1,0,2.06c-.22.8-.37,1.6-.51,2.42a1.2,1.2,0,0,1-.24.58,1.88,1.88,0,0,0-.33.7A16,16,0,0,1,350,431a4.33,4.33,0,0,0-1,2.06,1.51,1.51,0,0,1-.47.76,26.71,26.71,0,0,1-2.36,2.61c-.84.73-1.29,1.83-2.32,2.36a24.24,24.24,0,0,1-3.63,3.88,23.64,23.64,0,0,1-3,2.73,43.37,43.37,0,0,0-4.62,3.82,10.78,10.78,0,0,1-1.36,1.06c-.06.05-.39-.1-.39-.17a1,1,0,0,1,.13-.63c.41-.61.65-1.3,1.05-1.92a2.3,2.3,0,0,0,.48-1.19,1.75,1.75,0,0,1,1.17-1.32,3,3,0,0,0,2.2-1.31,21,21,0,0,0,2.73-4.13,10.26,10.26,0,0,0,.59-1.14c.18-.43.31-.89.49-1.32s.42-.76.54-1.16a13.93,13.93,0,0,1,.81-2.57,7.07,7.07,0,0,0-.29-3.45,1.61,1.61,0,0,1-.23-.88,3.51,3.51,0,0,0-.52-1.86,1.94,1.94,0,0,1-.3-.84,4.2,4.2,0,0,0-.49-1.68c0-.26-.05-.53-.06-.79a5.42,5.42,0,0,0-1.63-3.86c-.39-1-.77-2-1.16-3-.19-.51-.43-.61-1.19-.58-.43,0-.71.19-.74.61a17.22,17.22,0,0,1-.78,2.72,3.08,3.08,0,0,0-.2.56c-.21.74-.17,1.49-.4,2.24a2.5,2.5,0,0,1-.09.25,2.41,2.41,0,0,0-.26.81c-.59,1.71-1.26,3.4-1.75,5.14a.37.37,0,0,1-.05.11,27.47,27.47,0,0,1-1.41,2.6c-.45.87-.84,1.78-1.26,2.66a1.91,1.91,0,0,0-.17.62,5.06,5.06,0,0,1-.27,2.25.58.58,0,0,0,0,.53c.45.53.2,1.13.27,1.7a1.74,1.74,0,0,0,.07.66c.62.93.85,2.1,1.74,2.89a3.72,3.72,0,0,1,1.06,1.35,2.77,2.77,0,0,1-.06,2.32c-.59,1.25-1.26,2.44-1.92,3.64a14.48,14.48,0,0,1-3.94,4.44c-2,1.55-4,3-6.07,4.41-.92.65-2.12.82-2.88,1.74,0,.05-.17,0-.25.05-.39.18-.78.35-1.16.54s-.76.4-1.14.58c-.89.43-1.6,1.2-2.62,1.38a.73.73,0,0,0-.42.29,1.33,1.33,0,0,1-1.31.55.82.82,0,0,0-.58.24c-.37.36-.7.72-1.3.59-.11,0-.29.17-.42.29-.3.26-.52.67-1,.52-.42.63-1.36.45-1.75,1.13-.06.11-.23.26-.3.24-.74-.22-1.1.5-1.68.67-.16.05-.25.19-.4,0s-.18-.17-.07-.4c.6-1.28,1.15-2.57,1.68-3.88.39-1,.36-1,1.36-1.62.32-.22.83-.4.92-.7.25-.84,1.09-1.14,1.48-1.88a10.23,10.23,0,0,1,1.78-1.9,6.08,6.08,0,0,0,.4-.66,36.2,36.2,0,0,0,2-3c.76-1.25,1.54-2.51,2.29-3.77s1.41-2.64,2-4a2.53,2.53,0,0,0,.31-1.26c-.12-2,.2-4-.28-6a11.06,11.06,0,0,1-.64-3.06s-.08-.06-.1-.1c-.14-.49-.38-.95-.55-1.43s-.46-1-.61-1.54a23.17,23.17,0,0,0-1.3-3.07,19,19,0,0,0-1.95-3.25c-.1-.18-.19-.37-.28-.55a8.7,8.7,0,0,0-2.42-2.86c-1-1.19-2.21-2.29-3.24-3.5a.6.6,0,0,0-1-.05,2.22,2.22,0,0,0-1,1.66,12.79,12.79,0,0,1-.45,2.11,5.13,5.13,0,0,0-.31,1.48,9.57,9.57,0,0,1-.57,1.94c-.25.64-.05,1.5-.4,2a7.19,7.19,0,0,0-.66,1.94c-.17.59-.63,1.07-.63,1.69s-.53,1.17-.7,1.79a8.5,8.5,0,0,1-.65,1.67,2.09,2.09,0,0,0-.32,1.52,7.84,7.84,0,0,0-.9,3.64c-.4.33-.12.78-.2,1.17a6.31,6.31,0,0,0-.27,1.26c0,1.76-.1,3.52,0,5.26.08,1.16.53,2.28.66,3.45a8.23,8.23,0,0,0,.72,2.2,14.14,14.14,0,0,0,2,3.59l.47.58a3.1,3.1,0,0,0,.66.83c.34.43.68.87,1,1.29.2.24.16.38.1.68-.16.73-.55,1.37-.69,2.07a11.46,11.46,0,0,1-.85,2.7,7.49,7.49,0,0,1-.28.71c-.57.94-.81,2.11-1.92,2.64a9.54,9.54,0,0,1-2.1.94,3.47,3.47,0,0,0-1.53.63c-.56.46-1.29-.06-1.76.48,0,0-.2,0-.25,0a1,1,0,0,1-.86.27c-.27,0-.71-.11-.8,0-.36.52-1,0-1.37.43s-.92,0-1.41.27-1,.07-1.47.12a.81.81,0,0,0-.45.23c-.1.07-.21.26-.18.32a.58.58,0,0,0,.36.26,47.71,47.71,0,0,0,6-.28c.11,0,.22-.13.34-.17a9.08,9.08,0,0,1,1.23-.36,22.93,22.93,0,0,0,3.54-1.17,4.5,4.5,0,0,1,1.86-.51,1.83,1.83,0,0,0,1.17-.5,6,6,0,0,1,1-.59c1.1-.49,2.24-.83,3.32-1.36a6.7,6.7,0,0,1,1.86-.81,9.25,9.25,0,0,0,2.68-.93,7.66,7.66,0,0,1,3.13-.79h4.15a2.48,2.48,0,0,0,.82,0c1.33-.51,2.7-.1,4.05-.22.1,0,.21.22.31.22.63,0,.56.51.4.74-.28.41-.17.64,0,1.08a19.33,19.33,0,0,0,3.39,6.06,15.13,15.13,0,0,0,2.81,2.54c.82.61,1.85.89,2.7,1.5.43.32,1.11.29,1.53.61s1.11.14,1.61.5a5.15,5.15,0,0,0,1.41.57c1,.34,2.07.27,3.1.52a7.1,7.1,0,0,0,1.6.08h0a2.32,2.32,0,0,0,1.41.22,18.24,18.24,0,0,0,4.48-.25,29.53,29.53,0,0,0,4.58-1.32c.27-.13.58-.16.84-.31.74-.43,1.44-1,2.21-1.34a20,20,0,0,1,2.67-1.59,8.55,8.55,0,0,0,1.19-.45,1.19,1.19,0,0,0,.37-1.62,17.71,17.71,0,0,0-1.36-1.38,2,2,0,0,1-1.44-.85,7.16,7.16,0,0,0-2.62-2.5c-.52-.5-.78-1.29-1.61-1.42l-.06-.06-.83-1c.05-.43-.25-.67-.5-.93a6.35,6.35,0,0,0-2.77-1.64,1.63,1.63,0,0,0-1-.45,3,3,0,0,1-1.21-.43,13.25,13.25,0,0,0-1.82-1,19.76,19.76,0,0,1-2-.89l-.59-.25c-.8-.35-1.71-.37-2.48-.69s-1.81-.23-2.62-.69a31.57,31.57,0,0,0-4.74.24,10.49,10.49,0,0,0-5.34,2.83,10.78,10.78,0,0,1-1.28,1.25c-.57.42-1.17.92-2,.44a1.74,1.74,0,0,0-.8-.05h-3.18c-.93,0-1.85,0-2.77,0-.38,0-.76-.1-1.15-.15l.89-.88c.05-.05.17,0,.24-.07,1-.55,1.95-1.1,2.91-1.67,1.12-.65,2.25-1.27,3.32-2a36.87,36.87,0,0,0,4-2.95c1.5-1.33,3.45-2,4.76-3.59,0-.05.19,0,.25-.05l2.73-2.11c.87-.68,1.73-1.39,2.61-2.05.49-.36,1-.66,1.53-1a26.3,26.3,0,0,1,2.31-1.45,16.5,16.5,0,0,1,4.25-1.43c.62-.12,1.22-.44,1.85-.52a18.06,18.06,0,0,1,2.21,0,.56.56,0,0,0,.37-.1c.25-.26.44,0,.68,0a2.61,2.61,0,0,1,1.8,1.32c1.12,1.55,2,3.32,3.62,4.42.46,1.27,2,1.2,2.7,2.12,1.3.13,2.43.92,3.81.88.86,0,1.76.28,2.66.23a.43.43,0,0,1,.23.08,3.24,3.24,0,0,0,2.4.12,8.92,8.92,0,0,0,2.58-.76c1.07.17,1.54-.93,2.44-1.14a1.83,1.83,0,0,0,.45-.25c1.34-.76,2.71-1.48,4-2.31a17.32,17.32,0,0,0,2.41-1.85A20.14,20.14,0,0,1,380.5,445c.14-.09.33-.11.47-.2.9-.62.91-1,.11-1.83-.23-.23-.44-.48-.81-.38a1.61,1.61,0,0,1-1.24-.33,2.53,2.53,0,0,0-1.46-.51.51.51,0,0,1-.35-.15c-.66-.68-1.7-.66-2.38-1.28-.37-.33-.91-.19-1.28-.64a1.7,1.7,0,0,0-1.32-.38c-.62.07-.78-.51-1.29-.63-1-.24-1.85-1-3-.8,0,0-.13-.17-.2-.17-1-.1-2-.65-3.05-.65h-6a3,3,0,0,0-.8.05,13.76,13.76,0,0,0-1.45.5,3.71,3.71,0,0,0-1.36.69c-.4.45-1,.29-1.38.75a14.34,14.34,0,0,1-1.16,1.18c-.26.26-.53.52-.78.79a2.39,2.39,0,0,1-1.49.76,14,14,0,0,0-2.81.57,2.43,2.43,0,0,1-1,.23,10.23,10.23,0,0,0-4,.78c-.13,0-.31-.05-.46-.08,0-.13,0-.29.1-.37.91-.95,1.84-1.87,2.66-2.91s1.9-2.07,2.86-3.09c1.71-1.85,3.24-3.83,4.86-5.76,1-1.22,1.94-2.52,3-3.74,1.88-2.29,3.35-4.88,5.35-7.07-.09-.53.46-.57.68-.64,1.8-.55,3.38-1.63,5.18-2.21,1.08-.34,2.09-.79,3.1.12a.42.42,0,0,0,.25.06c.75,0,1.45.44,2.24.3a1.27,1.27,0,0,1,.76.14,3.21,3.21,0,0,0,1.5.42,9.43,9.43,0,0,1,1.55.25,15.7,15.7,0,0,0,3.48-.3c.44,0,.85-.45,1.3-.5.64-.08,1-.69,1.46-.8a4.71,4.71,0,0,0,1.79-1.05,10.83,10.83,0,0,0,1.64-1.37c.89-1,1.72-2,2.55-3.09.38-.48.7-1,1.06-1.5,1.18-1.58,2.23-3.27,3.56-4.74a1.51,1.51,0,0,0,.29-1.4,1,1,0,0,0-1.36-.59,3.18,3.18,0,0,1-1.78.4c-2.12,0-4.25,0-6.37,0a18.53,18.53,0,0,0-3.57.23c-1.45.07-2.9.2-4.35.33-.7.06-1.36.22-1.51.94-.12.53-.32,1-.48,1.53a11,11,0,0,0-1.88,2.29c-.53.89-1.18,1.71-1.71,2.61a13,13,0,0,0-1.29,2.37,2.55,2.55,0,0,1-1.37,1.57,15.18,15.18,0,0,1-2.27.87c-.82.2-1.39.85-2.17,1.12l-.54.18a4.73,4.73,0,0,1,0-.65c0-.07.16-.12.18-.19a2.3,2.3,0,0,1,.79-1.33c.5-.37.24-1.17.87-1.46a.6.6,0,0,0,.3-.41,6.2,6.2,0,0,1,1.1-2c.5-.85.93-1.75,1.36-2.63s.75-1.89,1.14-2.84a21.23,21.23,0,0,0,1.09-3.14,7.43,7.43,0,0,1,.61-1.83c.33-.62.26-1.34.65-2a26.24,26.24,0,0,1,2.55-3.65c.89-1,1.29-2.31,2.31-3.19.77-1.78,2.29-2.89,3.67-4.12a2.76,2.76,0,0,1,1.39-.63c1.15-.16,2.32-.16,3.48-.31s2,.34,3.07.28c2-.1,4.08.22,6.12-.23a13.43,13.43,0,0,0,2.36-.34,4.41,4.41,0,0,1,1.56-.26,1.05,1.05,0,0,0,.49-.13c1-.58,2.15-.78,3.16-1.43a16.29,16.29,0,0,0,3.52-3.21c.9-1,1.39-2.36,2.37-3.33a7.89,7.89,0,0,0,.81-1.32,11.71,11.71,0,0,1,1-1.25c.4-.45,1-.79,1.23-1.3s.82-.6,1.1-1a4.52,4.52,0,0,1,.48-.5,1,1,0,0,0,0-1.22,2.29,2.29,0,0,0-1.61-.79,4.1,4.1,0,0,0-.7,0c-.84-.58-2-.18-2.88-.8a5.48,5.48,0,0,0-4.89-.72,8,8,0,0,1-2,.39h-.54l-.35,0-.06,0a1.28,1.28,0,0,0-1.42-.15l-.11,0a17.35,17.35,0,0,0-2.14.19c-.62.09-1.24.18-1.86.29a.63.63,0,0,0-.24,0l-.06,0a7.86,7.86,0,0,0-3.59,1.51,57.38,57.38,0,0,0-4.51,4.45,1.83,1.83,0,0,0-.43.61c-.15.18-.32.35-.47.54-.74.9-1,2.1-1.85,3,.13.88-.43,1.61-.51,2.41-.11,1-1,1.52-1.27,2.39a23.32,23.32,0,0,0-4.26,3.73,3.46,3.46,0,0,0-.78,1.06,4.82,4.82,0,0,1-1.39,1.91,6.41,6.41,0,0,1-.58.45c0-.27-.05-.54-.07-.8,0-.1,0-.21,0-.28.65-1.24.62-2.68,1.12-4a5.52,5.52,0,0,0,.26-1.83c.08-1.53.18-3.06.27-4.59,0-.05,0-.11,0-.14.4-.46.21-1,.28-1.55s.23-1,.26-1.55c0-.78,0-1.56,0-2.35a8.48,8.48,0,0,1,.24-2.39c.2-.7-.07-1.51.31-2.22a32.88,32.88,0,0,1,.29-5.15c.17-2.74-.35-5.45-.29-8.19,0-.18.05-.44-.05-.52-.58-.54-.07-1.27-.41-1.92a3.51,3.51,0,0,1-.06-2.16A4.71,4.71,0,0,1,375.57,351.24Zm13.32-19.09s0,0,0,0,0,0,0,0Zm-1.81,5.18.12.07h0v0l-.16,0Zm-3.2-3.25h0ZM352,326.67v-.06h0Zm8.28,6.36v0l0,0h0Zm.4,4.13-.09,0c.81.06,1.62.15,2.42.25A4.55,4.55,0,0,1,360.72,337.16Zm11.8-14.42h0ZM365.66,375c-.16,0-.31-.17-.47-.17l-1.07,0,.52-.17c.84-.3,1.59-.57,2.37.3a1.45,1.45,0,0,0,.65.45A13.54,13.54,0,0,1,365.66,375ZM336,437.65l0,0v-.05Zm-22.44,3.78v0l0,0Zm16.35,20.11a2.77,2.77,0,0,1,1.5-.41,5.77,5.77,0,0,0,.72,0,7.62,7.62,0,0,1-1.36.27l-.88.13Zm-5.39,4.59h.31a.61.61,0,0,1,0,.4c-.63,1.72.33,3,1.19,4.3h0c.56.31.72.94,1.11,1.39a14.19,14.19,0,0,0,2.6,2.24c-.08.13-.15.29-.45.08a14.16,14.16,0,0,1-4.93-6.66,5.12,5.12,0,0,0-.42-.65C323.56,466.56,323.79,466.14,324.53,466.13Zm46.13-52.78a3.19,3.19,0,0,0,.3-.42,5.81,5.81,0,0,0-.16.85,1.94,1.94,0,0,0,0,.24A.41.41,0,0,1,370.66,413.35Zm24.83-27.84-.2.05h0Zm-9.15-2.7h0Z" transform="translate(-286.17 -288.19)"/></svg>