<svg id="Layer_1" data-name="Layer 1" xmlns="http://www.w3.org/2000/svg" viewBox="0 0 77.97 78.04"><defs><style>.cls-1{fill:#3b150e;}</style></defs><path class="cls-1" d="M227.61,409.79l0-.54c0-.33,0-.8,0-1.33a13.41,13.41,0,0,0-.16-1.73,7,7,0,0,0-.49-1.7,3.56,3.56,0,0,0-.95-1.36,2.51,2.51,0,0,0-1-.52,2.1,2.1,0,0,0-1,0s0,.19.09.48.13.71.2,1.15.17.93.25,1.35a5.58,5.58,0,0,0,.26,1.07,8.08,8.08,0,0,0,1.51,1.91l.84.86Z" transform="translate(-151.01 -360.98)"/><path class="cls-1" d="M221,409a5.12,5.12,0,0,0,.69-.77c.23-.34.47-.73.69-1.1a9.87,9.87,0,0,0,.52-1l.21-.43a2.05,2.05,0,0,0-1-.24,3.44,3.44,0,0,0-2.33,1,7.86,7.86,0,0,0-1,1.09,9.91,9.91,0,0,0-.81,1.1,13,13,0,0,0-.76,1.2,14.62,14.62,0,0,0,1.59-.17,10.81,10.81,0,0,0,1.28-.29A2.86,2.86,0,0,0,221,409Z" transform="translate(-151.01 -360.98)"/><path class="cls-1" d="M223.23,408.84s0,.18,0,.49,0,.72,0,1.17,0,.93,0,1.38a8.12,8.12,0,0,0,.06,1.1,3.85,3.85,0,0,0,.41,1l2.1.88a16,16,0,0,0,.18-1.78,8.87,8.87,0,0,0-.16-1.82,3,3,0,0,0-1.55-2.21A2,2,0,0,0,223.23,408.84Z" transform="translate(-151.01 -360.98)"/><path class="cls-1" d="M218.39,411.77l2.44,1c.48-.6.85-1.11.85-1.11a2,2,0,0,0-.89-.42A3.33,3.33,0,0,0,218.39,411.77Z" transform="translate(-151.01 -360.98)"/><path class="cls-1" d="M228.71,400h-2.27c.5.41,1.14.84,1.65,1.18s.9.58.9.58A17.19,17.19,0,0,0,228.71,400Z" transform="translate(-151.01 -360.98)"/><path class="cls-1" d="M218.82,404a14.7,14.7,0,0,0,1.52-.51,5.22,5.22,0,0,0,2-1.17,8.41,8.41,0,0,0,1-2.33h-2.65l-.09.13a6.52,6.52,0,0,0-.75,1.27c-.22.44-.42.88-.57,1.27s-.28.72-.37.95S218.82,404,218.82,404Z" transform="translate(-151.01 -360.98)"/><path class="cls-1" d="M221,423.44s.1-.17.25-.47.34-.73.54-1.22a9.37,9.37,0,0,0,.72-3.41,3.61,3.61,0,0,0-.36-1.63,2.32,2.32,0,0,0-.7-.84,2,2,0,0,0-.95-.4l-.1.48-.11.52c0,.19-.09.4-.14.62-.11.43-.2.91-.29,1.34a5.31,5.31,0,0,0-.17,1.09,8.36,8.36,0,0,0,.66,2.34l.45,1.12Z" transform="translate(-151.01 -360.98)"/><path class="cls-1" d="M215.2,420.14a5.39,5.39,0,0,0,.92-.45c.35-.22.72-.49,1.06-.75a10.12,10.12,0,0,0,.88-.72l.35-.32a2,2,0,0,0-.83-.61,2.66,2.66,0,0,0-1.06-.21,4.53,4.53,0,0,0-1.49.28,9.56,9.56,0,0,0-1.34.62,13.08,13.08,0,0,0-1.16.72c-.36.22-.65.42-.85.57l-.32.25.45.15c.28.08.67.2,1.08.29A5.39,5.39,0,0,0,215.2,420.14Z" transform="translate(-151.01 -360.98)"/><path class="cls-1" d="M217.32,420.88l-.66,1.54c-.18.41-.37.85-.53,1.27a7,7,0,0,0-.37,1,4.27,4.27,0,0,0,0,1.07l1.61,1.6a17.58,17.58,0,0,0,.84-1.57,8.08,8.08,0,0,0,.54-1.74,3,3,0,0,0-.58-2.63A2,2,0,0,0,217.32,420.88Z" transform="translate(-151.01 -360.98)"/><path class="cls-1" d="M211.73,421.75l1.87,1.86c.67-.37,1.21-.71,1.21-.71a2.08,2.08,0,0,0-.68-.72A3.24,3.24,0,0,0,211.73,421.75Z" transform="translate(-151.01 -360.98)"/><path class="cls-1" d="M225.77,414.83l-2.1-.88c.33.58.73,1.22,1.08,1.73s.6.88.6.88.06-.18.14-.49S225.69,415.33,225.77,414.83Z" transform="translate(-151.01 -360.98)"/><path class="cls-1" d="M215.1,414.73s.74.1,1.6.12a5.45,5.45,0,0,0,2.29-.31,3.87,3.87,0,0,0,.88-.72,11.82,11.82,0,0,0,1-1l-2.44-1-.13.08a8,8,0,0,0-1.19.88c-.35.33-.72.65-1,.95l-.7.75Z" transform="translate(-151.01 -360.98)"/><path class="cls-1" d="M209.68,433.52s.16-.11.42-.33.59-.54,1-.92a10.83,10.83,0,0,0,1.11-1.34c.17-.25.34-.49.49-.75a6.91,6.91,0,0,0,.36-.79,2.92,2.92,0,0,0,0-2.69,2,2,0,0,0-.72-.73s-.43.63-1,1.36l-.4.57-.39.55a4.34,4.34,0,0,0-.84,3.38c0,.45,0,.87,0,1.19Z" transform="translate(-151.01 -360.98)"/><path class="cls-1" d="M205.58,428.27a7.83,7.83,0,0,0,2.29-.36,9.62,9.62,0,0,0,1.08-.33l.46-.16a2.08,2.08,0,0,0-.54-.88,2.88,2.88,0,0,0-.9-.6,3.44,3.44,0,0,0-.66-.2,6.43,6.43,0,0,0-.83-.11,10.39,10.39,0,0,0-1.47.06c-.49.05-.94.15-1.35.22a10,10,0,0,0-1,.22l-.39.09a13.86,13.86,0,0,0,1.25,1A5.59,5.59,0,0,0,205.58,428.27Z" transform="translate(-151.01 -360.98)"/><path class="cls-1" d="M207.25,429.76l-.35.35-.37.38-.46.44c-.33.3-.67.66-1,1a5.54,5.54,0,0,0-.74.82,4.28,4.28,0,0,0-.4,1l.88,2.1a9.74,9.74,0,0,0,2.54-2.54,3.63,3.63,0,0,0,.59-1.56,2.43,2.43,0,0,0-.12-1.09A2.05,2.05,0,0,0,207.25,429.76Z" transform="translate(-151.01 -360.98)"/><path class="cls-1" d="M201.76,428.42l1,2.44c.38,0,.72-.09,1-.13l.4-.06a2,2,0,0,0-.34-.93A3.3,3.3,0,0,0,201.76,428.42Z" transform="translate(-151.01 -360.98)"/><path class="cls-1" d="M217.38,427.39l-1.61-1.6c.07.63.22,1.39.34,2s.22,1,.22,1S216.82,428.24,217.38,427.39Z" transform="translate(-151.01 -360.98)"/><path class="cls-1" d="M207.55,423.23s.64.37,1.43.72a10.81,10.81,0,0,0,1.23.45,2.65,2.65,0,0,0,1,.13,4.08,4.08,0,0,0,1.09-.32c.42-.17.88-.39,1.29-.6l-1.87-1.86-.16,0a7.16,7.16,0,0,0-1.43.37,12.52,12.52,0,0,0-1.29.49l-.94.42Z" transform="translate(-151.01 -360.98)"/><path class="cls-1" d="M195.35,438.51l.51-.15c.32-.1.76-.27,1.25-.48a9.55,9.55,0,0,0,1.54-.81,7,7,0,0,0,.74-.51A6,6,0,0,0,200,436a2.92,2.92,0,0,0,1-2.49,2,2,0,0,0-.39-1l-.41.28-1,.61c-.18.13-.38.25-.58.38l-.57.36a5.83,5.83,0,0,0-.89.67A7.73,7.73,0,0,0,196,437c-.18.41-.34.8-.47,1.09Z" transform="translate(-151.01 -360.98)"/><path class="cls-1" d="M193.59,432.08a7.89,7.89,0,0,0,2.25.56,14.47,14.47,0,0,0,1.61.13,2.11,2.11,0,0,0-.16-1,3,3,0,0,0-.6-.89,4.54,4.54,0,0,0-1.25-.86,9.62,9.62,0,0,0-1.39-.51c-.47-.15-.92-.23-1.33-.33s-.75-.15-1-.18l-.4-.06.21.43c.14.26.33.61.56,1A5.42,5.42,0,0,0,193.59,432.08Z" transform="translate(-151.01 -360.98)"/><path class="cls-1" d="M194.56,434.1l-.46.19-.49.2-.6.23c-.42.16-.87.35-1.27.52a6.77,6.77,0,0,0-1,.48,3.58,3.58,0,0,0-.74.76v2.27c.53-.14,1.13-.31,1.7-.52a8.55,8.55,0,0,0,1.62-.85,3.54,3.54,0,0,0,1.14-1.22,2.25,2.25,0,0,0,.31-1.05A2,2,0,0,0,194.56,434.1Z" transform="translate(-151.01 -360.98)"/><path class="cls-1" d="M190,430.76v2.64c.74.21,1.36.35,1.36.35a2,2,0,0,0,0-1A3.21,3.21,0,0,0,190,430.76Z" transform="translate(-151.01 -360.98)"/><path class="cls-1" d="M204.83,435.8l-.88-2.1c-.18.62-.33,1.38-.45,2s-.2,1.06-.2,1.06l.12-.07.33-.18C204,436.32,204.4,436.09,204.83,435.8Z" transform="translate(-151.01 -360.98)"/><path class="cls-1" d="M197.34,428.2s.45.58,1,1.21a10,10,0,0,0,1,.89,3.07,3.07,0,0,0,.88.51,5.26,5.26,0,0,0,1.13.12c.45,0,1,0,1.42-.07l-1-2.44-.15,0a9,9,0,0,0-1.46-.21,13.15,13.15,0,0,0-1.38,0A12.38,12.38,0,0,0,197.34,428.2Z" transform="translate(-151.01 -360.98)"/><path class="cls-1" d="M180.21,437.64s.2,0,.54.05.8,0,1.33,0a9.71,9.71,0,0,0,3.43-.65,3.57,3.57,0,0,0,1.36-1,2.41,2.41,0,0,0,.52-1,2.13,2.13,0,0,0,0-1l-.49.09c-.3.07-.7.13-1.14.2s-.92.17-1.35.25a7.64,7.64,0,0,0-1.07.26,8.92,8.92,0,0,0-1.92,1.52c-.32.31-.63.61-.85.84Z" transform="translate(-151.01 -360.98)"/><path class="cls-1" d="M181,431a5.12,5.12,0,0,0,.77.69c.34.23.73.47,1.1.69s.74.4,1,.53l.44.2a2.14,2.14,0,0,0,.24-1,3.53,3.53,0,0,0-1-2.33,8.48,8.48,0,0,0-1.09-1,11.24,11.24,0,0,0-1.11-.8,10.87,10.87,0,0,0-1.2-.77s0,.74.18,1.59a10.37,10.37,0,0,0,.28,1.28A2.76,2.76,0,0,0,181,431Z" transform="translate(-151.01 -360.98)"/><path class="cls-1" d="M181.17,433.26H179.5c-.45,0-.93,0-1.38,0a8.12,8.12,0,0,0-1.1.06,3.51,3.51,0,0,0-1,.41l-.87,2.1A15.56,15.56,0,0,0,177,436a8.87,8.87,0,0,0,1.82-.16,3,3,0,0,0,2.21-1.55A2,2,0,0,0,181.17,433.26Z" transform="translate(-151.01 -360.98)"/><path class="cls-1" d="M178.24,428.42l-1,2.44c.61.48,1.12.85,1.12.85a1.92,1.92,0,0,0,.41-.9A3.31,3.31,0,0,0,178.24,428.42Z" transform="translate(-151.01 -360.98)"/><path class="cls-1" d="M190,438.75v-2.27a19.87,19.87,0,0,0-1.18,1.64c-.34.51-.58.9-.58.9S189,439,190,438.75Z" transform="translate(-151.01 -360.98)"/><path class="cls-1" d="M186,428.85a15.3,15.3,0,0,0,.51,1.53,5.22,5.22,0,0,0,1.17,2,8.88,8.88,0,0,0,2.33,1v-2.64l-.12-.1a8.24,8.24,0,0,0-1.28-.75c-.44-.22-.88-.42-1.26-.57s-.72-.28-1-.36S186,428.85,186,428.85Z" transform="translate(-151.01 -360.98)"/><path class="cls-1" d="M166.56,431a4,4,0,0,0,.48.25c.3.15.72.35,1.21.55a9.38,9.38,0,0,0,3.42.72,3.56,3.56,0,0,0,1.62-.36,2.35,2.35,0,0,0,.85-.69,2,2,0,0,0,.39-1l-.48-.11-.52-.1-.61-.15c-.44-.11-.92-.19-1.34-.3a7.15,7.15,0,0,0-1.09-.16,8.33,8.33,0,0,0-2.35.66c-.43.16-.82.33-1.11.45Z" transform="translate(-151.01 -360.98)"/><path class="cls-1" d="M169.87,425.22a5.78,5.78,0,0,0,.45.92c.22.36.49.72.75,1.07s.52.65.72.87l.32.36a2.11,2.11,0,0,0,.61-.84,2.64,2.64,0,0,0,.21-1.05,4.38,4.38,0,0,0-.28-1.5,8.54,8.54,0,0,0-.62-1.34,12.47,12.47,0,0,0-.71-1.17c-.22-.35-.43-.64-.58-.84l-.24-.32s-.07.18-.15.45-.2.67-.3,1.09A5.33,5.33,0,0,0,169.87,425.22Z" transform="translate(-151.01 -360.98)"/><path class="cls-1" d="M169.13,427.33l-1.53-.65-1.28-.54a5.85,5.85,0,0,0-1-.36,3.14,3.14,0,0,0-1.06,0l-1.61,1.6a17.58,17.58,0,0,0,1.57.84,7.91,7.91,0,0,0,1.74.54,3,3,0,0,0,2.63-.57A2,2,0,0,0,169.13,427.33Z" transform="translate(-151.01 -360.98)"/><path class="cls-1" d="M168.27,421.75l-1.87,1.86c.37.67.71,1.21.71,1.21a2,2,0,0,0,.73-.67A3.3,3.3,0,0,0,168.27,421.75Z" transform="translate(-151.01 -360.98)"/><path class="cls-1" d="M175.18,435.8l.87-2.1c-.58.32-1.21.73-1.73,1.07s-.88.61-.88.61l.49.14C174.24,435.59,174.67,435.72,175.18,435.8Z" transform="translate(-151.01 -360.98)"/><path class="cls-1" d="M175.28,425.13a15.89,15.89,0,0,0-.12,1.6,5.32,5.32,0,0,0,.31,2.29,4.07,4.07,0,0,0,.71.88,13.43,13.43,0,0,0,1,1l1-2.44-.08-.13a7.38,7.38,0,0,0-.89-1.19c-.32-.35-.64-.72-.94-1l-.75-.71A3.88,3.88,0,0,0,175.28,425.13Z" transform="translate(-151.01 -360.98)"/><path class="cls-1" d="M156.49,419.68l.34.42c.22.25.54.59.92,1a11.76,11.76,0,0,0,1.34,1.1c.24.17.49.34.75.49a7,7,0,0,0,.79.37,2.9,2.9,0,0,0,2.68,0,2,2,0,0,0,.73-.72l-.4-.28c-.26-.17-.58-.42-.95-.68l-.57-.39-.56-.39a5.12,5.12,0,0,0-.95-.56,7.86,7.86,0,0,0-2.42-.29h-1.7Z" transform="translate(-151.01 -360.98)"/><path class="cls-1" d="M161.76,415.58a7.83,7.83,0,0,0,.35,2.3,9.62,9.62,0,0,0,.33,1.08l.16.46a2.22,2.22,0,0,0,.88-.54,2.72,2.72,0,0,0,.6-.9,3.44,3.44,0,0,0,.2-.66,4.07,4.07,0,0,0,.11-.83,9.09,9.09,0,0,0-.06-1.47c0-.49-.15-.94-.21-1.35a10,10,0,0,0-.22-1c-.06-.25-.09-.39-.09-.39a12.34,12.34,0,0,0-1,1.25A5.41,5.41,0,0,0,161.76,415.58Z" transform="translate(-151.01 -360.98)"/><path class="cls-1" d="M160.27,417.26l-.35-.35-.38-.38-.44-.46c-.31-.33-.66-.66-1-1a7.87,7.87,0,0,0-.82-.74,4.48,4.48,0,0,0-1-.4l-2.1.88a9.7,9.7,0,0,0,2.53,2.54,3.63,3.63,0,0,0,1.56.59,2.4,2.4,0,0,0,1.09-.12A2,2,0,0,0,160.27,417.26Z" transform="translate(-151.01 -360.98)"/><path class="cls-1" d="M161.61,411.77l-2.44,1c0,.38.09.73.12,1s.07.41.07.41a2.19,2.19,0,0,0,.93-.35A3.31,3.31,0,0,0,161.61,411.77Z" transform="translate(-151.01 -360.98)"/><path class="cls-1" d="M162.62,427.39l1.61-1.6c-.64.06-1.4.21-2,.32l-1,.23S161.77,426.83,162.62,427.39Z" transform="translate(-151.01 -360.98)"/><path class="cls-1" d="M166.79,417.56s-.37.64-.72,1.44a10.16,10.16,0,0,0-.45,1.23,2.86,2.86,0,0,0-.14,1,5.33,5.33,0,0,0,.32,1.09c.18.42.4.87.6,1.28l1.87-1.86,0-.16a7.5,7.5,0,0,0-.37-1.43,12.74,12.74,0,0,0-.49-1.3c-.17-.37-.3-.71-.42-.93Z" transform="translate(-151.01 -360.98)"/><path class="cls-1" d="M151.52,405.35s0,.19.15.51.27.76.48,1.25a9.87,9.87,0,0,0,.81,1.53,8,8,0,0,0,.51.74,6.09,6.09,0,0,0,.58.65,2.92,2.92,0,0,0,2.49,1,2,2,0,0,0,1-.39l-.27-.41-.61-1-.38-.58c-.12-.19-.24-.39-.36-.57a6.62,6.62,0,0,0-.66-.89,8,8,0,0,0-2.12-1.19l-1.1-.47Z" transform="translate(-151.01 -360.98)"/><path class="cls-1" d="M158,403.59a7.93,7.93,0,0,0-.55,2.25,12.08,12.08,0,0,0-.13,1.61,2.07,2.07,0,0,0,1-.16,3.47,3.47,0,0,0,1.76-1.85,10.83,10.83,0,0,0,.51-1.38c.15-.47.22-.93.32-1.33s.15-.76.19-1,.06-.4.06-.4l-.44.21c-.26.14-.6.33-1,.56A5.59,5.59,0,0,0,158,403.59Z" transform="translate(-151.01 -360.98)"/><path class="cls-1" d="M155.93,404.56l-.18-.46-.21-.49c-.07-.19-.14-.39-.23-.59-.16-.43-.34-.88-.52-1.28a6,6,0,0,0-.47-1,3.84,3.84,0,0,0-.76-.74h-2.27a14.17,14.17,0,0,0,.52,1.7,7.54,7.54,0,0,0,.85,1.62,3.61,3.61,0,0,0,1.21,1.14,2.28,2.28,0,0,0,1.06.31A2,2,0,0,0,155.93,404.56Z" transform="translate(-151.01 -360.98)"/><path class="cls-1" d="M159.28,400h-2.65c-.2.74-.35,1.36-.35,1.36a2.11,2.11,0,0,0,1,0A3.25,3.25,0,0,0,159.28,400Z" transform="translate(-151.01 -360.98)"/><path class="cls-1" d="M154.23,414.83l2.1-.88c-.62-.18-1.38-.33-2-.46l-1-.19.06.12.18.33C153.71,414,153.94,414.4,154.23,414.83Z" transform="translate(-151.01 -360.98)"/><path class="cls-1" d="M161.84,407.35s-.59.45-1.21,1a10,10,0,0,0-.89,1,2.67,2.67,0,0,0-.51.88,4.68,4.68,0,0,0-.13,1.13c0,.46,0,1,.07,1.42l2.44-1,0-.15a8.12,8.12,0,0,0,.2-1.47,10.85,10.85,0,0,0,0-1.37A11.17,11.17,0,0,0,161.84,407.35Z" transform="translate(-151.01 -360.98)"/><path class="cls-1" d="M152.39,390.22s0,.19,0,.53,0,.8,0,1.34a15.62,15.62,0,0,0,.17,1.72,6.57,6.57,0,0,0,.49,1.7,3.56,3.56,0,0,0,.95,1.36,2.51,2.51,0,0,0,1,.52,2.1,2.1,0,0,0,1,0s0-.19-.09-.49-.13-.7-.2-1.14-.17-.92-.25-1.35a5.58,5.58,0,0,0-.26-1.07,8.29,8.29,0,0,0-1.51-1.91l-.84-.85Z" transform="translate(-151.01 -360.98)"/><path class="cls-1" d="M159,391a5.73,5.73,0,0,0-.69.77c-.23.34-.47.73-.69,1.1a11.06,11.06,0,0,0-.52,1l-.21.43a2.12,2.12,0,0,0,1,.25,3.49,3.49,0,0,0,2.33-1,8.48,8.48,0,0,0,1-1.09,10,10,0,0,0,.81-1.11,13,13,0,0,0,.76-1.2,13.38,13.38,0,0,0-1.59.18,9.11,9.11,0,0,0-1.28.28A3,3,0,0,0,159,391Z" transform="translate(-151.01 -360.98)"/><path class="cls-1" d="M156.77,391.17s0-.19,0-.5,0-.71,0-1.17,0-.93,0-1.38a8.12,8.12,0,0,0-.06-1.1,3.85,3.85,0,0,0-.41-1l-2.1-.87a15.51,15.51,0,0,0-.18,1.78,8.84,8.84,0,0,0,.16,1.81,3,3,0,0,0,1.55,2.21A2,2,0,0,0,156.77,391.17Z" transform="translate(-151.01 -360.98)"/><path class="cls-1" d="M161.61,388.24l-2.44-1c-.48.6-.86,1.12-.86,1.12a2.13,2.13,0,0,0,.91.41A3.35,3.35,0,0,0,161.61,388.24Z" transform="translate(-151.01 -360.98)"/><path class="cls-1" d="M151.29,400h2.27c-.5-.41-1.14-.84-1.65-1.18s-.9-.58-.9-.58S151.09,399,151.29,400Z" transform="translate(-151.01 -360.98)"/><path class="cls-1" d="M161.18,396a15.65,15.65,0,0,0-1.52.51,5.22,5.22,0,0,0-2,1.17,8.55,8.55,0,0,0-1,2.33h2.65l.09-.12a7.57,7.57,0,0,0,.76-1.28c.21-.44.41-.88.56-1.27s.28-.71.37-.95S161.18,396,161.18,396Z" transform="translate(-151.01 -360.98)"/><path class="cls-1" d="M159,376.56s-.1.17-.25.48-.34.72-.54,1.21a9.37,9.37,0,0,0-.72,3.41,3.58,3.58,0,0,0,.36,1.63,2.45,2.45,0,0,0,.69.85,2,2,0,0,0,1,.39s0-.18.1-.48.07-.32.11-.52.09-.4.15-.62c.1-.43.19-.91.29-1.34a5.87,5.87,0,0,0,.16-1.08,8.33,8.33,0,0,0-.66-2.35L159.2,377Z" transform="translate(-151.01 -360.98)"/><path class="cls-1" d="M164.81,379.86a5.24,5.24,0,0,0-.93.46c-.35.21-.72.49-1.07.75a10.89,10.89,0,0,0-.86.71c-.23.2-.36.33-.36.33a2,2,0,0,0,.83.6,2.66,2.66,0,0,0,1.06.21,4.29,4.29,0,0,0,1.49-.28,8.54,8.54,0,0,0,1.34-.62c.43-.23.82-.48,1.17-.71s.64-.43.84-.58l.32-.24-.45-.16c-.28-.08-.67-.19-1.08-.29A5.35,5.35,0,0,0,164.81,379.86Z" transform="translate(-151.01 -360.98)"/><path class="cls-1" d="M162.68,379.12l.66-1.53c.18-.42.37-.86.53-1.27a7.51,7.51,0,0,0,.37-1,3.77,3.77,0,0,0,0-1.06l-1.61-1.61a17.58,17.58,0,0,0-.84,1.57,8,8,0,0,0-.54,1.75,3,3,0,0,0,.58,2.63A2.08,2.08,0,0,0,162.68,379.12Z" transform="translate(-151.01 -360.98)"/><path class="cls-1" d="M168.27,378.25l-1.87-1.86c-.67.37-1.21.71-1.21.71a2.05,2.05,0,0,0,.68.73A3.25,3.25,0,0,0,168.27,378.25Z" transform="translate(-151.01 -360.98)"/><path class="cls-1" d="M154.23,385.18l2.1.87c-.33-.58-.73-1.21-1.08-1.73s-.6-.88-.6-.88-.06.18-.14.49A12.36,12.36,0,0,0,154.23,385.18Z" transform="translate(-151.01 -360.98)"/><path class="cls-1" d="M164.9,385.27s-.74-.1-1.6-.12a5.45,5.45,0,0,0-2.29.31,4.16,4.16,0,0,0-.88.72,13.43,13.43,0,0,0-1,1l2.44,1,.13-.08a8.08,8.08,0,0,0,1.19-.9c.35-.32.72-.64,1-.94l.7-.75A3.16,3.16,0,0,0,164.9,385.27Z" transform="translate(-151.01 -360.98)"/><path class="cls-1" d="M170.32,366.48l-.42.33c-.25.22-.59.54-1,.93a10,10,0,0,0-1.11,1.33,8.78,8.78,0,0,0-.48.76,5.13,5.13,0,0,0-.37.79,2.9,2.9,0,0,0,0,2.68,2.11,2.11,0,0,0,.72.73s.43-.63,1-1.36c.12-.18.25-.38.39-.57l.39-.56a7.13,7.13,0,0,0,.56-.94,8,8,0,0,0,.28-2.42c0-.46,0-.88,0-1.2Z" transform="translate(-151.01 -360.98)"/><path class="cls-1" d="M174.42,371.73a8.18,8.18,0,0,0-2.29.36c-.42.12-.81.22-1.08.33l-.46.16a2.08,2.08,0,0,0,.54.88,2.72,2.72,0,0,0,.9.6,3.44,3.44,0,0,0,.66.2,4.07,4.07,0,0,0,.83.11,10.39,10.39,0,0,0,1.47-.06c.49-.05.94-.15,1.35-.21s.76-.16,1-.22l.39-.1a14.89,14.89,0,0,0-1.25-1A5.49,5.49,0,0,0,174.42,371.73Z" transform="translate(-151.01 -360.98)"/><path class="cls-1" d="M172.75,370.24l.35-.35c.11-.1.23-.23.37-.38l.47-.43c.32-.31.66-.67,1-1a5.6,5.6,0,0,0,.74-.82,3.87,3.87,0,0,0,.4-1l-.87-2.1a9.77,9.77,0,0,0-2.55,2.54,3.62,3.62,0,0,0-.59,1.57,2.37,2.37,0,0,0,.12,1.08A2.05,2.05,0,0,0,172.75,370.24Z" transform="translate(-151.01 -360.98)"/><path class="cls-1" d="M178.24,371.58l-1-2.44c-.38,0-.72.1-1,.13l-.4.07a2,2,0,0,0,.34.92A3.33,3.33,0,0,0,178.24,371.58Z" transform="translate(-151.01 -360.98)"/><path class="cls-1" d="M162.62,372.61l1.61,1.61c-.07-.64-.22-1.4-.34-2s-.22-1.05-.22-1.05S163.18,371.76,162.62,372.61Z" transform="translate(-151.01 -360.98)"/><path class="cls-1" d="M172.45,376.77s-.64-.37-1.43-.72a10.81,10.81,0,0,0-1.23-.45,3.12,3.12,0,0,0-1-.13,4.08,4.08,0,0,0-1.09.32c-.42.17-.88.39-1.29.6l1.87,1.86h.16a7.72,7.72,0,0,0,1.43-.38,12.52,12.52,0,0,0,1.29-.49c.38-.17.71-.3.94-.42Z" transform="translate(-151.01 -360.98)"/><path class="cls-1" d="M184.65,361.49l-.51.15c-.32.1-.76.27-1.25.48a11.36,11.36,0,0,0-1.54.8c-.25.17-.5.33-.74.52a7.12,7.12,0,0,0-.64.58,2.93,2.93,0,0,0-1,2.5,2,2,0,0,0,.39,1l.41-.28c.26-.15.6-.37,1-.61l.58-.38.57-.36a6.62,6.62,0,0,0,.89-.66,8,8,0,0,0,1.19-2.13c.18-.41.35-.8.47-1.09Z" transform="translate(-151.01 -360.98)"/><path class="cls-1" d="M186.41,367.92a7.93,7.93,0,0,0-2.25-.55,13.27,13.27,0,0,0-1.61-.14,2.11,2.11,0,0,0,.16,1,3,3,0,0,0,.6.89,4.54,4.54,0,0,0,1.25.86,9.66,9.66,0,0,0,1.39.52c.47.14.92.22,1.33.32s.75.15,1,.18l.4.06-.21-.43c-.14-.26-.33-.61-.56-1A5.48,5.48,0,0,0,186.41,367.92Z" transform="translate(-151.01 -360.98)"/><path class="cls-1" d="M185.44,365.9l.46-.19.49-.2.6-.23c.42-.16.87-.35,1.27-.52a6.77,6.77,0,0,0,1-.48,3.5,3.5,0,0,0,.74-.75v-2.28a17.18,17.18,0,0,0-1.7.53,8,8,0,0,0-1.62.84,3.72,3.72,0,0,0-1.14,1.22,2.28,2.28,0,0,0-.31,1.05A2,2,0,0,0,185.44,365.9Z" transform="translate(-151.01 -360.98)"/><path class="cls-1" d="M190,369.24V366.6c-.74-.21-1.36-.35-1.36-.35a2.11,2.11,0,0,0,0,1A3.21,3.21,0,0,0,190,369.24Z" transform="translate(-151.01 -360.98)"/><path class="cls-1" d="M175.18,364.2l.87,2.1c.18-.62.33-1.37.45-2s.2-1.05.2-1.05l-.12.06-.33.19C176,363.68,175.6,363.92,175.18,364.2Z" transform="translate(-151.01 -360.98)"/><path class="cls-1" d="M182.66,371.8s-.45-.58-1-1.2a10.14,10.14,0,0,0-1-.9,3.07,3.07,0,0,0-.88-.51,5.26,5.26,0,0,0-1.13-.12c-.45,0-1,0-1.42.07l1,2.44.15,0a9.17,9.17,0,0,0,1.46.21,13.2,13.2,0,0,0,1.38,0A12.38,12.38,0,0,0,182.66,371.8Z" transform="translate(-151.01 -360.98)"/><path class="cls-1" d="M199.79,362.36l-.54,0c-.33,0-.8-.05-1.33-.05a10,10,0,0,0-3.43.65,3.57,3.57,0,0,0-1.36,1,2.44,2.44,0,0,0-.52,1,2.1,2.1,0,0,0,0,1l.49-.09c.3-.07.7-.13,1.15-.2s.91-.17,1.34-.25a6.45,6.45,0,0,0,1.07-.26,8.83,8.83,0,0,0,1.92-1.51l.85-.84Z" transform="translate(-151.01 -360.98)"/><path class="cls-1" d="M199,369a5.14,5.14,0,0,0-.77-.68c-.34-.24-.73-.48-1.1-.7s-.73-.39-1-.53l-.43-.2a2.12,2.12,0,0,0-.25,1,3.46,3.46,0,0,0,1.05,2.33,7.78,7.78,0,0,0,1.08,1,13.4,13.4,0,0,0,1.11.81,11.61,11.61,0,0,0,1.2.76s0-.74-.18-1.59a10.21,10.21,0,0,0-.28-1.27A2.82,2.82,0,0,0,199,369Z" transform="translate(-151.01 -360.98)"/><path class="cls-1" d="M198.83,366.74h1.67c.45,0,.94,0,1.38,0a6.76,6.76,0,0,0,1.1-.06,3.23,3.23,0,0,0,1-.41l.88-2.1a15.75,15.75,0,0,0-1.78-.18,9.63,9.63,0,0,0-1.82.16,3,3,0,0,0-2.2,1.55A2,2,0,0,0,198.83,366.74Z" transform="translate(-151.01 -360.98)"/><path class="cls-1" d="M201.76,371.58l1-2.44c-.6-.48-1.12-.85-1.12-.85a2,2,0,0,0-.41.9A3.25,3.25,0,0,0,201.76,371.58Z" transform="translate(-151.01 -360.98)"/><path class="cls-1" d="M190,361.25v2.28c.41-.5.84-1.14,1.18-1.65s.58-.9.58-.9S191,361.05,190,361.25Z" transform="translate(-151.01 -360.98)"/><path class="cls-1" d="M194,371.15a15.3,15.3,0,0,0-.51-1.53,5.3,5.3,0,0,0-1.17-2,8.73,8.73,0,0,0-2.33-1v2.64l.12.1a7.51,7.51,0,0,0,1.28.75c.44.22.88.42,1.26.57l1,.36C193.86,371.11,194,371.15,194,371.15Z" transform="translate(-151.01 -360.98)"/><path class="cls-1" d="M213.44,369a4.29,4.29,0,0,0-.47-.25c-.3-.15-.73-.35-1.22-.55a9.37,9.37,0,0,0-3.41-.72,3.58,3.58,0,0,0-1.63.36,2.45,2.45,0,0,0-.85.69,2,2,0,0,0-.39,1l.48.11.52.1.61.15c.44.11.92.2,1.35.3a5.87,5.87,0,0,0,1.08.16,8.7,8.7,0,0,0,2.35-.65l1.11-.46Z" transform="translate(-151.01 -360.98)"/><path class="cls-1" d="M210.13,374.78a5.78,5.78,0,0,0-.45-.92c-.22-.35-.49-.72-.75-1.06a9.79,9.79,0,0,0-.72-.87l-.32-.36a2,2,0,0,0-.61.83,2.66,2.66,0,0,0-.21,1.06,4.33,4.33,0,0,0,.28,1.49,8.54,8.54,0,0,0,.62,1.34,12.47,12.47,0,0,0,.71,1.17c.22.35.43.64.58.84l.24.32s.07-.18.15-.45.2-.67.3-1.08A5.39,5.39,0,0,0,210.13,374.78Z" transform="translate(-151.01 -360.98)"/><path class="cls-1" d="M210.87,372.67l1.54.65c.41.19.85.38,1.27.54a6.69,6.69,0,0,0,1,.37,3.7,3.7,0,0,0,1.05,0l1.61-1.61a17.58,17.58,0,0,0-1.57-.84,7.91,7.91,0,0,0-1.74-.54,3,3,0,0,0-2.63.57A2,2,0,0,0,210.87,372.67Z" transform="translate(-151.01 -360.98)"/><path class="cls-1" d="M211.73,378.25l1.87-1.86c-.37-.67-.71-1.21-.71-1.21a2.18,2.18,0,0,0-.73.67A3.32,3.32,0,0,0,211.73,378.25Z" transform="translate(-151.01 -360.98)"/><path class="cls-1" d="M204.83,364.2l-.88,2.1c.58-.32,1.22-.72,1.73-1.07l.88-.6-.49-.14C205.76,364.41,205.33,364.29,204.83,364.2Z" transform="translate(-151.01 -360.98)"/><path class="cls-1" d="M204.72,374.87a15.89,15.89,0,0,0,.12-1.6,5.27,5.27,0,0,0-.31-2.28,4.09,4.09,0,0,0-.71-.89,13.43,13.43,0,0,0-1-1l-1,2.44.08.13a8,8,0,0,0,.89,1.19c.33.36.64.72.94,1l.75.71Z" transform="translate(-151.01 -360.98)"/><path class="cls-1" d="M223.51,380.32l-.34-.42c-.22-.25-.54-.59-.92-1a10.14,10.14,0,0,0-1.34-1.11c-.24-.17-.49-.34-.75-.49s-.53-.26-.79-.37a2.93,2.93,0,0,0-2.68,0,2,2,0,0,0-.73.73l.4.27c.26.17.58.42.95.68l.57.39.56.39a5.47,5.47,0,0,0,.95.56,7.86,7.86,0,0,0,2.42.29h1.7Z" transform="translate(-151.01 -360.98)"/><path class="cls-1" d="M218.24,384.42a7.83,7.83,0,0,0-.35-2.3,10.32,10.32,0,0,0-.33-1.08l-.16-.45a2.12,2.12,0,0,0-.88.53,2.88,2.88,0,0,0-.6.9,3.67,3.67,0,0,0-.2.66,5,5,0,0,0-.12.83,10.34,10.34,0,0,0,.07,1.47c0,.49.15.94.21,1.35a9.43,9.43,0,0,0,.22,1c.06.25.09.39.09.39a12.89,12.89,0,0,0,1-1.24A5.51,5.51,0,0,0,218.24,384.42Z" transform="translate(-151.01 -360.98)"/><path class="cls-1" d="M219.74,382.75l.34.35.38.37.44.46c.31.33.67.67,1,1a5.53,5.53,0,0,0,.83.74,3.78,3.78,0,0,0,1,.4l2.1-.87a9.58,9.58,0,0,0-2.53-2.55,3.63,3.63,0,0,0-1.56-.59,2.48,2.48,0,0,0-1.1.12A2,2,0,0,0,219.74,382.75Z" transform="translate(-151.01 -360.98)"/><path class="cls-1" d="M218.39,388.24l2.44-1c0-.39-.09-.72-.12-1s-.07-.41-.07-.41a2,2,0,0,0-.93.35A3.3,3.3,0,0,0,218.39,388.24Z" transform="translate(-151.01 -360.98)"/><path class="cls-1" d="M217.38,372.61l-1.61,1.61c.64-.07,1.4-.21,2-.33l1-.23S218.23,373.17,217.38,372.61Z" transform="translate(-151.01 -360.98)"/><path class="cls-1" d="M213.21,382.44s.37-.64.72-1.44a9.58,9.58,0,0,0,.45-1.23,2.83,2.83,0,0,0,.14-1,5.22,5.22,0,0,0-.32-1.1c-.18-.41-.39-.87-.6-1.28l-1.87,1.86,0,.16a7.5,7.5,0,0,0,.37,1.43,11.9,11.9,0,0,0,.49,1.3c.17.38.3.71.42.94S213.21,382.44,213.21,382.44Z" transform="translate(-151.01 -360.98)"/><path class="cls-1" d="M228.48,394.66s0-.2-.15-.52-.27-.75-.48-1.24a10,10,0,0,0-.81-1.54c-.16-.26-.33-.51-.5-.74A7.33,7.33,0,0,0,226,390a2.91,2.91,0,0,0-2.49-1,2,2,0,0,0-1,.39l.27.41.61,1,.38.58q.18.3.36.57a6.62,6.62,0,0,0,.66.89,8,8,0,0,0,2.13,1.19l1.09.47Z" transform="translate(-151.01 -360.98)"/><path class="cls-1" d="M222,396.41a7.57,7.57,0,0,0,.56-2.25,12.08,12.08,0,0,0,.13-1.61,2.07,2.07,0,0,0-1,.16,3.46,3.46,0,0,0-1.76,1.86,10.3,10.3,0,0,0-.51,1.38c-.15.47-.22.92-.32,1.33s-.15.75-.19,1-.06.4-.06.4l.44-.21c.26-.14.6-.33,1-.56A5.3,5.3,0,0,0,222,396.41Z" transform="translate(-151.01 -360.98)"/><path class="cls-1" d="M224.07,395.44l.18.46.21.49c.07.19.14.39.23.6.16.42.34.87.52,1.28a6.21,6.21,0,0,0,.47,1,3.84,3.84,0,0,0,.76.74h2.27a14.75,14.75,0,0,0-.52-1.7,7.78,7.78,0,0,0-.85-1.62,3.72,3.72,0,0,0-1.21-1.14,2.41,2.41,0,0,0-1-.31A2,2,0,0,0,224.07,395.44Z" transform="translate(-151.01 -360.98)"/><path class="cls-1" d="M220.72,400h2.65c.21-.74.35-1.36.35-1.36a2.11,2.11,0,0,0-1,0A3.25,3.25,0,0,0,220.72,400Z" transform="translate(-151.01 -360.98)"/><path class="cls-1" d="M225.77,385.18l-2.1.87c.62.18,1.38.34,2,.46l1,.19-.06-.12-.18-.32C226.29,386,226.06,385.6,225.77,385.18Z" transform="translate(-151.01 -360.98)"/><path class="cls-1" d="M218.16,392.66a15.31,15.31,0,0,0,1.21-1.05,10,10,0,0,0,.89-1,2.49,2.49,0,0,0,.51-.88,4.61,4.61,0,0,0,.13-1.13c0-.45,0-1-.07-1.42l-2.44,1,0,.14a8.12,8.12,0,0,0-.2,1.47,10.85,10.85,0,0,0,0,1.37A11.41,11.41,0,0,0,218.16,392.66Z" transform="translate(-151.01 -360.98)"/></svg>