<svg id="Layer_1" data-name="Layer 1" xmlns="http://www.w3.org/2000/svg" viewBox="0 0 49.16 49.21"><defs><style>.cls-1{fill:#010101;}</style></defs><path class="cls-1" d="M241,529.47a2.78,2.78,0,0,1,.1,1.08,4.21,4.21,0,0,1-.2.8c-.06.16-.14.33-.23.52a5.39,5.39,0,0,1-.33.61l.73.61a3.77,3.77,0,0,0,.45-1,1.57,1.57,0,0,0,.08-.29,2.7,2.7,0,0,0,0-.28,3.06,3.06,0,0,0,0-.52,2.83,2.83,0,0,0-.65-1.56Z" transform="translate(-198.42 -493.4)"/><path class="cls-1" d="M241,529.46a3.17,3.17,0,0,0-.83-.12,3.41,3.41,0,0,0-.82.06,2.6,2.6,0,0,0-.46.12l-.23.1-.24.11a2.92,2.92,0,0,0-.37.24l-.36.27.73.61c.18-.14.33-.28.49-.39a4.92,4.92,0,0,1,.41-.31,4.3,4.3,0,0,1,.66-.4A3.89,3.89,0,0,1,241,529.46Z" transform="translate(-198.42 -493.4)"/><path class="cls-1" d="M244.29,527.49a2.61,2.61,0,0,0-.13-1.1,2.84,2.84,0,0,0-.39-.76,2.73,2.73,0,0,0-.41-.45l-.19-.15a2.65,2.65,0,0,1,.35,1.05,3.37,3.37,0,0,1,0,.88,6.91,6.91,0,0,1-.32,1.3,4.32,4.32,0,0,0-.17,2.65,2.32,2.32,0,0,0,.31.65,1.47,1.47,0,0,0,.19.22,3.58,3.58,0,0,1,0-1.22,5.14,5.14,0,0,1,.26-1.06l.09-.26c0-.08,0-.16.08-.25s.11-.33.16-.5A4.24,4.24,0,0,0,244.29,527.49Z" transform="translate(-198.42 -493.4)"/><path class="cls-1" d="M240.87,527.08c.3-.38.53-.7.75-.94a5.24,5.24,0,0,1,.58-.58,3.9,3.9,0,0,1,1-.54h-.24a4.55,4.55,0,0,0-.6.08,3.57,3.57,0,0,0-.79.25,3.46,3.46,0,0,0-.41.23,2.94,2.94,0,0,0-.41.31,4.84,4.84,0,0,0-.57.63l-.26.34-.13.17-.15.15a2.73,2.73,0,0,1-.69.56,2.51,2.51,0,0,1-1,.28,1.46,1.46,0,0,0,.25.1,1.94,1.94,0,0,0,.67.11,2.34,2.34,0,0,0,1-.23A3,3,0,0,0,240.87,527.08Z" transform="translate(-198.42 -493.4)"/><path class="cls-1" d="M245,523.35c0,.32,0,.6,0,.87a5.05,5.05,0,0,0,.09.72,3,3,0,0,0,.38,1,2.58,2.58,0,0,0,.45.55,1.12,1.12,0,0,0,.23.17c0-.1-.08-.21-.11-.31l-.09-.3a4.19,4.19,0,0,1-.09-.57,6.71,6.71,0,0,1,0-1.1c0-.18,0-.35.05-.52s0-.36,0-.53a4.42,4.42,0,0,0,0-1,2.73,2.73,0,0,0-.38-1,3.17,3.17,0,0,0-.56-.66,2.59,2.59,0,0,0-.72-.44,2.76,2.76,0,0,1,.58.95,3.21,3.21,0,0,1,.18.85c0,.18,0,.38,0,.6S245,523.07,245,523.35Z" transform="translate(-198.42 -493.4)"/><path class="cls-1" d="M242.49,522.73c.09-.22.19-.42.28-.6s.15-.35.23-.49a5.31,5.31,0,0,1,.43-.69,3.67,3.67,0,0,1,.8-.75,3,3,0,0,0-.8.26,3.2,3.2,0,0,0-.71.43,3.05,3.05,0,0,0-.67.71,4.56,4.56,0,0,0-.41.75l-.18.39c-.06.13-.13.25-.2.38a2.7,2.7,0,0,1-.53.7,2.76,2.76,0,0,1-.39.28l-.23.12-.27.1a1.3,1.3,0,0,0,.27,0,2.17,2.17,0,0,0,.68-.06,2.13,2.13,0,0,0,.88-.44,2.4,2.4,0,0,0,.43-.46A3.28,3.28,0,0,0,242.49,522.73Z" transform="translate(-198.42 -493.4)"/><path class="cls-1" d="M247.51,521.13a4.34,4.34,0,0,1-.45-.8,4.91,4.91,0,0,1-.25-.8c0-.13-.05-.26-.07-.39s-.05-.26-.06-.39-.07-.51-.11-.77h-.95l0,.16a5,5,0,0,0,.18.86,6.64,6.64,0,0,0,.24.68,3.35,3.35,0,0,0,.62.91,2.26,2.26,0,0,0,.56.43A1.82,1.82,0,0,0,247.51,521.13Z" transform="translate(-198.42 -493.4)"/><path class="cls-1" d="M240.84,520.28l.28,0a2.79,2.79,0,0,0,.65-.21,2.21,2.21,0,0,0,.74-.63,2.51,2.51,0,0,0,.33-.56,4.08,4.08,0,0,0,.22-.74l0-.14h-1c0,.21-.09.41-.14.62s-.05.21-.08.31-.08.2-.12.3a2.48,2.48,0,0,1-.36.57A2.34,2.34,0,0,1,240.84,520.28Z" transform="translate(-198.42 -493.4)"/><path class="cls-1" d="M244.14,518h.43s0,.23,0,.65-.05,1-.11,1.69c0,.18,0,.36-.07.55s0,.38-.09.58c-.07.39-.13.82-.24,1.24l-.15.66c-.06.21-.12.43-.19.66l-.09.33c0,.11-.08.22-.11.33s-.15.45-.23.67a21.52,21.52,0,0,1-2.33,4.59c-.2.29-.39.55-.55.79s-.33.42-.46.58l-.29.38-.11.13-.34-.28.11-.13.29-.37c.12-.16.28-.34.45-.57l.54-.77a21.64,21.64,0,0,0,2.28-4.5c.07-.22.15-.44.22-.65s.08-.22.11-.33l.09-.32c.06-.22.13-.44.19-.65s.09-.43.14-.64c.11-.42.17-.83.24-1.22,0-.19.06-.39.08-.57s.05-.36.07-.54c.06-.68.11-1.25.11-1.66S244.14,518,244.14,518Z" transform="translate(-198.42 -493.4)"/><path class="cls-1" d="M229.42,538.32a2.85,2.85,0,0,1-.62.88,3,3,0,0,1-.67.49l-.5.25c-.19.09-.41.17-.65.26l.16.93a4.09,4.09,0,0,0,1-.45,2.71,2.71,0,0,0,1.18-1.53,2.36,2.36,0,0,0,.12-.59C229.42,538.41,229.42,538.32,229.42,538.32Z" transform="translate(-198.42 -493.4)"/><path class="cls-1" d="M229.41,538.3a1.17,1.17,0,0,0-.14-.2,4.76,4.76,0,0,0-.41-.44,4.25,4.25,0,0,0-.68-.48,3.67,3.67,0,0,0-.92-.34,6.54,6.54,0,0,0-.88-.08l.16.94.63,0,.51,0a5.13,5.13,0,0,1,.76.13A3.49,3.49,0,0,1,229.41,538.3Z" transform="translate(-198.42 -493.4)"/><path class="cls-1" d="M233.22,538.91a3.14,3.14,0,0,0,.6-.92,3,3,0,0,0,.19-.85,2.69,2.69,0,0,0-.07-.84c-.18.65-.23,1.3-2.07,2.49a5.49,5.49,0,0,0-1.25,1,3.36,3.36,0,0,0-.59.93,2.13,2.13,0,0,0-.18.69,1,1,0,0,0,0,.28,4.57,4.57,0,0,1,.78-.94,7.57,7.57,0,0,1,.88-.64l.46-.28a4.08,4.08,0,0,0,.44-.28A5,5,0,0,0,233.22,538.91Z" transform="translate(-198.42 -493.4)"/><path class="cls-1" d="M230.86,536.41a6.43,6.43,0,0,1,.64-.15l.54-.1a4.21,4.21,0,0,1,.81-.07,3.59,3.59,0,0,1,1.07.19,3.36,3.36,0,0,0-.68-.49,4,4,0,0,0-.77-.3,2.75,2.75,0,0,0-1-.12,4.83,4.83,0,0,0-.85.12l-.42.09-.42.07a2.61,2.61,0,0,1-.88,0,2.18,2.18,0,0,1-.46-.14,3.3,3.3,0,0,1-.47-.27,1.58,1.58,0,0,0,.13.24,2.16,2.16,0,0,0,.45.52,2,2,0,0,0,.87.43A3,3,0,0,0,230.86,536.41Z" transform="translate(-198.42 -493.4)"/><path class="cls-1" d="M236.42,536.19a6.52,6.52,0,0,0-.58.66,4.33,4.33,0,0,0-.39.6,3.27,3.27,0,0,0-.25.55,2.79,2.79,0,0,0-.12.48,2.18,2.18,0,0,0,0,.72,1,1,0,0,0,.06.27,4.43,4.43,0,0,1,.54-1.09,7.2,7.2,0,0,1,.71-.83c.25-.26.51-.5.75-.74a5.42,5.42,0,0,0,.64-.81,2.77,2.77,0,0,0,.36-1.9,2.57,2.57,0,0,0-.27-.8c0,.17,0,.33,0,.51a2,2,0,0,1-.15.59,3.68,3.68,0,0,1-.41.77c-.1.15-.23.3-.37.47A5.94,5.94,0,0,1,236.42,536.19Z" transform="translate(-198.42 -493.4)"/><path class="cls-1" d="M234.89,534.1c.22-.09.41-.21.6-.29l.5-.21a4.36,4.36,0,0,1,.77-.26,3.25,3.25,0,0,1,.58-.07,4.34,4.34,0,0,1,.51,0,3.1,3.1,0,0,0-.78-.31,3.45,3.45,0,0,0-1.79,0,4.61,4.61,0,0,0-.8.32c-.26.12-.51.24-.78.35a2.75,2.75,0,0,1-.86.18,2.34,2.34,0,0,1-1-.18,2.1,2.1,0,0,0,.18.2,2.23,2.23,0,0,0,.55.4,2.41,2.41,0,0,0,.43.16,2.15,2.15,0,0,0,.53.06,2.89,2.89,0,0,0,.63-.07A3.13,3.13,0,0,0,234.89,534.1Z" transform="translate(-198.42 -493.4)"/><path class="cls-1" d="M239.76,536.11a4.31,4.31,0,0,1,.49-1.67c.13-.24.27-.46.41-.69l.41-.66-.73-.61-.08.14a6.52,6.52,0,0,0-.41.77,4.78,4.78,0,0,0-.25.68,3.45,3.45,0,0,0-.12,1.09,2.13,2.13,0,0,0,.16.7A1.34,1.34,0,0,0,239.76,536.11Z" transform="translate(-198.42 -493.4)"/><path class="cls-1" d="M235.21,531.17a2,2,0,0,0,.22.16,2.42,2.42,0,0,0,.63.25,2.15,2.15,0,0,0,1,0,2.7,2.7,0,0,0,.6-.21,3,3,0,0,0,.65-.43l.11-.09-.73-.61-.49.39a2.84,2.84,0,0,1-.56.33A2.28,2.28,0,0,1,235.21,531.17Z" transform="translate(-198.42 -493.4)"/><path class="cls-1" d="M239.2,531.53l.34.28-.42.48c-.13.16-.31.34-.51.55l-.31.32-.37.35a21.36,21.36,0,0,1-4.11,3.1,23.64,23.64,0,0,1-2.47,1.23,21.47,21.47,0,0,1-2.27.79c-.67.21-1.25.32-1.65.42l-.63.11-.08-.43.63-.11c.39-.1,1-.21,1.61-.41a18.71,18.71,0,0,0,2.22-.78,21,21,0,0,0,6.45-4.23l.36-.34.31-.33c.19-.2.36-.37.49-.53Z" transform="translate(-198.42 -493.4)"/><path class="cls-1" d="M214.86,537.65a2.92,2.92,0,0,1-1,.28,2.4,2.4,0,0,1-.38,0c-.13,0-.28,0-.45-.07l-.55-.12-.66-.22-.47.82.51.17a4.36,4.36,0,0,0,.52.11,2.76,2.76,0,0,0,1.89-.42A2.37,2.37,0,0,0,214.86,537.65Z" transform="translate(-198.42 -493.4)"/><path class="cls-1" d="M214.87,537.62a3.26,3.26,0,0,0,0-.84,3.43,3.43,0,0,0-.69-1.65c-.1-.12-.21-.22-.31-.33l-.32-.3-.48.82c.18.15.33.29.47.42l.38.34.28.32a1.74,1.74,0,0,1,.22.27A4,4,0,0,1,214.87,537.62Z" transform="translate(-198.42 -493.4)"/><path class="cls-1" d="M217.39,540.54a3,3,0,0,0,1.05-.32,2.84,2.84,0,0,0,.69-.53,2.52,2.52,0,0,0,.49-.69c-.55.38-1,.85-3.19.57a4.17,4.17,0,0,0-2.64.3,2.68,2.68,0,0,0-.59.41,1.29,1.29,0,0,0-.17.22,5.54,5.54,0,0,1,.61-.16,4.22,4.22,0,0,1,.59-.06,5,5,0,0,1,.55,0l.54.06A8.63,8.63,0,0,0,217.39,540.54Z" transform="translate(-198.42 -493.4)"/><path class="cls-1" d="M217.19,537.1a8.05,8.05,0,0,1,1.73,1,3.68,3.68,0,0,1,.7.83,3.12,3.12,0,0,0-.21-.81,3.74,3.74,0,0,0-.39-.73,3.21,3.21,0,0,0-.67-.72c-.46-.36-1-.55-1.48-.87a2.8,2.8,0,0,1-.35-.25,3.26,3.26,0,0,1-.31-.33,3.77,3.77,0,0,1-.26-.39,3.52,3.52,0,0,1-.19-.52,1.75,1.75,0,0,0,0,.27,2,2,0,0,0,0,.68A2.55,2.55,0,0,0,217.19,537.1Z" transform="translate(-198.42 -493.4)"/><path class="cls-1" d="M221.59,540.51a6.18,6.18,0,0,0-.86.14,4.15,4.15,0,0,0-.7.2,4.53,4.53,0,0,0-.54.27,2.58,2.58,0,0,0-.4.29,2.32,2.32,0,0,0-.47.54,2,2,0,0,0-.13.25,3.41,3.41,0,0,1,.57-.29,4.5,4.5,0,0,1,.55-.19,5.18,5.18,0,0,1,1.08-.18c.35,0,.7-.06,1.05-.1a4.24,4.24,0,0,0,1-.21,2.7,2.7,0,0,0,.95-.55,2.63,2.63,0,0,0,.55-.66,2.58,2.58,0,0,0,.32-.79,4.14,4.14,0,0,1-.35.38,2.22,2.22,0,0,1-.49.36,3.4,3.4,0,0,1-.81.32,5.68,5.68,0,0,1-.58.13A5.17,5.17,0,0,1,221.59,540.51Z" transform="translate(-198.42 -493.4)"/><path class="cls-1" d="M221.76,537.93l.64.17.53.15a4.31,4.31,0,0,1,.75.3,2.44,2.44,0,0,1,.49.32c.14.11.26.22.38.33a3.17,3.17,0,0,0-.39-.73,3.78,3.78,0,0,0-.54-.63,3.53,3.53,0,0,0-.82-.54A4.28,4.28,0,0,0,222,537c-.28-.08-.56-.14-.83-.23a3.24,3.24,0,0,1-.78-.41,2.23,2.23,0,0,1-.35-.34,3.2,3.2,0,0,1-.3-.45,1.39,1.39,0,0,0,0,.27,2.37,2.37,0,0,0,.17.66,3.24,3.24,0,0,0,.22.4,2.2,2.2,0,0,0,.37.38,2.73,2.73,0,0,0,.53.36A3.87,3.87,0,0,0,221.76,537.93Z" transform="translate(-198.42 -493.4)"/><path class="cls-1" d="M224.2,542.6a3.82,3.82,0,0,1,.72-.58,4.62,4.62,0,0,1,.73-.38c.5-.21,1-.33,1.49-.51l-.16-.93-.15,0c-.31.11-.58.21-.82.32a4.41,4.41,0,0,0-.62.37,2.94,2.94,0,0,0-.8.76,2.76,2.76,0,0,0-.33.63A1.65,1.65,0,0,0,224.2,542.6Z" transform="translate(-198.42 -493.4)"/><path class="cls-1" d="M223.89,535.89a2.51,2.51,0,0,0,.07.27,2.27,2.27,0,0,0,1.07,1.23,2.79,2.79,0,0,0,.6.22,3,3,0,0,0,.77.09h.14l-.16-.94a6.06,6.06,0,0,1-1.27-.11,2.21,2.21,0,0,1-.62-.26A2.1,2.1,0,0,1,223.89,535.89Z" transform="translate(-198.42 -493.4)"/><path class="cls-1" d="M226.72,538.73l.08.43-.17,0-.47.08-.73.09c-.29,0-.61,0-1,.08a23.29,23.29,0,0,1-2.4,0l-.67-.05c-.23,0-.46,0-.69-.06-.45-.06-.92-.1-1.38-.2a21.43,21.43,0,0,1-2.68-.64l-.61-.21c-.21-.07-.4-.13-.59-.21-.37-.15-.73-.28-1-.43-.65-.28-1.16-.56-1.53-.74l-.42-.24-.14-.08.22-.38.14.08c.1.05.23.14.41.23.36.18.86.46,1.5.73.31.15.66.28,1,.42.18.08.37.14.57.21l.6.2a20.48,20.48,0,0,0,2.62.63c.46.09.91.14,1.36.2l.67.06.66,0a22.36,22.36,0,0,0,2.35,0l.94-.07.72-.1c.2,0,.35-.05.46-.07Z" transform="translate(-198.42 -493.4)"/><path class="cls-1" d="M204.14,527.77l-.47-.16a2.06,2.06,0,0,1-.51-.29,3.94,3.94,0,0,1-.6-.58,8.79,8.79,0,0,1-.7-1L201,526a5.09,5.09,0,0,0,.61.88,2.84,2.84,0,0,0,.89.65,1.88,1.88,0,0,0,.43.16,2,2,0,0,0,.4.08A2.65,2.65,0,0,0,204.14,527.77Z" transform="translate(-198.42 -493.4)"/><path class="cls-1" d="M204.16,527.76a3,3,0,0,0,.52-.66,2.74,2.74,0,0,0,.19-.34,3.7,3.7,0,0,0,.17-.4,3.22,3.22,0,0,0,.17-1,4.3,4.3,0,0,0-.08-.88l-.89.32a10.82,10.82,0,0,1,.16,1.13,4,4,0,0,1,0,.77,2.81,2.81,0,0,1-.1.56A4.26,4.26,0,0,1,204.16,527.76Z" transform="translate(-198.42 -493.4)"/><path class="cls-1" d="M204.22,531.61a2.79,2.79,0,0,0,1,.43,2.6,2.6,0,0,0,.86.05,2.72,2.72,0,0,0,.82-.22,2.81,2.81,0,0,1-1.09-.23,5.29,5.29,0,0,1-1.71-1.38,6.07,6.07,0,0,0-.63-.62,5,5,0,0,0-.57-.43l-.28-.15-.26-.12a3.85,3.85,0,0,0-.48-.16,2.71,2.71,0,0,0-.71,0,1.75,1.75,0,0,0-.28,0,3.6,3.6,0,0,1,1.06.61,5.14,5.14,0,0,1,.79.75l.7.79.37.37A3.9,3.9,0,0,0,204.22,531.61Z" transform="translate(-198.42 -493.4)"/><path class="cls-1" d="M206.28,528.85a8.82,8.82,0,0,1,.65,1.91,4,4,0,0,1,0,1.09,3.17,3.17,0,0,0,.35-.75,3.56,3.56,0,0,0,.18-.82,3.35,3.35,0,0,0-.06-1,1.91,1.91,0,0,0-.11-.41l-.15-.4c-.1-.27-.22-.52-.31-.8a2.78,2.78,0,0,1-.13-.87,2.39,2.39,0,0,1,.24-1l-.22.17a2.57,2.57,0,0,0-.42.53,2,2,0,0,0-.18.42,1.82,1.82,0,0,0-.07.25c0,.08,0,.18,0,.27a3.59,3.59,0,0,0,0,.64A3.64,3.64,0,0,0,206.28,528.85Z" transform="translate(-198.42 -493.4)"/><path class="cls-1" d="M207.45,534.29l-.39-.24-.36-.21a3.61,3.61,0,0,0-.66-.28,3.15,3.15,0,0,0-1.08-.19,2.43,2.43,0,0,0-.72.12,1.06,1.06,0,0,0-.25.11,3.92,3.92,0,0,1,1.17.34c.17.08.33.17.49.26a5,5,0,0,1,.45.29l.87.61a3.93,3.93,0,0,0,.9.49,3.62,3.62,0,0,0,.56.15,2.43,2.43,0,0,0,.53,0,2.77,2.77,0,0,0,1.39-.41,1.72,1.72,0,0,0,.2-.14,2.7,2.7,0,0,1-1.11,0,3.24,3.24,0,0,1-.83-.28l-.54-.27C207.88,534.59,207.68,534.45,207.45,534.29Z" transform="translate(-198.42 -493.4)"/><path class="cls-1" d="M209.24,532.43c.15.19.27.38.39.54l.3.45a6,6,0,0,1,.39.72,4,4,0,0,1,.24,1.06,1,1,0,0,0,.07-.23,3.09,3.09,0,0,0,.1-.59,3.32,3.32,0,0,0,0-.83,2.72,2.72,0,0,0-.1-.46,2.34,2.34,0,0,0-.18-.48,5.44,5.44,0,0,0-.44-.73c-.16-.24-.34-.45-.48-.71a2.87,2.87,0,0,1-.2-.39,1.88,1.88,0,0,1-.14-.42,2.51,2.51,0,0,1,0-1,1.06,1.06,0,0,0-.17.21,2.12,2.12,0,0,0-.29.62,2.19,2.19,0,0,0-.06,1,2.75,2.75,0,0,0,.18.61c.05.1.1.22.16.33Z" transform="translate(-198.42 -493.4)"/><path class="cls-1" d="M208.11,537.57a4.66,4.66,0,0,1,.92,0,4.16,4.16,0,0,1,.81.18c.52.15,1,.4,1.47.57l.47-.82-.15-.06c-.3-.11-.57-.21-.83-.28a5.54,5.54,0,0,0-.71-.12,3.41,3.41,0,0,0-1.1.07,2.32,2.32,0,0,0-.66.28A1.23,1.23,0,0,0,208.11,537.57Z" transform="translate(-198.42 -493.4)"/><path class="cls-1" d="M212.19,532.23a1.92,1.92,0,0,0-.12.25,2.39,2.39,0,0,0-.15.67,2.48,2.48,0,0,0,.17,1,3.47,3.47,0,0,0,.32.54,3.09,3.09,0,0,0,.53.57l.11.09.48-.82a5.89,5.89,0,0,1-.9-.9,2.43,2.43,0,0,1-.31-.6A2.26,2.26,0,0,1,212.19,532.23Z" transform="translate(-198.42 -493.4)"/><path class="cls-1" d="M212.53,536.23l-.22.38-.15-.09c-.09,0-.24-.13-.41-.24l-.62-.4-.79-.55c-.14-.1-.28-.22-.43-.34s-.31-.23-.46-.36-.32-.26-.48-.4l-.48-.43c-.32-.31-.66-.61-1-.95-.15-.17-.32-.33-.47-.51l-.46-.53a21.88,21.88,0,0,1-2.82-4.31l-.22-.46c-.06-.15-.13-.29-.19-.42s-.21-.49-.28-.68-.14-.34-.17-.44a.86.86,0,0,1-.06-.16l.41-.15a1.27,1.27,0,0,0,.05.16c0,.1.1.24.17.43s.16.42.28.67l.19.4a4.54,4.54,0,0,0,.21.45,21.62,21.62,0,0,0,2.76,4.23l.45.52c.15.17.31.33.47.49.31.34.64.64.95.94.15.15.32.28.47.42l.46.39.46.36.42.33c.29.19.54.38.77.54l.61.39c.17.11.31.18.41.24Z" transform="translate(-198.42 -493.4)"/><path class="cls-1" d="M202.28,513.32a2.8,2.8,0,0,1-.47-1,3.72,3.72,0,0,1-.08-.82,7.35,7.35,0,0,1,.13-1.26l-.89-.32a5.51,5.51,0,0,0-.1,1.06,2.84,2.84,0,0,0,.74,1.79A2.7,2.7,0,0,0,202.28,513.32Z" transform="translate(-198.42 -493.4)"/><path class="cls-1" d="M202.3,513.32a3,3,0,0,0,.82-.17,3.23,3.23,0,0,0,1.5-1,3.31,3.31,0,0,0,.51-.73l-.89-.32c-.22.4-.43.71-.6,1a3.22,3.22,0,0,1-.49.6A3.51,3.51,0,0,1,202.3,513.32Z" transform="translate(-198.42 -493.4)"/><path class="cls-1" d="M199.87,516.31a3,3,0,0,0,.21.55,3.58,3.58,0,0,0,.29.43,2.64,2.64,0,0,0,.63.59,2.81,2.81,0,0,0,.54.28l.22.08a2.66,2.66,0,0,1-.68-.88,3.47,3.47,0,0,1-.28-.83,8.2,8.2,0,0,1-.15-1.33,7.18,7.18,0,0,0-.08-.87,4.22,4.22,0,0,0-.17-.7,3.43,3.43,0,0,0-.5-1,2.33,2.33,0,0,0-.51-.5,1.53,1.53,0,0,0-.25-.14,3.79,3.79,0,0,1,.42,1.14,5.15,5.15,0,0,1,.13,1.09A8.32,8.32,0,0,0,199.87,516.31Z" transform="translate(-198.42 -493.4)"/><path class="cls-1" d="M203.22,515.52c-.15.46-.26.84-.38,1.15a5.62,5.62,0,0,1-.35.73,3.84,3.84,0,0,1-.7.84l.22-.08a4.8,4.8,0,0,0,.54-.28,3.48,3.48,0,0,0,.66-.5,3.58,3.58,0,0,0,.3-.36,2.65,2.65,0,0,0,.28-.43c.27-.52.38-1.07.6-1.6a3.46,3.46,0,0,1,.45-.76,2.49,2.49,0,0,1,.82-.6h-.27a2.45,2.45,0,0,0-.66.13,2,2,0,0,0-.82.55,2.36,2.36,0,0,0-.39.51A3.37,3.37,0,0,0,203.22,515.52Z" transform="translate(-198.42 -493.4)"/><path class="cls-1" d="M200.61,520.44c-.09-.31-.17-.58-.27-.83A5.43,5.43,0,0,0,200,519a3.07,3.07,0,0,0-.71-.84,2.56,2.56,0,0,0-.62-.37,1.15,1.15,0,0,0-.26-.07,4.37,4.37,0,0,1,.68,1,5.38,5.38,0,0,1,.2.51c.06.17.11.35.16.52.09.34.16.68.27,1a4.57,4.57,0,0,0,.37,1,3.08,3.08,0,0,0,.71.85,2.91,2.91,0,0,0,.76.42,2.66,2.66,0,0,0,.82.17C201.83,522.79,201.22,522.55,200.61,520.44Z" transform="translate(-198.42 -493.4)"/><path class="cls-1" d="M203.18,520.16a8.56,8.56,0,0,1-.27,2,3.73,3.73,0,0,1-.49,1,3.27,3.27,0,0,0,.66-.52,3.41,3.41,0,0,0,.51-.64,3.08,3.08,0,0,0,.4-.9,6.24,6.24,0,0,0,.13-.85,6.13,6.13,0,0,1,.09-.85,2.29,2.29,0,0,1,.27-.84,2.35,2.35,0,0,1,.66-.78,1.44,1.44,0,0,0-.27.06,2.14,2.14,0,0,0-.62.28,2.24,2.24,0,0,0-.67.72,2.21,2.21,0,0,0-.26.58A4,4,0,0,0,203.18,520.16Z" transform="translate(-198.42 -493.4)"/><path class="cls-1" d="M199,523.37a4.22,4.22,0,0,1,.69.61,3.89,3.89,0,0,1,.51.66c.07.12.14.23.2.35l.19.34.37.69.89-.32c0-.05-.05-.1-.08-.14a5.12,5.12,0,0,0-.46-.75,5.55,5.55,0,0,0-.46-.55,3.08,3.08,0,0,0-.46-.39,2.24,2.24,0,0,0-.43-.26,2.28,2.28,0,0,0-.68-.22A1.17,1.17,0,0,0,199,523.37Z" transform="translate(-198.42 -493.4)"/><path class="cls-1" d="M205.57,521.91a1.52,1.52,0,0,0-.25.11,2,2,0,0,0-.54.42,2.82,2.82,0,0,0-.28.36,2.49,2.49,0,0,0-.21.49,2.71,2.71,0,0,0-.12.63,4.31,4.31,0,0,0,.05.77s0,.09,0,.14l.89-.32c0-.21,0-.42-.08-.63s0-.21,0-.32,0-.21,0-.32a2.6,2.6,0,0,1,.14-.66A2.64,2.64,0,0,1,205.57,521.91Z" transform="translate(-198.42 -493.4)"/><path class="cls-1" d="M203.26,525.19l-.41.15s-.08-.22-.21-.61c0-.1-.07-.21-.11-.32s-.07-.25-.11-.39l-.13-.44-.06-.23-.06-.26-.12-.53a5,5,0,0,1-.12-.58c0-.2-.07-.4-.11-.61s-.06-.42-.09-.64a21.1,21.1,0,0,1,0-5.5c0-.22.05-.43.09-.64s.07-.41.11-.61a5.41,5.41,0,0,1,.12-.58l.12-.53.06-.26.06-.23.13-.44c0-.14.07-.27.11-.39s.07-.22.11-.32c.13-.39.21-.61.21-.61l.41.15-.21.6c0,.09-.07.2-.1.31s-.07.25-.11.38l-.12.43a2.17,2.17,0,0,0-.07.24l-.06.24c0,.17-.08.34-.12.53s-.08.37-.11.56-.07.39-.11.6-.05.41-.08.63A23.21,23.21,0,0,0,202,518a23.54,23.54,0,0,0,.18,2.7c0,.21,0,.42.08.62s.07.41.11.6.07.39.11.57l.12.52.06.25a2,2,0,0,0,.07.23l.12.43c0,.13.07.26.11.38s.07.22.1.31Z" transform="translate(-198.42 -493.4)"/><path class="cls-1" d="M210.14,501.05a2.67,2.67,0,0,1,.27-1.05,3.22,3.22,0,0,1,.47-.68,6.32,6.32,0,0,1,.9-.87l-.47-.83c-.14.12-.28.23-.41.36a4.55,4.55,0,0,0-.35.4,3,3,0,0,0-.31.49,3,3,0,0,0-.18.49,3,3,0,0,0-.09.86,2.63,2.63,0,0,0,.09.6A1.93,1.93,0,0,0,210.14,501.05Z" transform="translate(-198.42 -493.4)"/><path class="cls-1" d="M210.15,501.07l.2.13a4.47,4.47,0,0,0,.54.27,4,4,0,0,0,.8.22,3.48,3.48,0,0,0,.47,0,2.25,2.25,0,0,0,.51,0,3,3,0,0,0,.43-.1l.43-.13-.48-.82c-.43.14-.78.27-1.08.35a6.27,6.27,0,0,1-.76.15A4.35,4.35,0,0,1,210.15,501.07Z" transform="translate(-198.42 -493.4)"/><path class="cls-1" d="M206.37,501.79a2.77,2.77,0,0,0-.14,1.93,3,3,0,0,0,.22.56l.13.2a2.83,2.83,0,0,1,0-1.11,3.2,3.2,0,0,1,.32-.81c.09-.15.18-.33.3-.51s.27-.39.44-.6a7.36,7.36,0,0,0,.5-.72,4.31,4.31,0,0,0,.32-.65,3,3,0,0,0,.25-1.07,2.71,2.71,0,0,0-.07-.72,1.46,1.46,0,0,0-.1-.25,4.14,4.14,0,0,1-.41,1.14,5.35,5.35,0,0,1-.29.47,4.91,4.91,0,0,1-.31.44l-.34.41-.32.42A4.19,4.19,0,0,0,206.37,501.79Z" transform="translate(-198.42 -493.4)"/><path class="cls-1" d="M209.45,503.34l-.57.36c-.17.1-.32.2-.46.27a5,5,0,0,1-.74.34,3.52,3.52,0,0,1-1.08.19,1.4,1.4,0,0,0,.22.08,2.85,2.85,0,0,0,.59.14,3.28,3.28,0,0,0,1.78-.19,6.07,6.07,0,0,0,.76-.4l.36-.23.37-.21a2.87,2.87,0,0,1,.4-.18,3.15,3.15,0,0,1,.44-.11,2.39,2.39,0,0,1,1,.07,1.52,1.52,0,0,0-.2-.18,1.94,1.94,0,0,0-.6-.33,2.22,2.22,0,0,0-1-.11,2.49,2.49,0,0,0-.62.14A3,3,0,0,0,209.45,503.34Z" transform="translate(-198.42 -493.4)"/><path class="cls-1" d="M204.28,505.43a4.16,4.16,0,0,0,.48-2.61,2.32,2.32,0,0,0-.23-.68,1,1,0,0,0-.16-.23,3.31,3.31,0,0,1,0,.64,3.39,3.39,0,0,1-.1.57,7.2,7.2,0,0,1-.38,1,8.78,8.78,0,0,0-.78,1.93,3.11,3.11,0,0,0,0,1.1,3,3,0,0,0,.31.82,2.74,2.74,0,0,0,.52.66C203.71,508,203.39,507.44,204.28,505.43Z" transform="translate(-198.42 -493.4)"/><path class="cls-1" d="M206.43,506.87a8.25,8.25,0,0,1-1.5,1.36,3.82,3.82,0,0,1-1,.43,3.34,3.34,0,0,0,.84,0,3.26,3.26,0,0,0,.81-.17,2.75,2.75,0,0,0,.88-.43c.48-.33.82-.79,1.26-1.16a2.67,2.67,0,0,1,.74-.47,2.33,2.33,0,0,1,1-.16,1.37,1.37,0,0,0-.24-.14,2.21,2.21,0,0,0-.66-.18A2.56,2.56,0,0,0,206.43,506.87Z" transform="translate(-198.42 -493.4)"/><path class="cls-1" d="M201.17,506.65a3.88,3.88,0,0,1,.14.91,3.76,3.76,0,0,1,0,.83c0,.13,0,.27-.06.4s-.05.26-.08.39-.11.51-.16.76l.89.32,0-.16a4.78,4.78,0,0,0,.12-.86,4.4,4.4,0,0,0,0-.72,3.72,3.72,0,0,0-.26-1.07,2.38,2.38,0,0,0-.39-.61A1.09,1.09,0,0,0,201.17,506.65Z" transform="translate(-198.42 -493.4)"/><path class="cls-1" d="M207.13,509.74a1.23,1.23,0,0,0-.26-.07,2.08,2.08,0,0,0-.68,0,2.1,2.1,0,0,0-.92.33,2.27,2.27,0,0,0-.49.41,4.17,4.17,0,0,0-.47.62l-.07.12.89.32.34-.53.19-.26a2.41,2.41,0,0,1,.21-.24,2.72,2.72,0,0,1,.53-.42A2.84,2.84,0,0,1,207.13,509.74Z" transform="translate(-198.42 -493.4)"/><path class="cls-1" d="M203.26,510.77l-.41-.15a.86.86,0,0,1,.06-.16c0-.1.09-.25.17-.44s.16-.42.28-.68.13-.27.19-.42.14-.3.22-.45a21.32,21.32,0,0,1,2.82-4.31l.46-.54.47-.51c.31-.34.65-.64,1-.95l.48-.43c.16-.13.32-.28.48-.4l.46-.36c.15-.12.29-.24.43-.34l.79-.55.62-.4c.17-.11.32-.19.41-.24l.15-.09.22.38-.14.09a4,4,0,0,0-.41.23l-.61.4c-.23.15-.48.34-.77.54-.14.09-.28.21-.42.32l-.46.36-.46.39c-.15.14-.32.27-.47.42-.31.3-.64.6-.95.94-.16.16-.32.32-.47.49l-.45.53a21.28,21.28,0,0,0-2.76,4.22,4.54,4.54,0,0,0-.21.45c-.07.14-.13.28-.19.41s-.2.47-.28.66l-.17.44A1,1,0,0,0,203.26,510.77Z" transform="translate(-198.42 -493.4)"/><path class="cls-1" d="M224.05,496.7a2.68,2.68,0,0,1,.88-.62,2.34,2.34,0,0,1,.35-.13,4.13,4.13,0,0,1,.44-.1,6.54,6.54,0,0,1,1.26-.08l.16-.94h-.53a4.51,4.51,0,0,0-.53.08,2.76,2.76,0,0,0-1.63,1A2.46,2.46,0,0,0,224.05,496.7Z" transform="translate(-198.42 -493.4)"/><path class="cls-1" d="M224,496.72a3.66,3.66,0,0,0,.31.79,4.18,4.18,0,0,0,.47.68,3.38,3.38,0,0,0,.75.63,2.14,2.14,0,0,0,.4.2,3,3,0,0,0,.41.18l.16-.94c-.42-.17-.77-.29-1-.42l-.38-.2-.3-.18A3.91,3.91,0,0,1,224,496.72Z" transform="translate(-198.42 -493.4)"/><path class="cls-1" d="M220.68,494.84a2.86,2.86,0,0,0-1.35,1.39,2.64,2.64,0,0,0-.22.82,2.94,2.94,0,0,1,.74-.84,4.81,4.81,0,0,1,.77-.41,9,9,0,0,1,1.29-.38,4.12,4.12,0,0,0,2.38-1.18,2,2,0,0,0,.4-.58,1.16,1.16,0,0,0,.1-.26,4,4,0,0,1-.53.35,3.15,3.15,0,0,1-.52.26,8.34,8.34,0,0,1-1.05.31l-.52.1-.51.1A6.24,6.24,0,0,0,220.68,494.84Z" transform="translate(-198.42 -493.4)"/><path class="cls-1" d="M222,498c-.48-.05-.88-.12-1.19-.18a4.4,4.4,0,0,1-.79-.21,3.76,3.76,0,0,1-.94-.55,3.08,3.08,0,0,0,.47.69,3.36,3.36,0,0,0,1.49,1,4.24,4.24,0,0,0,.84.19l.42.06.42.08a2.62,2.62,0,0,1,.83.31,2.55,2.55,0,0,1,.38.29,2.11,2.11,0,0,1,.35.42,1.78,1.78,0,0,0,0-.28,2.39,2.39,0,0,0-.25-.63A2.58,2.58,0,0,0,222,498Z" transform="translate(-198.42 -493.4)"/><path class="cls-1" d="M216.74,496.3c.29-.13.54-.29.77-.42a5.83,5.83,0,0,0,.58-.43,3.36,3.36,0,0,0,.7-.85,2.43,2.43,0,0,0,.26-.67,1.73,1.73,0,0,0,0-.27,4,4,0,0,1-.89.83,4.73,4.73,0,0,1-.95.54l-1,.44-.45.25a3.19,3.19,0,0,0-.42.3,2.79,2.79,0,0,0-1,2.5l.19-.48a2.61,2.61,0,0,1,.34-.5A5.21,5.21,0,0,1,216.74,496.3Z" transform="translate(-198.42 -493.4)"/><path class="cls-1" d="M217.46,498.78a8.73,8.73,0,0,1-2,.08,2.74,2.74,0,0,1-.58-.14l-.47-.17a3.32,3.32,0,0,0,.62.55,3.57,3.57,0,0,0,.73.4,3.31,3.31,0,0,0,.95.23,3.12,3.12,0,0,0,.43,0l.43,0c.28,0,.56-.06.85-.06a3.24,3.24,0,0,1,.87.11,2.61,2.61,0,0,1,.88.52,2.05,2.05,0,0,0-.1-.25,2.12,2.12,0,0,0-.39-.56,2.06,2.06,0,0,0-.82-.54,3.2,3.2,0,0,0-.61-.15A4.06,4.06,0,0,0,217.46,498.78Z" transform="translate(-198.42 -493.4)"/><path class="cls-1" d="M213.57,495.23a4.23,4.23,0,0,1-.47.79,5.55,5.55,0,0,1-.57.61,5.89,5.89,0,0,1-.61.51l-.61.48.47.83.13-.11.35-.3c.11-.09.21-.19.3-.28a3.67,3.67,0,0,0,.46-.56,3,3,0,0,0,.49-1,2.33,2.33,0,0,0,.09-.72A1,1,0,0,0,213.57,495.23Z" transform="translate(-198.42 -493.4)"/><path class="cls-1" d="M216.16,501.43a1.3,1.3,0,0,0-.16-.23,2.07,2.07,0,0,0-.5-.45,2.21,2.21,0,0,0-.92-.34,3.41,3.41,0,0,0-.64,0l-.36.06-.39.12-.14.05.48.82.6-.2a5.84,5.84,0,0,1,.63-.13,2.55,2.55,0,0,1,.67,0A2.25,2.25,0,0,1,216.16,501.43Z" transform="translate(-198.42 -493.4)"/><path class="cls-1" d="M212.53,499.73l-.22-.38.14-.08.42-.24c.37-.18.88-.46,1.53-.74.32-.15.68-.28,1-.43.19-.08.38-.14.59-.21l.61-.21a21.43,21.43,0,0,1,2.68-.64c.46-.09.93-.14,1.38-.2.23,0,.46,0,.69-.06l.67-.05a23.29,23.29,0,0,1,2.4,0c.35,0,.67,0,1,.08l.73.09.47.08.17,0-.08.43-.16,0c-.11,0-.26-.05-.46-.07l-.72-.09c-.28,0-.59-.05-.94-.08a22.36,22.36,0,0,0-2.35,0l-.66.05c-.22,0-.44,0-.67,0-.45.06-.9.11-1.36.2a22.31,22.31,0,0,0-2.62.63l-.6.2c-.2.07-.39.13-.57.21-.37.15-.72.27-1,.42-.64.28-1.14.55-1.5.73l-.41.23Z" transform="translate(-198.42 -493.4)"/><path class="cls-1" d="M237.5,502.31c.65,0,1.26-.14,2.84,1.17l.73-.61a5.75,5.75,0,0,0-.87-.62,3.47,3.47,0,0,0-1.06-.31,3.25,3.25,0,0,0-.86.06A2.73,2.73,0,0,0,237.5,502.31Z" transform="translate(-198.42 -493.4)"/><path class="cls-1" d="M237.48,502.33a3.3,3.3,0,0,0-.27.8,3.46,3.46,0,0,0-.08.82,3.09,3.09,0,0,0,.17,1,5,5,0,0,0,.37.81l.73-.61a7.8,7.8,0,0,1-.81-1.73A3.65,3.65,0,0,1,237.48,502.33Z" transform="translate(-198.42 -493.4)"/><path class="cls-1" d="M236.11,498.72a2.77,2.77,0,0,0-1.92.2,3,3,0,0,0-.7.48,3,3,0,0,1,1.11-.16,4.49,4.49,0,0,1,.85.18,5.32,5.32,0,0,1,.56.22c.2.09.43.19.67.32a5,5,0,0,0,.79.37,6.5,6.5,0,0,0,.69.21,3.46,3.46,0,0,0,.6.07,2.64,2.64,0,0,0,.5,0,2.55,2.55,0,0,0,.69-.19,1.72,1.72,0,0,0,.24-.14,4.75,4.75,0,0,1-2.2-.65c-.32-.16-.61-.35-.92-.51A7.09,7.09,0,0,0,236.11,498.72Z" transform="translate(-198.42 -493.4)"/><path class="cls-1" d="M235.12,502c-.17-.18-.32-.33-.45-.48s-.25-.3-.35-.42a4.18,4.18,0,0,1-.47-.67,3.53,3.53,0,0,1-.37-1,3.3,3.3,0,0,0-.08.83,3.43,3.43,0,0,0,.5,1.72,3.91,3.91,0,0,0,.53.67c.19.22.38.43.56.66a2.41,2.41,0,0,1,.53,1.78,1.33,1.33,0,0,0,.15-.23,2.22,2.22,0,0,0,.22-.65,3.09,3.09,0,0,0,0-.45,2.8,2.8,0,0,0-.09-.53,3.14,3.14,0,0,0-.25-.59A4.48,4.48,0,0,0,235.12,502Z" transform="translate(-198.42 -493.4)"/><path class="cls-1" d="M232.16,497.31a8.13,8.13,0,0,0,.86.17,3.64,3.64,0,0,0,.72,0,3.2,3.2,0,0,0,1.08-.2,2.25,2.25,0,0,0,.63-.34,1.51,1.51,0,0,0,.2-.2,4,4,0,0,1-1.22.08,5.2,5.2,0,0,1-1.07-.2l-1-.28a5.13,5.13,0,0,0-1-.15H231l-.29,0a3.65,3.65,0,0,0-.5.15,2.64,2.64,0,0,0-.74.44,2.7,2.7,0,0,0-.56.63,2.64,2.64,0,0,1,1-.41,4,4,0,0,1,.88,0l.59.08.35.07A3.61,3.61,0,0,1,232.16,497.31Z" transform="translate(-198.42 -493.4)"/><path class="cls-1" d="M231.11,499.67l-.28-.19-.26-.18a4.61,4.61,0,0,1-.44-.32,6.17,6.17,0,0,1-.61-.54,4.21,4.21,0,0,1-.6-.92,3.12,3.12,0,0,0,.12.83,4.48,4.48,0,0,0,.3.77,2.42,2.42,0,0,0,.25.4l.15.2.18.19a4.72,4.72,0,0,0,.67.53c.23.17.47.33.69.51a2.63,2.63,0,0,1,.59.65,2.28,2.28,0,0,1,.34,1,1.39,1.39,0,0,0,.09-.26,2.4,2.4,0,0,0,.07-.67,2.11,2.11,0,0,0-.29-.95,2.34,2.34,0,0,0-.37-.51A4,4,0,0,0,231.11,499.67Z" transform="translate(-198.42 -493.4)"/><path class="cls-1" d="M230.42,494.45a4.37,4.37,0,0,1-.88.3,6,6,0,0,1-.82.11,7.09,7.09,0,0,1-.8,0l-.78,0-.16.94h.62l.42,0a4.51,4.51,0,0,0,.71-.13,3.22,3.22,0,0,0,1-.44,2.44,2.44,0,0,0,.54-.49A2.69,2.69,0,0,0,230.42,494.45Z" transform="translate(-198.42 -493.4)"/><path class="cls-1" d="M228.41,500.86a1.13,1.13,0,0,0,0-.27,2.29,2.29,0,0,0-.09-.67,2.35,2.35,0,0,0-.49-.85,3.43,3.43,0,0,0-.49-.41,2.46,2.46,0,0,0-.32-.19l-.37-.16-.14-.05-.16.94c.19.08.39.14.59.23a4.4,4.4,0,0,1,.56.31,2.1,2.1,0,0,1,.5.45A2.39,2.39,0,0,1,228.41,500.86Z" transform="translate(-198.42 -493.4)"/><path class="cls-1" d="M226.72,497.23l.08-.43.63.12c.4.09,1,.2,1.65.41a19.61,19.61,0,0,1,2.27.8,20.17,20.17,0,0,1,2.47,1.22,21.76,21.76,0,0,1,4.11,3.09l.37.36.31.33c.2.2.38.38.51.54l.42.49-.34.28-.41-.48-.49-.53-.31-.32c-.11-.12-.23-.23-.36-.35a21.24,21.24,0,0,0-4-3,20.65,20.65,0,0,0-4.64-2c-.66-.2-1.22-.31-1.61-.41Z" transform="translate(-198.42 -493.4)"/><path class="cls-1" d="M244.19,515.25c.13.1.26.2.39.32l.19.19c.06.08.13.16.19.25a4.07,4.07,0,0,1,.36.75,8,8,0,0,1,.3,1.22h.95a5.21,5.21,0,0,0-.27-1,3,3,0,0,0-.61-.92,2.82,2.82,0,0,0-.7-.51A2.6,2.6,0,0,0,244.19,515.25Z" transform="translate(-198.42 -493.4)"/><path class="cls-1" d="M244.16,515.26a3.14,3.14,0,0,0-.71.43,4,4,0,0,0-.59.58,3.06,3.06,0,0,0-.49.85,3.78,3.78,0,0,0-.23.86h1a8.32,8.32,0,0,1,.24-1.11,3.62,3.62,0,0,1,.25-.73,1.71,1.71,0,0,1,.14-.27l.14-.22Z" transform="translate(-198.42 -493.4)"/><path class="cls-1" d="M245.43,511.62a2.8,2.8,0,0,0-.38-.44,2.92,2.92,0,0,0-.42-.32,2.84,2.84,0,0,0-.79-.33,2.54,2.54,0,0,0-.6-.08H243a2.74,2.74,0,0,1,.94.59c.09.08.17.18.27.29a3.46,3.46,0,0,1,.27.4l.3.52c.1.2.19.43.3.68a4.25,4.25,0,0,0,1.57,2.14,2.28,2.28,0,0,0,.66.3l.27,0a4.16,4.16,0,0,1-.79-.93,6.82,6.82,0,0,1-.48-1c-.12-.34-.26-.66-.39-1a4,4,0,0,0-.21-.47C245.62,511.9,245.53,511.76,245.43,511.62Z" transform="translate(-198.42 -493.4)"/><path class="cls-1" d="M242.55,513.51c0-.25,0-.47,0-.67s0-.38,0-.54,0-.32,0-.45a2,2,0,0,1,0-.36,4,4,0,0,1,.37-1l-.18.15a4.8,4.8,0,0,0-.41.44,3,3,0,0,0-.44.7,3.34,3.34,0,0,0-.17.44,2.8,2.8,0,0,0-.12.5,3.22,3.22,0,0,0,0,.43v.43a8,8,0,0,1,0,.85,2.69,2.69,0,0,1-.17.87,2.47,2.47,0,0,1-.56.84,1.42,1.42,0,0,0,.26-.09,2.27,2.27,0,0,0,.58-.35,2.38,2.38,0,0,0,.59-.78,3.14,3.14,0,0,0,.18-.61c0-.12,0-.24.05-.37S242.56,513.65,242.55,513.51Z" transform="translate(-198.42 -493.4)"/><path class="cls-1" d="M243.32,508l.28.36a2.78,2.78,0,0,0,.26.32c.18.2.37.35.53.5a3.27,3.27,0,0,0,1,.54,2.58,2.58,0,0,0,.7.14,1.58,1.58,0,0,0,.28,0,4.52,4.52,0,0,1-1-.72,4.64,4.64,0,0,1-.37-.42,4.46,4.46,0,0,1-.33-.43l-.3-.43c-.09-.15-.2-.29-.3-.43a4.22,4.22,0,0,0-.69-.77,2.84,2.84,0,0,0-1-.55,3.26,3.26,0,0,0-.86-.14,2.73,2.73,0,0,0-.83.12,2.85,2.85,0,0,1,1.06.35,3.64,3.64,0,0,1,.68.55,4.5,4.5,0,0,1,.41.44C243,507.57,243.16,507.76,243.32,508Z" transform="translate(-198.42 -493.4)"/><path class="cls-1" d="M241,509.13c-.07-.23-.13-.44-.18-.64s-.1-.36-.13-.53a4.71,4.71,0,0,1-.12-.8,3.62,3.62,0,0,1,.13-1.09,3.47,3.47,0,0,0-.44.72,3.24,3.24,0,0,0-.27.78,3.12,3.12,0,0,0-.06,1,5.68,5.68,0,0,0,.17.84l.12.41.09.42c0,.14.05.29.06.43a3.4,3.4,0,0,1,0,.45,2.18,2.18,0,0,1-.35.95,1.48,1.48,0,0,0,.23-.14,2.18,2.18,0,0,0,.49-.48,2.35,2.35,0,0,0,.39-.9,2.56,2.56,0,0,0,0-.63,2.46,2.46,0,0,0,0-.37l0-.2Z" transform="translate(-198.42 -493.4)"/><path class="cls-1" d="M243.82,504.68a4,4,0,0,1-.86-.33,3.81,3.81,0,0,1-.7-.45,7.49,7.49,0,0,1-.61-.51c-.2-.17-.38-.36-.58-.52l-.73.61.13.1a5.58,5.58,0,0,0,1.31.91,3.13,3.13,0,0,0,1.06.3,2.21,2.21,0,0,0,.71,0A1.08,1.08,0,0,0,243.82,504.68Z" transform="translate(-198.42 -493.4)"/><path class="cls-1" d="M238.16,508.31a1.09,1.09,0,0,0,.2-.19,2.19,2.19,0,0,0,.53-1.54,3,3,0,0,0-.42-1.35.75.75,0,0,0-.07-.12l-.73.61c.11.18.2.38.3.56a3.13,3.13,0,0,1,.24.6,2.41,2.41,0,0,1,.09.67A2.2,2.2,0,0,1,238.16,508.31Z" transform="translate(-198.42 -493.4)"/><path class="cls-1" d="M239.2,504.44l.34-.28.11.12.29.38c.13.16.29.35.46.58s.35.5.55.79a22,22,0,0,1,2.33,4.59c.08.22.15.45.23.67s.07.22.11.33l.09.33c.07.23.13.45.19.66l.15.66c.11.42.17.85.24,1.24,0,.2.06.4.09.58s0,.38.07.55c.06.7.11,1.29.11,1.69s0,.65,0,.65h-.43s0-.23,0-.63-.05-1-.11-1.66c0-.18,0-.35-.07-.54s0-.37-.08-.57c-.07-.38-.13-.8-.24-1.22-.05-.21-.09-.42-.14-.64l-.19-.64-.09-.33c0-.11-.07-.22-.11-.33s-.15-.43-.22-.65a21.89,21.89,0,0,0-2.28-4.5l-.54-.77c-.17-.23-.33-.41-.45-.57l-.29-.37Z" transform="translate(-198.42 -493.4)"/></svg>