<svg id="Layer_1" data-name="Layer 1" xmlns="http://www.w3.org/2000/svg" viewBox="0 0 47.91 47.91"><defs><style>.cls-1{fill:#010101;}</style></defs><path class="cls-1" d="M337.16,314.11l-.18.18-.43.38-.43.37-.21.15,1.71,2.14c.07-.14.14-.28.2-.43a3.26,3.26,0,0,0,.15-.44,2.93,2.93,0,0,0,.11-.87A1.86,1.86,0,0,0,337.16,314.11Z" transform="translate(-299.04 -275.04)"/><path class="cls-1" d="M333.87,312.63l1.7,2.13.2-.15c.12-.09.26-.23.42-.36l.41-.36.18-.18a2.09,2.09,0,0,0-1.36-1,3.06,3.06,0,0,0-.79-.1l-.38,0Z" transform="translate(-299.04 -275.04)"/><path class="cls-1" d="M340.27,315.76s.19-.26.43-.66a7.86,7.86,0,0,0,.35-.71c.06-.14.12-.27.17-.41s.09-.3.13-.45a4.68,4.68,0,0,0,.14-.9,2.65,2.65,0,0,0-.12-.85,1.81,1.81,0,0,0-1.19-1.19s-.31.42-.61.85l-.44.56-.14.18-.06.07a3.68,3.68,0,0,0,.19,1.21,8.32,8.32,0,0,0,.46,1.13A9.66,9.66,0,0,0,340.27,315.76Z" transform="translate(-299.04 -275.04)"/><path class="cls-1" d="M335.07,310.7a7.78,7.78,0,0,0,1.13.71,5.43,5.43,0,0,0,1.11.42,3,3,0,0,0,1.19.07l.06-.07.14-.18.43-.55.59-.82a2.19,2.19,0,0,0-1.54-.72,2.76,2.76,0,0,0-.76.07,4.38,4.38,0,0,0-.73.21l-.32.15-.31.14a3.9,3.9,0,0,0-.51.28A3.52,3.52,0,0,0,335.07,310.7Z" transform="translate(-299.04 -275.04)"/><path class="cls-1" d="M343.57,311.5s.13-.3.27-.74c0-.11.07-.23.1-.36L344,310a6.52,6.52,0,0,0,.1-.9,3.16,3.16,0,0,0-.37-1.72,1.83,1.83,0,0,0-1.44-.9l-.12.31c0,.09-.07.19-.12.31s-.1.23-.16.35-.21.47-.3.64l-.15.29a5.4,5.4,0,0,0,1.17,2.14,7,7,0,0,0,.65.71Z" transform="translate(-299.04 -275.04)"/><path class="cls-1" d="M337.38,307.73l.36.14a6.67,6.67,0,0,0,.89.29,3.78,3.78,0,0,0,2.35,0l.15-.28c.09-.17.18-.4.29-.63l.15-.34a3.11,3.11,0,0,0,.12-.3c.07-.18.12-.29.12-.29a2.13,2.13,0,0,0-1.65-.36,3.56,3.56,0,0,0-1.39.61,6.23,6.23,0,0,0-.56.41l-.23.2-.21.19A4.48,4.48,0,0,0,337.38,307.73Z" transform="translate(-299.04 -275.04)"/><path class="cls-1" d="M345.84,306.6s0-.08,0-.21,0-.15,0-.25,0-.2,0-.32,0-.5,0-.79a5.67,5.67,0,0,0-.11-.9,3.69,3.69,0,0,0-.11-.45,3,3,0,0,0-.16-.42,2.77,2.77,0,0,0-.46-.72,1.88,1.88,0,0,0-1.61-.55.62.62,0,0,1,0,.09,1.59,1.59,0,0,1,0,.23c0,.19-.08.45-.12.7s-.05.26-.08.38-.05.23-.08.32l-.07.32a3.93,3.93,0,0,0,.7,1,8.76,8.76,0,0,0,2,1.57Z" transform="translate(-299.04 -275.04)"/><path class="cls-1" d="M339,304.31a7.34,7.34,0,0,0,1.33.14,4.79,4.79,0,0,0,1.18-.1,2.7,2.7,0,0,0,1.1-.45s0-.13.08-.31,0-.2.07-.32.05-.24.07-.36.09-.5.13-.69,0-.17,0-.22a.62.62,0,0,0,0-.09,2.14,2.14,0,0,0-1.69,0,3.1,3.1,0,0,0-.66.39l-.28.25a3.38,3.38,0,0,0-.27.26,4.29,4.29,0,0,0-.45.54c-.14.17-.25.33-.35.47l-.12.19-.1.15Z" transform="translate(-299.04 -275.04)"/><path class="cls-1" d="M347,301.32s0-.3-.08-.74q0-.16-.06-.36c0-.12-.06-.25-.1-.39a7.27,7.27,0,0,0-.27-.83h-2.73v.43a4.23,4.23,0,0,0,.91.82,8.22,8.22,0,0,0,1.07.6A8.32,8.32,0,0,0,347,301.32Z" transform="translate(-299.04 -275.04)"/><path class="cls-1" d="M343.16,299.42V299h-2.72a4.31,4.31,0,0,0-.31.6c-.05.1-.08.19-.12.28l-.1.24c-.12.31-.18.51-.18.51a7.86,7.86,0,0,0,1.32-.16,5,5,0,0,0,1.14-.36A2.85,2.85,0,0,0,343.16,299.42Z" transform="translate(-299.04 -275.04)"/><path class="cls-1" d="M343,301.91a.62.62,0,0,1,0,.09c0,.05,0,.13,0,.22s-.08.44-.13.69,0,.25-.07.36,0,.23-.07.32-.08.31-.08.31,0,.15-.1.37-.14.53-.23.83-.21.59-.28.81l-.14.37s-.05.11-.12.29a3.11,3.11,0,0,1-.12.3l-.15.34c-.11.23-.2.46-.29.63l-.15.28-.18.35a3.13,3.13,0,0,1-.19.35l-.23.4c-.15.27-.33.53-.45.73l-.21.33-.59.82-.43.55-.14.18-.06.07-.25.29-.27.3c-.09.12-.2.22-.31.34s-.43.46-.6.61l-.29.27-.18.18-.41.36c-.16.13-.3.27-.42.36l-.2.15.34.43.21-.15.43-.37.43-.38.18-.18s.12-.1.29-.27.4-.4.62-.63.23-.23.32-.35l.27-.31.27-.3.06-.07.14-.18.44-.56c.3-.43.61-.85.61-.85s.08-.14.21-.34.31-.47.47-.75l.23-.41a3.42,3.42,0,0,0,.2-.36l.18-.36.15-.29c.09-.17.19-.41.3-.64s.11-.24.16-.35.09-.22.12-.31l.12-.31.15-.37.28-.83c.1-.31.18-.62.25-.85s.1-.39.1-.39l.07-.32c0-.09.05-.2.08-.32s.06-.25.08-.38.09-.51.12-.7a1.59,1.59,0,0,0,0-.23.62.62,0,0,0,0-.09l.05-.4c0-.12,0-.26.05-.41s0-.31,0-.47c0-.32.06-.64.06-.88s0-.4,0-.4V299h-.56v.42s0,.15,0,.39,0,.54-.06.86l0,.45c0,.15,0,.29-.06.4S343,301.91,343,301.91Z" transform="translate(-299.04 -275.04)"/><path class="cls-1" d="M320,319.5h-.07l-.18,0-.56-.1-.56-.1-.25-.06-.61,2.66.46-.1.44-.16a2.81,2.81,0,0,0,.75-.47,1.69,1.69,0,0,0,.48-.69A2,2,0,0,0,320,319.5Z" transform="translate(-299.04 -275.04)"/><path class="cls-1" d="M319.12,316l-.61,2.66.25,0a4.63,4.63,0,0,0,.54.11l.54.1.18,0h.07a2.19,2.19,0,0,0,0-1.73,3.29,3.29,0,0,0-.42-.67l-.25-.29Z" transform="translate(-299.04 -275.04)"/><path class="cls-1" d="M320.68,323s.31,0,.77-.09l.37-.06.41-.1a5.75,5.75,0,0,0,.85-.3,5.1,5.1,0,0,0,.79-.46c.11-.09.23-.18.33-.28a2,2,0,0,0,.26-.34,1.83,1.83,0,0,0,.19-1.68l-.33,0c-.19,0-.45,0-.71,0l-.72,0h-.32a3.59,3.59,0,0,0-.82.91,6.32,6.32,0,0,0-.59,1.07A7.83,7.83,0,0,0,320.68,323Z" transform="translate(-299.04 -275.04)"/><path class="cls-1" d="M321.37,315.74a7.81,7.81,0,0,0,.16,1.31,5,5,0,0,0,.36,1.14,2.85,2.85,0,0,0,.69,1h.32c.19,0,.44,0,.69,0s.51,0,.7,0l.32,0a2.16,2.16,0,0,0-.4-1.65,2.26,2.26,0,0,0-.25-.29,3.45,3.45,0,0,0-.28-.26,4.06,4.06,0,0,0-.62-.43c-.21-.12-.42-.24-.62-.33l-.29-.11-.25-.11A4.07,4.07,0,0,0,321.37,315.74Z" transform="translate(-299.04 -275.04)"/><path class="cls-1" d="M326.05,322.87l.21-.06a3.58,3.58,0,0,0,.54-.19,6.47,6.47,0,0,0,1.48-.81,3.16,3.16,0,0,0,1.12-1.36,1.84,1.84,0,0,0-.2-1.68l-.08,0-.23.06-.69.2-1,.23a3.71,3.71,0,0,0-.6,1.07c-.08.2-.14.4-.2.6s-.1.39-.14.57A8.58,8.58,0,0,0,326.05,322.87Z" transform="translate(-299.04 -275.04)"/><path class="cls-1" d="M325.14,315.67a7.81,7.81,0,0,0,.45,1.26c.08.17.16.35.26.52a5.65,5.65,0,0,0,.34.51,2.92,2.92,0,0,0,.89.79l1-.22.67-.2.22-.06.08,0a2.16,2.16,0,0,0-.75-1.51A4,4,0,0,0,327,316a8.11,8.11,0,0,0-1.25-.28c-.17,0-.31-.05-.4-.05Z" transform="translate(-299.04 -275.04)"/><path class="cls-1" d="M331.3,321.6s.28-.15.66-.41l.31-.22.32-.27a5.52,5.52,0,0,0,.64-.64,3.24,3.24,0,0,0,.78-1.57,1.85,1.85,0,0,0-.56-1.6l-.29.16-.29.17-.34.17-.63.33-.3.13a5.47,5.47,0,0,0-.42,2.39A8.87,8.87,0,0,0,331.3,321.6Z" transform="translate(-299.04 -275.04)"/><path class="cls-1" d="M328.8,314.79a7.55,7.55,0,0,0,.71,1.12,3.76,3.76,0,0,0,1.86,1.43l.29-.12.62-.32.33-.17.28-.16.28-.16a2.21,2.21,0,0,0-1.07-1.31,3.9,3.9,0,0,0-1.47-.38l-.7,0-.3,0h-.28C329,314.75,328.8,314.79,328.8,314.79Z" transform="translate(-299.04 -275.04)"/><path class="cls-1" d="M336.12,319.18l.15-.14a3.6,3.6,0,0,0,.38-.39,6.18,6.18,0,0,0,.5-.58c.16-.23.32-.48.47-.74l-1.71-2.14-.33.27c0,.1,0,.2-.06.3l0,.3a4.28,4.28,0,0,0,0,.62,7.44,7.44,0,0,0,.21,1.21A8.12,8.12,0,0,0,336.12,319.18Z" transform="translate(-299.04 -275.04)"/><path class="cls-1" d="M335.24,315l.33-.26-1.7-2.13c-.24,0-.46.09-.66.14l-.55.15-.36.13-.14.05a7.36,7.36,0,0,0,.95.94,5.41,5.41,0,0,0,1,.66,3,3,0,0,0,.57.22,1.53,1.53,0,0,0,.29.07A1.43,1.43,0,0,0,335.24,315Z" transform="translate(-299.04 -275.04)"/><path class="cls-1" d="M333.17,316.41l-.28.16-.28.16-.33.17-.62.32-.29.12-.35.17-.18.07-.2.08-.42.17c-.29.12-.59.21-.81.29l-.37.12-.08,0-.22.06-.67.2-1,.22-.11,0-.27.05-.4.07-.22,0-.23,0-.86.11-.38,0-.32,0c-.19,0-.44,0-.7,0s-.5,0-.69,0h-.71c-.23,0-.54,0-.86-.06l-.45,0-.4-.05-.39,0H320l-.18,0-.54-.1a4.63,4.63,0,0,1-.54-.11l-.25,0-.12.54.25.06.56.1.56.1.18,0H320l.4.05.41.05.47,0c.32,0,.64.06.88.06h.72l.72,0c.26,0,.52,0,.71,0l.33,0,.4,0,.88-.11.23,0,.23,0,.41-.07.28-.06.11,0,1-.23.69-.2.23-.06.08,0,.38-.13c.23-.08.54-.17.84-.3l.44-.17.2-.08.17-.08.37-.16.3-.13.63-.33.34-.17.29-.17.29-.16.09-.05.25-.15.75-.48.71-.51.24-.17.09-.07.33-.27-.34-.43-.33.26-.08.07-.23.17c-.19.13-.44.32-.7.49l-.73.47-.24.14Z" transform="translate(-299.04 -275.04)"/><path class="cls-1" d="M305.11,309.45s-.05-.1-.13-.23-.19-.31-.28-.5l-.37-.73-2.46,1.19a3.43,3.43,0,0,0,1.6.83A1.86,1.86,0,0,0,305.11,309.45Z" transform="translate(-299.04 -275.04)"/><path class="cls-1" d="M307.28,306.56l-2.45,1.19.36.71c.09.19.2.36.27.49s.13.22.13.22a2.12,2.12,0,0,0,1.32-1.1A3.69,3.69,0,0,0,307.28,306.56Z" transform="translate(-299.04 -275.04)"/><path class="cls-1" d="M302.82,312.12l.14.16a5.39,5.39,0,0,0,.41.4c.17.15.38.33.61.5a8.36,8.36,0,0,0,.77.48,4.4,4.4,0,0,0,.85.33,2.48,2.48,0,0,0,.85.08,1.83,1.83,0,0,0,1.43-.91l-.22-.23-.47-.54c-.17-.2-.33-.4-.45-.56l-.2-.25-.3-.06-.3,0a4.28,4.28,0,0,0-.62,0,8.56,8.56,0,0,0-2.5.62Z" transform="translate(-299.04 -275.04)"/><path class="cls-1" d="M308.9,308.16a7.36,7.36,0,0,0-.94.95,6.45,6.45,0,0,0-.66,1,4,4,0,0,0-.23.57c0,.1-.05.19-.07.29s0,.2,0,.29l.19.25c.12.15.27.35.44.54l.46.52.22.23a2.09,2.09,0,0,0,1-1.33,2.85,2.85,0,0,0,.11-.76,6,6,0,0,0-.05-.75c0-.25-.09-.48-.14-.68s-.1-.41-.15-.57-.1-.3-.14-.39Z" transform="translate(-299.04 -275.04)"/><path class="cls-1" d="M306.25,316.27s.25.19.65.43c.2.11.45.23.71.35l.41.17.44.13a4.66,4.66,0,0,0,.91.14,3,3,0,0,0,.85-.11,1.85,1.85,0,0,0,1.19-1.2l-.85-.61-.56-.44-.18-.14-.07-.06a3.68,3.68,0,0,0-1.21.19,7.83,7.83,0,0,0-1.13.46A9,9,0,0,0,306.25,316.27Z" transform="translate(-299.04 -275.04)"/><path class="cls-1" d="M311.3,311.07a7.15,7.15,0,0,0-.71,1.13,5.43,5.43,0,0,0-.42,1.11,2.83,2.83,0,0,0-.07,1.19l.07.06.18.14.55.43.82.59a2.19,2.19,0,0,0,.72-1.54,2.76,2.76,0,0,0-.07-.76,4,4,0,0,0-.21-.72l-.15-.33a2.92,2.92,0,0,0-.14-.31,3.9,3.9,0,0,0-.28-.51A4.58,4.58,0,0,0,311.3,311.07Z" transform="translate(-299.04 -275.04)"/><path class="cls-1" d="M310.5,319.58s.3.12.74.26l.36.1c.13,0,.27.06.41.09a6.52,6.52,0,0,0,.9.1,3.16,3.16,0,0,0,1.72-.37,1.8,1.8,0,0,0,.89-1.44l-.3-.12-.31-.12-.35-.15c-.23-.12-.47-.22-.65-.31l-.29-.15a5.43,5.43,0,0,0-2.13,1.17,8.66,8.66,0,0,0-.72.65C310.6,319.46,310.5,319.58,310.5,319.58Z" transform="translate(-299.04 -275.04)"/><path class="cls-1" d="M314.27,313.38s-.06.13-.14.36a6.67,6.67,0,0,0-.29.89,3.78,3.78,0,0,0,0,2.35l.28.15c.17.09.4.18.63.29l.34.15.3.12.29.12a2.09,2.09,0,0,0,.36-1.65,3.71,3.71,0,0,0-.61-1.39,5.07,5.07,0,0,0-.41-.56l-.2-.23-.19-.21A4.48,4.48,0,0,0,314.27,313.38Z" transform="translate(-299.04 -275.04)"/><path class="cls-1" d="M315.4,321.84l.2,0,.24,0,.3,0c.23,0,.49,0,.77,0a5.24,5.24,0,0,0,.87-.09l.61-2.66-.42-.1a3.93,3.93,0,0,0-1,.7,7.63,7.63,0,0,0-.82.92A8,8,0,0,0,315.4,321.84Z" transform="translate(-299.04 -275.04)"/><path class="cls-1" d="M318.1,318.56l.41.1.61-2.66c-.18-.17-.36-.3-.52-.43s-.32-.24-.46-.33l-.18-.12a.56.56,0,0,1-.14-.09l-.13-.08a7.87,7.87,0,0,0-.15,1.33,5.35,5.35,0,0,0,.11,1.18A2.7,2.7,0,0,0,318.1,318.56Z" transform="translate(-299.04 -275.04)"/><path class="cls-1" d="M315.72,317.81l-.29-.12-.3-.12-.34-.15c-.23-.11-.46-.2-.63-.29l-.28-.15-.35-.18a2.45,2.45,0,0,1-.35-.19l-.4-.23c-.27-.15-.53-.33-.73-.45l-.33-.21-.82-.59-.55-.43-.18-.14-.07-.06-.29-.26-.3-.26a3.28,3.28,0,0,1-.34-.31c-.22-.22-.45-.43-.61-.6l-.27-.29-.22-.23-.46-.52c-.17-.19-.32-.39-.44-.54l-.19-.25-.07-.08-.17-.23-.49-.7-.47-.73-.14-.24-.05-.09s-.06-.09-.13-.22-.18-.3-.27-.49l-.36-.71-.5.24.37.73c.09.19.21.37.28.5s.13.23.13.23l.06.09.14.25.48.75.51.72.17.23.07.09.2.25c.12.16.28.36.45.56l.47.54.22.23.28.29c.16.18.4.4.63.62s.23.23.35.32l.31.27.3.27.07.06.18.14.56.44.85.61.34.21c.2.13.47.32.75.47l.41.23a3.42,3.42,0,0,0,.36.2l.35.18.29.15c.18.09.42.19.65.31l.35.15.31.12.3.12.38.15.83.28.85.25c.23.07.39.1.39.1l.42.1.12-.54-.41-.1s-.15,0-.37-.1l-.83-.23-.81-.28Z" transform="translate(-299.04 -275.04)"/><path class="cls-1" d="M303.68,291.52s0-.09.09-.24.13-.33.22-.52l.34-.75-2.46-1.19a3.37,3.37,0,0,0,.35,1.78A1.85,1.85,0,0,0,303.68,291.52Z" transform="translate(-299.04 -275.04)"/><path class="cls-1" d="M307.28,291.43l-2.45-1.18s-.17.36-.33.73c-.09.18-.16.37-.22.51s-.09.23-.09.23a2.18,2.18,0,0,0,1.69.36A3.75,3.75,0,0,0,307.28,291.43Z" transform="translate(-299.04 -275.04)"/><path class="cls-1" d="M300.16,291.4s0,.08,0,.21,0,.15,0,.25,0,.2,0,.32,0,.5,0,.79a5.67,5.67,0,0,0,.11.9c0,.15.06.3.1.44a4.28,4.28,0,0,0,.17.43,2.77,2.77,0,0,0,.46.72,1.87,1.87,0,0,0,1.61.55.62.62,0,0,1,0-.09,1.59,1.59,0,0,1,0-.23c0-.19.08-.45.12-.7s.05-.26.08-.38.06-.23.08-.32l.07-.32a3.93,3.93,0,0,0-.7-1,7.63,7.63,0,0,0-.92-.82A8,8,0,0,0,300.16,291.4Z" transform="translate(-299.04 -275.04)"/><path class="cls-1" d="M307.05,293.69a7.87,7.87,0,0,0-1.33-.15,5.49,5.49,0,0,0-1.19.11,2.82,2.82,0,0,0-1.1.45,3,3,0,0,1-.07.31c0,.1,0,.2-.07.32s-.05.24-.07.36-.09.5-.13.69,0,.17,0,.22l0,.09a2.09,2.09,0,0,0,1.69,0,2.64,2.64,0,0,0,.67-.4,3.22,3.22,0,0,0,.28-.24,2.29,2.29,0,0,0,.27-.27,4.17,4.17,0,0,0,.45-.52c.14-.18.25-.34.35-.48l.12-.19.1-.15Z" transform="translate(-299.04 -275.04)"/><path class="cls-1" d="M299,296.67s0,.32.09.78a2.58,2.58,0,0,0,.06.37c0,.13.06.27.1.41a5.75,5.75,0,0,0,.3.85,4.41,4.41,0,0,0,.46.79c.09.11.18.23.28.33a2,2,0,0,0,.34.26,1.83,1.83,0,0,0,1.68.19s0-.13,0-.33,0-.45,0-.71,0-.52,0-.72,0-.32,0-.32a4,4,0,0,0-.91-.82,6.32,6.32,0,0,0-1.07-.59A8.56,8.56,0,0,0,299,296.67Z" transform="translate(-299.04 -275.04)"/><path class="cls-1" d="M306.26,297.37a7.81,7.81,0,0,0-1.31.16,5,5,0,0,0-1.14.36,2.85,2.85,0,0,0-1,.69v.32c0,.19,0,.44,0,.69s0,.51,0,.7,0,.32,0,.32a2.16,2.16,0,0,0,1.65-.4,2.26,2.26,0,0,0,.29-.25,3.45,3.45,0,0,0,.26-.28,4.06,4.06,0,0,0,.43-.62c.12-.21.23-.42.33-.62s.08-.2.11-.29.08-.17.11-.25A3.57,3.57,0,0,0,306.26,297.37Z" transform="translate(-299.04 -275.04)"/><path class="cls-1" d="M299.13,302.06l.06.21a5.57,5.57,0,0,0,.18.53,7,7,0,0,0,.82,1.48,3.16,3.16,0,0,0,1.36,1.12,1.81,1.81,0,0,0,1.68-.2l0-.08c0-.05,0-.13-.06-.23s-.13-.44-.2-.69c-.12-.5-.23-1-.23-1a3.71,3.71,0,0,0-1.07-.6c-.2-.08-.4-.14-.6-.2l-.57-.15A8.38,8.38,0,0,0,299.13,302.06Z" transform="translate(-299.04 -275.04)"/><path class="cls-1" d="M306.33,301.14a7.81,7.81,0,0,0-1.26.45c-.17.08-.35.16-.52.26a4.52,4.52,0,0,0-.51.34,2.9,2.9,0,0,0-.79.89s.11.49.23,1c.06.24.13.48.19.67a2.18,2.18,0,0,0,.06.22l0,.08a2.16,2.16,0,0,0,1.52-.75A3.77,3.77,0,0,0,306,303a8.11,8.11,0,0,0,.28-1.25c0-.17,0-.31.05-.4S306.33,301.14,306.33,301.14Z" transform="translate(-299.04 -275.04)"/><path class="cls-1" d="M300.4,307.3s.14.26.4.64c.06.09.13.19.21.29a3.49,3.49,0,0,0,.25.32c.19.21.39.43.61.63l2.46-1.19-.18-.39a5.49,5.49,0,0,0-2.4-.42A8.82,8.82,0,0,0,300.4,307.3Z" transform="translate(-299.04 -275.04)"/><path class="cls-1" d="M304.65,307.37l.18.38,2.45-1.19a5.1,5.1,0,0,0,0-.67c0-.1,0-.2,0-.3s0-.18,0-.26c0-.33-.07-.53-.07-.53a7.55,7.55,0,0,0-1.12.71A3.78,3.78,0,0,0,304.65,307.37Z" transform="translate(-299.04 -275.04)"/><path class="cls-1" d="M303.75,305l0-.08a2.18,2.18,0,0,1-.06-.22c-.06-.19-.13-.43-.19-.67-.12-.5-.23-1-.23-1l0-.11-.05-.27c0-.12-.05-.26-.07-.4a1.43,1.43,0,0,1,0-.22l0-.23c0-.31-.09-.62-.11-.86l0-.38s0-.13,0-.32,0-.44,0-.7,0-.5,0-.69v-.32s0-.15,0-.39,0-.54.06-.86c0-.15,0-.31,0-.45a3.62,3.62,0,0,1,.05-.4c0-.23,0-.39,0-.39l0-.09c0-.05,0-.13,0-.22s.08-.44.13-.69,0-.25.07-.36,0-.22.07-.32a3,3,0,0,0,.07-.31s0-.15.11-.37.14-.53.23-.83.2-.59.28-.81l.14-.37s0-.09.09-.23.13-.33.22-.51c.16-.37.33-.73.33-.73l-.5-.24-.34.75c-.09.19-.16.38-.22.52s-.09.24-.09.24l-.15.38-.28.83c-.1.31-.18.62-.25.85s-.1.39-.1.39l-.07.32c0,.09-.05.2-.08.32s-.05.25-.08.38-.09.51-.12.7a1.59,1.59,0,0,0,0,.23.62.62,0,0,0,0,.09l-.05.4c0,.12,0,.26-.05.41s0,.31,0,.47c0,.32-.06.64-.06.88s0,.4,0,.4,0,.13,0,.32,0,.46,0,.72,0,.52,0,.71,0,.33,0,.33,0,.16,0,.4l.11.87,0,.24a2.23,2.23,0,0,1,0,.23c0,.15.05.29.08.41s0,.21,0,.28l0,.11s.11.51.23,1c.07.25.14.5.2.69s.05.18.06.23l0,.08.12.38c.08.23.18.54.3.84l.18.44a1.67,1.67,0,0,0,.08.2c0,.06,0,.12.07.17l.17.37.18.39.5-.24-.18-.38-.16-.36-.08-.17c0-.06,0-.13-.07-.2s-.11-.28-.17-.42c-.12-.29-.21-.59-.29-.81Z" transform="translate(-299.04 -275.04)"/><path class="cls-1" d="M316.8,279.23l.06,0,.18,0,.55-.16c.19-.06.4-.1.55-.14l.25-.06-.61-2.66a4.55,4.55,0,0,0-.69.62,2.8,2.8,0,0,0-.48.75A1.86,1.86,0,0,0,316.8,279.23Z" transform="translate(-299.04 -275.04)"/><path class="cls-1" d="M319.12,282l-.61-2.66-.24.06c-.15,0-.34.07-.54.13l-.53.15-.17.05-.07,0a2.16,2.16,0,0,0,.78,1.55,3.07,3.07,0,0,0,.66.42A4.87,4.87,0,0,0,319.12,282Z" transform="translate(-299.04 -275.04)"/><path class="cls-1" d="M314.7,276.4s-.28.15-.66.41l-.31.22c-.11.08-.21.18-.32.27a5.52,5.52,0,0,0-.64.64,3.24,3.24,0,0,0-.78,1.57,1.85,1.85,0,0,0,.56,1.6l.29-.16.28-.17.35-.17.63-.33.3-.13a5.47,5.47,0,0,0,.42-2.39A8.87,8.87,0,0,0,314.7,276.4Z" transform="translate(-299.04 -275.04)"/><path class="cls-1" d="M317.2,283.21a7.55,7.55,0,0,0-.71-1.12,3.84,3.84,0,0,0-1.86-1.44l-.29.14c-.17.07-.39.19-.62.31l-.33.17-.28.16-.28.16a2.18,2.18,0,0,0,1.07,1.31,3.86,3.86,0,0,0,1.47.38,5.45,5.45,0,0,0,.69,0h.59A3.51,3.51,0,0,0,317.2,283.21Z" transform="translate(-299.04 -275.04)"/><path class="cls-1" d="M309.88,278.82l-.16.14a5.39,5.39,0,0,0-.4.41c-.15.17-.33.38-.5.61a7.2,7.2,0,0,0-.48.77,4.4,4.4,0,0,0-.33.85,2.77,2.77,0,0,0-.09.85,1.87,1.87,0,0,0,.92,1.43l.23-.22.54-.47.56-.45.25-.2.06-.3,0-.3a4.28,4.28,0,0,0,0-.62,7.44,7.44,0,0,0-.21-1.21A8.12,8.12,0,0,0,309.88,278.82Z" transform="translate(-299.04 -275.04)"/><path class="cls-1" d="M313.84,284.9a7.36,7.36,0,0,0-.95-.94,5.41,5.41,0,0,0-1-.66,4.53,4.53,0,0,0-.57-.23l-.29-.07-.29,0-.25.19c-.15.12-.35.27-.54.44l-.52.46-.23.22a2.09,2.09,0,0,0,1.33,1,2.85,2.85,0,0,0,.76.11,5.45,5.45,0,0,0,1.44-.19l.56-.15.39-.14Z" transform="translate(-299.04 -275.04)"/><path class="cls-1" d="M305.73,282.24a6.52,6.52,0,0,0-.43.66,7.86,7.86,0,0,0-.35.71c-.06.13-.12.27-.17.41s-.09.3-.13.44a4.78,4.78,0,0,0-.14.91,3,3,0,0,0,.11.85,1.85,1.85,0,0,0,1.2,1.19l.61-.84.44-.57.15-.18.05-.07a3.68,3.68,0,0,0-.19-1.21,7.83,7.83,0,0,0-.46-1.13A9.66,9.66,0,0,0,305.73,282.24Z" transform="translate(-299.04 -275.04)"/><path class="cls-1" d="M310.93,287.3a7.78,7.78,0,0,0-1.13-.71,5.43,5.43,0,0,0-1.11-.42,2.83,2.83,0,0,0-1.19-.07l-.06.07-.14.18-.43.55-.59.82a2.19,2.19,0,0,0,1.53.72,2.8,2.8,0,0,0,.77-.07,4,4,0,0,0,.72-.21l.33-.15.31-.14a3.9,3.9,0,0,0,.51-.28A4.58,4.58,0,0,0,310.93,287.3Z" transform="translate(-299.04 -275.04)"/><path class="cls-1" d="M302.42,286.5s-.11.28-.25.71a6.9,6.9,0,0,0-.3,1.61l2.46,1.19.19-.39a5.29,5.29,0,0,0-1.16-2.13c-.24-.3-.48-.54-.65-.72S302.42,286.5,302.42,286.5Z" transform="translate(-299.04 -275.04)"/><path class="cls-1" d="M305,289.88l-.19.37,2.45,1.18a8.41,8.41,0,0,0,1-.77,3.38,3.38,0,0,0,.37-.39l-.36-.14a6.67,6.67,0,0,0-.89-.29A3.78,3.78,0,0,0,305,289.88Z" transform="translate(-299.04 -275.04)"/><path class="cls-1" d="M306.28,287.72l.59-.82.43-.55.14-.18.06-.07.25-.29.27-.3c.09-.12.2-.22.31-.34s.43-.45.6-.61l.29-.27.23-.22.52-.46c.19-.17.39-.32.54-.44l.25-.19.08-.07.23-.17c.19-.13.44-.32.7-.49l.73-.47.24-.14.09-.05.28-.16.28-.16.33-.17c.23-.12.45-.24.62-.31l.29-.14.35-.16.18-.08.2-.07.42-.17c.29-.12.59-.21.81-.29l.37-.13.07,0,.17-.05.53-.15c.2-.06.39-.1.54-.13l.24-.06-.12-.54-.25.06c-.15,0-.36.08-.55.14l-.55.16-.18,0-.06,0-.38.13c-.23.08-.54.17-.84.29l-.44.18-.2.08-.17.08-.37.16-.3.13-.63.33-.35.17-.28.17-.29.16-.09.05-.25.15-.75.48-.72.51-.23.17-.09.07-.25.2-.56.45-.54.47-.23.22-.29.28c-.18.16-.4.4-.62.63s-.23.23-.32.35l-.27.31-.27.3-.05.07-.15.18-.44.57-.61.84-.22.34c-.12.2-.31.47-.46.75l-.23.41a3.42,3.42,0,0,0-.2.36l-.19.35-.19.39.5.24.19-.37.18-.35a2.45,2.45,0,0,1,.19-.35l.23-.4c.14-.27.33-.53.45-.73Z" transform="translate(-299.04 -275.04)"/><path class="cls-1" d="M334.59,281.82l.67.48.45.34.2.16,1.71-2.13a5.07,5.07,0,0,0-.92-.16,2.8,2.8,0,0,0-.88.1A1.81,1.81,0,0,0,334.59,281.82Z" transform="translate(-299.04 -275.04)"/><path class="cls-1" d="M333.87,285.37l1.7-2.13-.2-.16c-.12-.09-.27-.22-.44-.33l-.65-.47a2.13,2.13,0,0,0-.72,1.57,2.87,2.87,0,0,0,.08.78A5.34,5.34,0,0,0,333.87,285.37Z" transform="translate(-299.04 -275.04)"/><path class="cls-1" d="M335.5,278.42s-.3-.12-.74-.26l-.36-.1L334,278a6.52,6.52,0,0,0-.9-.1,3.16,3.16,0,0,0-1.72.37,1.8,1.8,0,0,0-.89,1.43l.3.13.31.12.35.15.64.31.29.14a5.38,5.38,0,0,0,2.14-1.16,8.44,8.44,0,0,0,.71-.65A3.74,3.74,0,0,0,335.5,278.42Z" transform="translate(-299.04 -275.04)"/><path class="cls-1" d="M331.73,284.62s.06-.13.14-.36a6.67,6.67,0,0,0,.29-.89,3.78,3.78,0,0,0,0-2.35l-.28-.15-.63-.29-.34-.15-.3-.12-.29-.12a2.09,2.09,0,0,0-.36,1.65,3.56,3.56,0,0,0,.61,1.39,6.23,6.23,0,0,0,.41.56l.21.23a2,2,0,0,0,.18.21A4.48,4.48,0,0,0,331.73,284.62Z" transform="translate(-299.04 -275.04)"/><path class="cls-1" d="M330.6,276.16l-.21,0-.25,0-.32,0c-.23,0-.5,0-.79,0a5.67,5.67,0,0,0-.9.11,3.69,3.69,0,0,0-.45.11,3,3,0,0,0-.42.16,2.61,2.61,0,0,0-.72.46,1.87,1.87,0,0,0-.55,1.61h.09l.23,0,.7.12.38.08.32.08.32.07a3.93,3.93,0,0,0,1-.7,7.63,7.63,0,0,0,.82-.92A8,8,0,0,0,330.6,276.16Z" transform="translate(-299.04 -275.04)"/><path class="cls-1" d="M328.31,283.05a7.34,7.34,0,0,0,.14-1.33,5.31,5.31,0,0,0-.09-1.18,2.85,2.85,0,0,0-.46-1.1l-.31-.08-.32-.07-.36-.08-.69-.12-.22,0-.09,0a2.09,2.09,0,0,0,0,1.69,2.94,2.94,0,0,0,.39.67c.08.1.17.19.25.28a3.38,3.38,0,0,0,.26.27,6.7,6.7,0,0,0,.53.45l.48.35.19.12.15.1Z" transform="translate(-299.04 -275.04)"/><path class="cls-1" d="M325.33,275s-.32,0-.78.09l-.37.06-.41.1a7.19,7.19,0,0,0-.85.3,4.41,4.41,0,0,0-.79.46,3,3,0,0,0-.33.28,2,2,0,0,0-.26.34,1.8,1.8,0,0,0-.19,1.68l.33,0c.19,0,.45,0,.71,0l.71,0h.33a4,4,0,0,0,.82-.91,7.62,7.62,0,0,0,.6-1.07A11,11,0,0,0,325.33,275Z" transform="translate(-299.04 -275.04)"/><path class="cls-1" d="M324.63,282.26a7.81,7.81,0,0,0-.16-1.31,5,5,0,0,0-.36-1.14,2.85,2.85,0,0,0-.69-1h-.32c-.19,0-.44,0-.69,0s-.51,0-.7,0l-.32,0a2.16,2.16,0,0,0,.4,1.65,2.26,2.26,0,0,0,.25.29,3.45,3.45,0,0,0,.28.26,4.06,4.06,0,0,0,.62.43c.21.12.42.24.62.33l.29.11.25.11A4.07,4.07,0,0,0,324.63,282.26Z" transform="translate(-299.04 -275.04)"/><path class="cls-1" d="M319.94,275.13l-.2.05-.51.18a7.48,7.48,0,0,0-1.45.78l.61,2.66.42-.1a3.53,3.53,0,0,0,.6-1.06c.08-.2.14-.4.2-.6s.1-.39.14-.57A7.83,7.83,0,0,0,319.94,275.13Z" transform="translate(-299.04 -275.04)"/><path class="cls-1" d="M318.92,279.25l-.41.09.61,2.66a7.11,7.11,0,0,0,1.2.26c.16,0,.3.05.39.05l.15,0a7.81,7.81,0,0,0-.45-1.26l-.26-.52a4.52,4.52,0,0,0-.34-.51A2.92,2.92,0,0,0,318.92,279.25Z" transform="translate(-299.04 -275.04)"/><path class="cls-1" d="M321.39,278.9l.32,0c.19,0,.44,0,.7,0s.5,0,.69,0h.71c.23,0,.54,0,.86.06l.45,0,.4.05.39,0,.09,0,.22,0,.69.12.36.08.32.07.31.08s.15,0,.37.1l.83.23.81.28.37.14.29.12.3.12.34.15.63.29.28.15.35.18.35.19.4.23c.27.15.53.33.73.45l.33.21.65.47c.17.11.32.24.44.33l.2.16.34-.44-.2-.16-.45-.34-.67-.48-.34-.21c-.2-.13-.47-.31-.75-.47l-.41-.23a3.42,3.42,0,0,0-.36-.2l-.36-.19-.29-.14-.64-.31-.35-.15-.31-.12-.3-.13-.38-.14-.83-.28-.85-.25c-.23-.07-.39-.1-.39-.1l-.32-.07-.32-.08-.38-.08-.7-.12-.23,0H326l-.4-.05-.41-.05-.47,0c-.32,0-.64-.06-.88-.06h-.73l-.71,0c-.26,0-.52,0-.71,0l-.33,0-.4,0-.88.11-.23,0-.23,0-.41.07-.28.06h-.11l-.42.1.12.54.41-.09.11,0,.27-.05.4-.08.22,0,.23,0,.85-.11Z" transform="translate(-299.04 -275.04)"/><path class="cls-1" d="M343.65,297.35s0,.1,0,.26,0,.36,0,.57l0,.82h2.73a5.42,5.42,0,0,0-.46-.82,3.24,3.24,0,0,0-.29-.34,2.13,2.13,0,0,0-.33-.28A1.83,1.83,0,0,0,343.65,297.35Z" transform="translate(-299.04 -275.04)"/><path class="cls-1" d="M340.44,299h2.72s0-.4,0-.8c0-.21,0-.4,0-.55a2.18,2.18,0,0,1,0-.26,2.18,2.18,0,0,0-1.68.42l-.29.26a2.44,2.44,0,0,0-.27.29A5,5,0,0,0,340.44,299Z" transform="translate(-299.04 -275.04)"/><path class="cls-1" d="M346.87,296s0-.08-.06-.21a4,4,0,0,0-.19-.54,6.17,6.17,0,0,0-.82-1.48,3.08,3.08,0,0,0-1.35-1.12,1.81,1.81,0,0,0-1.68.2l0,.08c0,.05,0,.13.06.23s.13.43.2.69c.12.5.23,1,.23,1a3.71,3.71,0,0,0,1.07.6c.2.08.4.14.6.2s.39.1.57.14A8.58,8.58,0,0,0,346.87,296Z" transform="translate(-299.04 -275.04)"/><path class="cls-1" d="M339.67,296.86a7.81,7.81,0,0,0,1.26-.45c.17-.08.35-.16.52-.26a4.52,4.52,0,0,0,.51-.34,2.92,2.92,0,0,0,.79-.89s-.11-.49-.23-1c-.06-.24-.13-.48-.19-.67a2.18,2.18,0,0,0-.06-.22.24.24,0,0,0,0-.08,2.16,2.16,0,0,0-1.51.75,3.86,3.86,0,0,0-.71,1.34,8.11,8.11,0,0,0-.28,1.25c0,.17-.05.31-.05.4S339.67,296.86,339.67,296.86Z" transform="translate(-299.04 -275.04)"/><path class="cls-1" d="M345.6,290.7s-.15-.28-.41-.66l-.22-.31c-.08-.11-.18-.21-.27-.32a5.52,5.52,0,0,0-.64-.64,3.35,3.35,0,0,0-1.57-.79,1.88,1.88,0,0,0-1.6.57l.16.29.17.28c.06.11.11.23.17.35l.33.63c.07.18.13.3.13.3a5.47,5.47,0,0,0,2.39.42A8.87,8.87,0,0,0,345.6,290.7Z" transform="translate(-299.04 -275.04)"/><path class="cls-1" d="M338.79,293.2a7.55,7.55,0,0,0,1.12-.71,3.76,3.76,0,0,0,1.43-1.86,2.94,2.94,0,0,0-.12-.29c-.08-.17-.2-.39-.32-.62l-.17-.33-.16-.28c-.09-.17-.16-.28-.16-.28a2.21,2.21,0,0,0-1.31,1.07,3.86,3.86,0,0,0-.38,1.47c0,.24,0,.48,0,.7s0,.21,0,.3,0,.19,0,.28C338.75,293,338.79,293.2,338.79,293.2Z" transform="translate(-299.04 -275.04)"/><path class="cls-1" d="M343.18,285.88l-.15-.16c-.09-.1-.23-.24-.4-.4s-.38-.33-.61-.5a8.36,8.36,0,0,0-.77-.48,4.4,4.4,0,0,0-.85-.33,2.77,2.77,0,0,0-.85-.09,1.9,1.9,0,0,0-1.44.92l.23.23.47.54c.17.2.33.41.45.56l.2.25.3.06.3,0a4.3,4.3,0,0,0,.62,0,7.44,7.44,0,0,0,1.21-.21A8.12,8.12,0,0,0,343.18,285.88Z" transform="translate(-299.04 -275.04)"/><path class="cls-1" d="M337.1,289.84a7.36,7.36,0,0,0,.94-.95,5.5,5.5,0,0,0,.66-1,2.72,2.72,0,0,0,.22-.56,2.46,2.46,0,0,0,.07-.29,1.43,1.43,0,0,0,0-.29l-.19-.25c-.12-.15-.27-.35-.45-.54l-.45-.53-.22-.22a2.09,2.09,0,0,0-1,1.32,3,3,0,0,0-.11.77,4.57,4.57,0,0,0,.05.75,4.07,4.07,0,0,0,.14.68q.08.33.15.57c.06.16.1.3.14.39Z" transform="translate(-299.04 -275.04)"/><path class="cls-1" d="M339.76,281.73s-.25-.19-.63-.42c-.2-.11-.43-.22-.69-.34l-.4-.16-.42-.14-1.71,2.13.17.14.17.13a3.68,3.68,0,0,0,1.21-.19,7.83,7.83,0,0,0,1.13-.46A9.66,9.66,0,0,0,339.76,281.73Z" transform="translate(-299.04 -275.04)"/><path class="cls-1" d="M335.9,283.5l-.17-.14-.16-.12-1.7,2.13c0,.11.09.21.14.32a2.59,2.59,0,0,0,.14.29c.09.19.19.35.27.49s.28.46.28.46a7.78,7.78,0,0,0,.71-1.13,5.43,5.43,0,0,0,.42-1.11A2.83,2.83,0,0,0,335.9,283.5Z" transform="translate(-299.04 -275.04)"/><path class="cls-1" d="M337.71,285.22l.22.22.45.53c.18.19.33.39.45.54l.19.25.07.08.17.23.49.7.47.73a2.36,2.36,0,0,1,.14.24.44.44,0,0,1,.05.09s.07.11.16.28l.16.28.17.33c.12.23.24.45.32.62a2.94,2.94,0,0,1,.12.29l.17.35a1.42,1.42,0,0,0,.08.18,1.46,1.46,0,0,0,.07.19c.06.14.11.29.17.43.12.29.21.59.29.81s.12.37.12.37a.24.24,0,0,1,0,.08,2.18,2.18,0,0,1,.06.22c.06.19.13.43.19.67.12.5.23,1,.23,1s0,0,0,.11l.05.27c0,.12.05.26.07.4a1.7,1.7,0,0,1,0,.22l0,.23.11.86c0,.23,0,.38,0,.38a2.18,2.18,0,0,0,0,.26c0,.15,0,.34,0,.55,0,.4,0,.8,0,.8h.56l0-.82c0-.21,0-.42,0-.57s0-.26,0-.26,0-.16,0-.4l-.11-.88,0-.23c0-.08,0-.16,0-.23s-.05-.29-.08-.41,0-.21,0-.28l0-.11s-.11-.51-.23-1c-.07-.26-.14-.5-.2-.69s-.05-.18-.06-.23l0-.08s0-.16-.13-.38-.17-.54-.29-.84l-.18-.44a1.67,1.67,0,0,0-.08-.2l-.08-.18c-.1-.21-.16-.36-.16-.36s-.06-.12-.13-.3l-.33-.63c-.06-.12-.11-.24-.17-.35l-.17-.28-.16-.29-.05-.09-.15-.25c-.13-.2-.3-.48-.48-.75l-.51-.72-.17-.23-.07-.09-.2-.25c-.12-.15-.28-.36-.45-.56l-.47-.54-.23-.23s-.1-.12-.27-.29-.4-.4-.63-.62-.23-.23-.35-.32l-.31-.27-.3-.27-.17-.13-.17-.14-.34.44.16.12.17.14.29.25.3.27c.12.09.22.2.34.31s.45.43.61.6Z" transform="translate(-299.04 -275.04)"/></svg>