<svg id="Layer_1" data-name="Layer 1" xmlns="http://www.w3.org/2000/svg" viewBox="0 0 77.83 78.19"><defs><style>.cls-1{fill:#3b150e;}</style></defs><path class="cls-1" d="M410.63,282.73c0-.22-.07-.43-.12-.64a7.4,7.4,0,0,0-.32-1.15,5.16,5.16,0,0,0-2.1-2.63,4.35,4.35,0,0,0-.89-.43l-.36-.1a4.19,4.19,0,0,0-.08.42,4.77,4.77,0,0,0-.05.48c0,.18,0,.39,0,.62a9.62,9.62,0,0,0,.5,3.47,20.16,20.16,0,0,0,.89,2.07c.33.69.71,1.37,1,2s.61,1.13.83,1.51l.34.6a1.63,1.63,0,0,1,.05-.22c0-.14.08-.36.13-.62s.09-.57.15-.92c0-.18.06-.36.07-.55s0-.4.05-.61c0-.41.06-.84.07-1.29s0-.89-.06-1.34C410.68,283.16,410.66,282.94,410.63,282.73Z" transform="translate(-334.08 -237.91)"/><path class="cls-1" d="M404.15,278.2c-.17.08-.36.19-.56.31s-.4.26-.61.42a7.39,7.39,0,0,0-.61.54l-.3.31-.14.18-.15.17a7.46,7.46,0,0,0-.54.8c-.09.14-.17.29-.25.44s-.17.29-.25.44-.3.59-.43.89-.29.58-.41.85-.11.27-.17.39-.12.25-.17.37-.19.43-.26.6l-.1.24a1.38,1.38,0,0,1-.08.17l-.06.15.58-.18a13,13,0,0,0,1.4-.57l.43-.21.22-.12.21-.12c.29-.17.58-.36.87-.56s.29-.21.43-.32l.2-.16.2-.18a7,7,0,0,0,.7-.74,5.55,5.55,0,0,0,1.2-3.09,4.19,4.19,0,0,0,0-.6c0-.18,0-.34,0-.47s-.06-.4-.06-.4a2.75,2.75,0,0,0-.37.09A6.15,6.15,0,0,0,404.15,278.2Z" transform="translate(-334.08 -237.91)"/><path class="cls-1" d="M408.41,289a5.18,5.18,0,0,0-.59-1.86A5,5,0,0,0,407,286a3.24,3.24,0,0,0-.42-.36,4.06,4.06,0,0,0-.35-.25c-.2-.12-.33-.18-.33-.18a.39.39,0,0,0,0,.1.89.89,0,0,0-.05.13,1.19,1.19,0,0,0-.08.16,9.78,9.78,0,0,0-.35,1.05c0,.11-.05.23-.08.35s-.06.24-.08.37a6.9,6.9,0,0,0-.12.83,3.44,3.44,0,0,0,0,.46c0,.16,0,.31,0,.47a7.18,7.18,0,0,0,.05,1c0,.18.06.36.08.54s.05.36.09.55c.07.37.15.75.24,1.12,0,.1.05.19.07.29l.07.27c0,.19.09.37.14.55.09.36.18.71.28,1,.05.16.09.32.14.48l.12.44c.08.27.15.52.2.73.12.42.21.67.21.67l.36-.78c.22-.48.47-1.18.73-2,0-.1.07-.2.1-.3s.05-.21.08-.31.11-.43.16-.64.1-.44.14-.66a3,3,0,0,0,.06-.32c0-.11,0-.23.05-.34.06-.44.09-.88.11-1.3,0-.21,0-.42,0-.62A5.16,5.16,0,0,0,408.41,289Z" transform="translate(-334.08 -237.91)"/><path class="cls-1" d="M404.1,284.88l-.42.05-.54.1a6.25,6.25,0,0,0-1.31.46,2.31,2.31,0,0,0-.35.18l-.36.21a5.76,5.76,0,0,0-.73.52c-.25.19-.46.42-.71.65s-.45.49-.67.75l-.32.38c-.11.13-.22.25-.31.38s-.2.26-.29.38l-.15.19-.14.18c-.18.23-.35.45-.5.66l-.1.15-.11.14-.19.24-.35.5s.23,0,.6-.06c.19,0,.42,0,.67-.08s.55-.09.84-.16.6-.15.93-.25l.49-.16.49-.19a10.22,10.22,0,0,0,.94-.46,6.07,6.07,0,0,0,.86-.56,5.61,5.61,0,0,0,1.85-2.75,7.1,7.1,0,0,0,.22-1.05,1.11,1.11,0,0,0,0-.17.53.53,0,0,1,0-.13v-.1Z" transform="translate(-334.08 -237.91)"/><path class="cls-1" d="M405.16,294.42a4.26,4.26,0,0,0-.11-.42,5,5,0,0,0-.62-1.33,5.71,5.71,0,0,0-.62-.75,2.5,2.5,0,0,0-.29-.24,6.34,6.34,0,0,0-.8,1.31,7.5,7.5,0,0,0-.59,1.46c-.05.14-.09.28-.13.43l-.12.46c-.06.32-.11.66-.14,1a12,12,0,0,0-.06,1.49c0,.16,0,.32,0,.48v.48c0,.32,0,.63,0,.95,0,.61.08,1.21.11,1.73s.07.95.1,1.26.05.49.05.49.31-.4.74-1c.11-.16.24-.33.35-.52s.24-.4.36-.61a12.26,12.26,0,0,0,.73-1.4,12.48,12.48,0,0,0,.73-1.89,8,8,0,0,0,.35-1.84,7.08,7.08,0,0,0,0-1C405.21,294.73,405.19,294.57,405.16,294.42Z" transform="translate(-334.08 -237.91)"/><path class="cls-1" d="M401.87,291a6.5,6.5,0,0,0-1-.05,5.91,5.91,0,0,0-1.36.19l-.38.1-.41.13a7.17,7.17,0,0,0-.81.36l-.3.17-.3.19a4.89,4.89,0,0,0-.6.41,3.15,3.15,0,0,0-.29.22l-.3.22-.57.47-.23.2a2.11,2.11,0,0,1-.23.19l-.44.38-.39.35-.35.31c-.21.18-.38.34-.5.46l-.14.13-.05,0,.12,0,.31,0c.27,0,.66.06,1.12.07.24,0,.49,0,.75,0l.81-.06.87-.11.43-.09.43-.11a8.48,8.48,0,0,0,1.25-.47,6.55,6.55,0,0,0,.81-.51l.35-.28c.11-.1.22-.2.31-.3a5.86,5.86,0,0,0,1.44-2.6Z" transform="translate(-334.08 -237.91)"/><path class="cls-1" d="M411.86,279.9c0-.2,0-.41,0-.63s0-.23,0-.35,0-.24,0-.36c-.06-.49-.13-1-.23-1.56a17.43,17.43,0,0,0-.52-1.95,10.61,10.61,0,0,0-.8-1.69,3.47,3.47,0,0,0-.31-.44q-.17-.21-.33-.39a5.29,5.29,0,0,0-.67-.61,4.14,4.14,0,0,0-.65-.44,6.16,6.16,0,0,0-.62-.27,4.58,4.58,0,0,0-1-.24,3.17,3.17,0,0,0-.37,0,3.33,3.33,0,0,0,0,.42c0,.14,0,.3,0,.49s0,.39.07.61.09.48.15.73.07.26.11.4.07.27.12.41a6.66,6.66,0,0,0,.34.86c.06.15.15.3.22.45a5.05,5.05,0,0,0,.25.45,11.17,11.17,0,0,0,.83,1.24c.36.51.77,1,1.17,1.51l.29.35.28.35.53.63.83,1a2.33,2.33,0,0,1,.24.27l.08.09a.31.31,0,0,0,0-.09v-.25C411.88,280.6,411.88,280.28,411.86,279.9Z" transform="translate(-334.08 -237.91)"/><path class="cls-1" d="M402.22,293.24c.07-.12.14-.23.2-.35l.19-.38c.26-.5.54-1,.78-1.59l.39-.85.36-.9c.05-.15.11-.3.17-.45l.09-.22.08-.24.32-.93c.05-.16.11-.31.15-.47s.09-.31.13-.47l.27-.94c.08-.31.15-.62.22-.93,0-.16.07-.31.11-.46s.07-.31.1-.46c.05-.3.1-.6.16-.89,0-.14.05-.29.07-.43s0-.14,0-.21l0-.22c0-.27.07-.55.1-.81s0-.26.05-.39,0-.25,0-.37c0-.49.07-.94.1-1.34,0-.2,0-.39,0-.56s0-.33,0-.47c0-.58,0-.91,0-.91s0-.33,0-.9c0-.15,0-.3,0-.48s0-.36,0-.56c0-.4-.06-.85-.1-1.34,0-.12,0-.24,0-.37s0-.26-.05-.39-.07-.54-.1-.81l0-.22c0-.07,0-.14,0-.21s-.05-.29-.07-.43c-.06-.29-.11-.59-.16-.89s-.07-.31-.1-.46-.07-.3-.11-.46c-.07-.31-.14-.62-.22-.93l-.27-.94c0-.16-.09-.31-.13-.47s-.1-.31-.15-.47l-.32-.93-.08-.24-.09-.22c-.06-.15-.12-.3-.17-.45l-.36-.9-.39-.85c-.24-.57-.52-1.09-.78-1.59l-.19-.38c-.06-.12-.13-.23-.2-.35l-.38-.66c-.24-.43-.49-.81-.7-1.15s-.4-.63-.57-.86l-.53-.74-.13-.19c-.09-.13-.23-.3-.41-.53l-.64-.81c-.25-.31-.55-.65-.87-1l-.25-.29-.27-.28-.57-.59c-.1-.11-.19-.21-.3-.31s-.21-.2-.31-.31l-.66-.62-.17-.16-.18-.15c-.11-.11-.23-.21-.35-.31l-.73-.63-.77-.6c-.13-.1-.25-.21-.38-.3l-.4-.29-.8-.57a4.81,4.81,0,0,0-.41-.27l-.41-.27-.41-.26-.4-.25-.82-.47a32.18,32.18,0,0,0-3-1.5l-.33-.15-.32-.13-.59-.23c-.38-.15-.7-.28-1-.37l-.86-.29-.22-.07c-.15-.06-.36-.11-.64-.19l-1-.29-.3-.07-.32-.08-.68-.16-.37-.08-.39-.07-.81-.15-.42-.07c-.14,0-.29,0-.43-.06l-.9-.11-.46-.06-.48,0-1-.07-.24,0H374l-1,0-1,0h-.74l-.24,0-1,.07-.48,0-.46.06-.9.11c-.14,0-.29,0-.43.06l-.42.07-.81.15-.39.07-.37.08-.68.16-.32.08-.3.07-1,.29c-.27.08-.49.13-.64.19l-.22.07-.86.29c-.27.09-.59.22-1,.37l-.59.23-.32.13-.33.15a33.46,33.46,0,0,0-3,1.5l-.82.47-.4.25-.41.26-.41.27a4.81,4.81,0,0,0-.41.27l-.8.57-.4.29c-.13.09-.25.2-.38.3l-.77.6-.73.63c-.12.1-.24.2-.35.31l-.18.15-.17.16-.66.62c-.1.11-.21.21-.31.31s-.2.2-.3.31l-.57.59-.27.28-.25.29c-.32.37-.62.71-.87,1l-.64.81c-.18.23-.32.4-.41.53l-.13.19-.53.74c-.17.23-.35.53-.57.86s-.46.72-.7,1.15l-.38.66c-.07.12-.14.23-.2.35l-.19.38c-.26.5-.54,1-.78,1.59l-.39.85-.36.9a4.22,4.22,0,0,1-.18.45l-.08.22-.08.24-.32.93c-.05.16-.11.31-.15.47s-.09.31-.13.47l-.27.94c-.08.31-.15.62-.22.93,0,.16-.07.31-.11.46s-.07.3-.1.46-.1.6-.16.89c0,.14-.05.29-.08.43a1.52,1.52,0,0,1,0,.21l0,.22c0,.27-.07.55-.1.81s0,.26-.05.39,0,.25,0,.37c0,.49-.07.94-.1,1.34,0,.2,0,.39,0,.56s0,.33,0,.48c0,.57,0,.9,0,.9s0,.33,0,.91c0,.14,0,.29,0,.47s0,.36,0,.56c0,.4.06.85.1,1.34,0,.12,0,.24,0,.37s0,.26.05.39.07.54.1.81l0,.22a1.52,1.52,0,0,1,0,.21c0,.14.06.29.08.43.06.29.11.59.16.89,0,.15.07.31.1.46s.07.3.11.46c.07.31.14.62.22.93l.27.94c0,.16.08.32.13.47s.1.31.15.47l.32.93.08.24.08.22a4.22,4.22,0,0,1,.18.45l.36.9.39.85c.24.57.52,1.09.78,1.59l.19.38c.06.12.13.23.2.35l.38.66c.24.44.49.81.7,1.15s.4.63.57.86l.53.74.13.19c.09.13.23.31.41.53l.64.82.87,1,.25.29.27.28.57.6.3.3c.1.1.21.2.31.31l.66.62a1.29,1.29,0,0,0,.17.16,1.3,1.3,0,0,0,.18.15l.35.31c.24.21.48.43.73.63l.77.6c.13.1.25.21.38.3l.4.29.8.57.41.28.41.26.41.26.4.25.82.47a31,31,0,0,0,3,1.5l.33.15.32.13.59.23c.38.15.7.28,1,.37l.86.29.22.07c.15.06.37.11.64.19l1,.29.3.07.32.08.68.15.37.09.39.07.81.15.42.07c.14,0,.29,0,.43.06l.9.11.46.06.48,0,1,.07.24,0H372l1,0,1,0h.74l.24,0,1-.07.48,0,.46-.06.9-.11c.14,0,.29,0,.43-.06l.42-.07.81-.15.39-.07.37-.09.68-.15.32-.08.3-.07,1-.29c.28-.08.49-.13.64-.19l.22-.07.86-.29c.27-.09.59-.22,1-.37l.59-.23.32-.13.33-.15a29.88,29.88,0,0,0,3-1.5l.82-.47.4-.25.41-.26.41-.26.41-.28.8-.57.4-.29c.13-.09.25-.2.38-.3l.77-.6c.25-.2.49-.42.73-.63l.35-.31.18-.15.17-.16.66-.62c.1-.11.21-.21.31-.31l.3-.3.57-.6.27-.28.25-.29.87-1,.64-.82c.18-.22.32-.4.41-.53l.13-.19.53-.74c.17-.23.35-.53.57-.86s.46-.71.7-1.15Zm-1.39,1.61c-.22.33-.4.63-.56.85l-.52.73-.14.19c-.08.13-.22.3-.4.53l-.63.8c-.25.31-.55.64-.87,1l-.24.28-.27.28-.56.59-.29.31-.32.29-.65.63-.17.15-.17.15-.35.31-.72.62-.76.59-.38.3-.4.29-.79.56c-.13.1-.27.18-.4.27l-.41.26-.4.26c-.14.08-.26.17-.4.24l-.81.47c-1.05.6-2.08,1.09-3,1.49l-.33.14-.31.13-.59.23a9.31,9.31,0,0,1-1,.36l-.84.29-.22.07c-.15.06-.36.11-.64.19l-1,.28-.3.08-.31.07-.68.16-.37.08-.38.07-.8.14-.41.08-.43.06-.89.11-.46.06-.47,0-.94.07-.24,0H374l-1,0-1,0h-.73l-.24,0-.94-.07-.47,0-.46-.06-.89-.11-.43-.06-.41-.08-.8-.14-.38-.07-.37-.08-.68-.16-.31-.07-.3-.08-1-.28c-.27-.08-.48-.13-.63-.19l-.22-.07-.85-.29c-.27-.08-.59-.21-.95-.36l-.59-.23-.31-.13-.33-.14c-.89-.4-1.92-.89-3-1.49l-.8-.47c-.14-.07-.27-.16-.4-.24l-.4-.26-.41-.26c-.13-.09-.27-.17-.4-.27l-.79-.56-.4-.29-.38-.3-.76-.59-.72-.62-.35-.31-.18-.15-.16-.15-.65-.63-.32-.29-.29-.31-.56-.59-.27-.28-.24-.28c-.32-.37-.62-.7-.87-1l-.63-.8c-.18-.23-.32-.4-.4-.53l-.14-.19s-.19-.26-.51-.73c-.18-.22-.35-.52-.57-.85s-.46-.71-.69-1.13l-.39-.66-.19-.35c-.06-.12-.13-.24-.19-.37-.25-.49-.53-1-.77-1.57-.13-.28-.25-.56-.38-.85s-.24-.58-.35-.88l-.18-.45-.09-.22-.08-.23c-.1-.3-.2-.61-.31-.92s-.11-.31-.15-.46-.09-.32-.13-.47l-.27-.93c-.08-.31-.14-.62-.22-.93,0-.15-.07-.3-.1-.45s-.07-.3-.1-.45-.1-.59-.16-.88c0-.14-.05-.29-.07-.43a1.55,1.55,0,0,1,0-.21l0-.21c0-.27-.06-.54-.1-.8s0-.26-.05-.39,0-.25,0-.37c0-.49-.07-.93-.1-1.32,0-.2,0-.39,0-.56s0-.33,0-.47c0-.56,0-.89,0-.89s0-.33,0-.89c0-.15,0-.3,0-.47s0-.36,0-.56c0-.39.07-.83.1-1.32,0-.12,0-.25,0-.37s0-.26.05-.39.07-.53.1-.8l0-.21a1.55,1.55,0,0,1,0-.21c0-.14,0-.28.07-.43s.11-.58.16-.88.07-.3.1-.45.07-.3.1-.46.14-.61.22-.92l.27-.93c0-.15.08-.31.13-.47s.1-.31.15-.46c.11-.31.21-.61.31-.92l.08-.23.09-.22.18-.45c.11-.3.23-.59.35-.88s.25-.57.38-.85c.24-.56.52-1.08.77-1.57.06-.13.13-.25.19-.37l.19-.35.39-.66c.23-.42.48-.8.69-1.13s.39-.63.57-.85c.32-.47.51-.73.51-.73l.14-.19c.08-.13.22-.3.4-.53l.63-.8.87-1,.24-.28.27-.28.56-.59.29-.3.32-.3.65-.62.16-.16.18-.15.35-.31.72-.62.76-.59.38-.3.4-.29.79-.56c.13-.1.27-.18.4-.27l.41-.26.4-.26.4-.25.8-.46c1.06-.6,2.09-1.09,3-1.49l.33-.14.31-.13.59-.23c.36-.15.68-.28.95-.36l.85-.29.22-.07c.15-.06.36-.11.63-.19l1-.28.3-.08.31-.07.68-.16.37-.08.38-.07.8-.14.41-.08.43-.06.89-.11.46-.06.47,0,.94-.07.24,0H372l1,0,1,0h.73l.24,0,.94.07.47,0,.46.06.89.11.43.06.41.08.8.14.38.07.37.08.68.16.31.07.3.08,1,.28c.28.08.49.13.64.19l.22.07.84.29a9.31,9.31,0,0,1,1,.36l.59.23.31.13.33.14c.89.4,1.92.89,3,1.49l.81.46.4.25.4.26.41.26c.13.09.27.17.4.27l.79.56.4.29.38.3.76.59.72.62.35.31.17.15a1.29,1.29,0,0,1,.17.16l.65.62.32.3.29.3.56.59.27.28.24.28.87,1,.63.8c.18.23.32.4.4.53l.14.19.52.73c.16.22.34.52.56.85s.46.71.69,1.13c.13.21.25.43.38.66s.14.23.2.35.13.24.19.37c.25.49.53,1,.77,1.57.13.28.25.56.38.85s.23.58.35.88l.18.45.09.22.08.23c.1.31.2.61.31.92l.15.46c0,.16.09.32.13.47l.27.93c.08.31.14.62.22.92s.07.31.1.46.07.3.1.45.1.59.16.88.05.29.07.43,0,.14,0,.21,0,.14,0,.21c0,.27.07.54.11.8s0,.26,0,.39a2.33,2.33,0,0,1,0,.37c0,.49.08.93.11,1.32,0,.2,0,.39,0,.56s0,.32,0,.47c0,.56,0,.89,0,.89s0,.33,0,.89c0,.14,0,.3,0,.47s0,.36,0,.56c0,.39-.07.83-.11,1.32a2.33,2.33,0,0,1,0,.37c0,.13,0,.26,0,.39s-.07.53-.11.8c0,.07,0,.14,0,.21s0,.14,0,.21,0,.29-.07.43c-.06.29-.11.58-.16.88s-.07.3-.1.45-.07.3-.1.45c-.08.31-.14.62-.22.93l-.27.93c0,.15-.08.31-.13.47l-.15.46c-.11.31-.21.62-.31.92l-.08.23-.09.22-.18.45c-.12.3-.23.59-.35.88s-.25.57-.38.85c-.24.56-.52,1.08-.77,1.57-.06.13-.13.25-.19.37a4,4,0,0,1-.2.35c-.13.23-.25.45-.38.66C401.29,294.14,401,294.52,400.83,294.85Z" transform="translate(-334.08 -237.91)"/><path class="cls-1" d="M400.62,298.68a4.29,4.29,0,0,0-.47-.86,2.21,2.21,0,0,0-.23-.29s-.12.1-.31.29-.21.21-.33.35l-.4.48c-.14.17-.29.37-.44.59l-.22.35c-.07.12-.14.25-.22.37a9.18,9.18,0,0,0-.41.83l-.18.46c-.05.17-.12.32-.17.5a10.22,10.22,0,0,0-.28,1.06c0,.19-.07.38-.11.56s-.07.38-.11.56c-.07.39-.13.76-.18,1.14,0,.18-.05.37-.08.55s-.05.35-.07.52c-.1.67-.17,1.28-.22,1.71l-.08.68.18-.14c.11-.09.26-.25.46-.43s.42-.4.66-.66.26-.25.39-.4l.39-.45c.27-.32.54-.65.81-1s.51-.74.74-1.11a10.79,10.79,0,0,0,.61-1.16q.13-.29.24-.57a3.92,3.92,0,0,0,.18-.55,6,6,0,0,0,.19-1.94A5.18,5.18,0,0,0,400.62,298.68Z" transform="translate(-334.08 -237.91)"/><path class="cls-1" d="M397.5,296.28a6.33,6.33,0,0,0-1.37-.1,6.18,6.18,0,0,0-1.68.27,7.2,7.2,0,0,0-.92.32l-.45.2-.46.22c-.3.14-.6.3-.88.46l-.83.45-.37.23a3.9,3.9,0,0,0-.35.19c-.22.12-.41.24-.57.34l-.22.13-.16.09-.14.09s.21.08.58.19a15.13,15.13,0,0,0,1.47.36,11.17,11.17,0,0,0,2,.2,7.75,7.75,0,0,0,2.06-.23l.47-.14.43-.19a7,7,0,0,0,.77-.44,2.85,2.85,0,0,0,.33-.25l.29-.26c.19-.17.36-.35.51-.51a4.61,4.61,0,0,0,.36-.48l.25-.4c.12-.22.18-.36.18-.36a3.56,3.56,0,0,0-.34-.14A5.18,5.18,0,0,0,397.5,296.28Z" transform="translate(-334.08 -237.91)"/><path class="cls-1" d="M394.9,303.29a3.3,3.3,0,0,0-.16-.33l-.1.05-.26.16a7.86,7.86,0,0,0-.91.65l-.26.23a3.47,3.47,0,0,0-.29.25c-.2.18-.39.38-.59.6s-.19.23-.29.36a3.65,3.65,0,0,0-.29.37,6.53,6.53,0,0,0-.55.85c-.17.32-.35.64-.51,1s-.31.7-.46,1.05c-.07.19-.15.36-.22.54l-.21.52-.38,1c-.12.33-.24.62-.33.89s-.19.52-.27.72c-.14.41-.23.65-.23.65l.75-.41.38-.23c.13-.07.27-.17.42-.27s.62-.42.95-.66.67-.52,1-.81l.49-.45.25-.23.23-.24c.31-.33.59-.66.85-1l.19-.25.17-.26.29-.5a6.27,6.27,0,0,0,.41-1,5.68,5.68,0,0,0,.2-.9,5,5,0,0,0,0-1.45A4.89,4.89,0,0,0,394.9,303.29Z" transform="translate(-334.08 -237.91)"/><path class="cls-1" d="M393.15,301.44l-.49-.23a6.33,6.33,0,0,0-1.33-.4,2.63,2.63,0,0,0-.39-.06l-.42,0a5.25,5.25,0,0,0-.89,0,10.65,10.65,0,0,0-1.94.33l-.24.06-.25.06-.48.12-.45.14-.45.13c-.29.08-.55.17-.79.25l-.34.1-.3.09c-.35.11-.56.2-.56.2s.18.12.51.31l.59.32.36.18c.13.06.27.13.41.18a13.19,13.19,0,0,0,1.9.64c.34.07.68.13,1,.17l.52,0h.51a5.73,5.73,0,0,0,.95-.13l.44-.11c.14,0,.27-.1.4-.15s.5-.23.73-.35l.32-.19.27-.21a7.09,7.09,0,0,0,.8-.71l.19-.23.06-.09a2.11,2.11,0,0,0-.3-.21Z" transform="translate(-334.08 -237.91)"/><path class="cls-1" d="M389.21,308.15a4.37,4.37,0,0,0-.06-1,2.11,2.11,0,0,0-.09-.36,6.46,6.46,0,0,0-1.41.59,7.92,7.92,0,0,0-1.34.83,9.15,9.15,0,0,0-.72.58,8.38,8.38,0,0,0-.71.74,11.23,11.23,0,0,0-.93,1.16l-.55.79c-.17.26-.35.52-.52.79l-.93,1.46c-.28.44-.51.82-.67,1.08s-.25.43-.25.43.49-.14,1.21-.4c.19-.07.39-.13.6-.22l.65-.29.7-.32.36-.18.36-.2c.29-.17.59-.34.87-.52s.29-.18.42-.28l.41-.3c.26-.21.51-.42.74-.63l.33-.32.29-.33a7.39,7.39,0,0,0,.59-.86,5,5,0,0,0,.38-.83A4.68,4.68,0,0,0,389.21,308.15Z" transform="translate(-334.08 -237.91)"/><path class="cls-1" d="M388.13,305.29a5.79,5.79,0,0,0-.76-.62,6.56,6.56,0,0,0-1.22-.65L386,304l-.19-.07-.4-.13a5.57,5.57,0,0,0-.87-.18,14.64,14.64,0,0,0-2.89,0l-.3,0-.3,0-.58,0-.52.06-.46,0c-.57,0-.93.11-.93.11s.11.11.32.29a10.29,10.29,0,0,0,.86.72q.27.22.6.45l.69.43c.25.14.5.28.77.41l.4.19.41.16a8.83,8.83,0,0,0,1.29.35,5.16,5.16,0,0,0,.95.06,4.91,4.91,0,0,0,.88-.07,7.49,7.49,0,0,0,1.45-.47,6,6,0,0,0,1.23-.8A2.19,2.19,0,0,0,388.13,305.29Z" transform="translate(-334.08 -237.91)"/><path class="cls-1" d="M382,312.14a5.09,5.09,0,0,0,.56-1.36,4,4,0,0,0,.13-1,2.21,2.21,0,0,0,0-.37l-.43.05-.47.09-.6.15a8,8,0,0,0-1.48.55,9.25,9.25,0,0,0-.83.42l-.42.27-.21.15-.21.15c-.29.21-.57.45-.86.7l-.84.78c-.55.53-1.09,1.09-1.56,1.59s-.89.92-1.19,1.24l-.46.51s.32,0,.85-.09l.92-.13c.35-.06.73-.15,1.14-.24l.61-.15c.1,0,.21-.05.31-.09l.32-.1c.42-.14.85-.29,1.26-.46l.6-.27c.2-.1.39-.2.57-.31l.53-.31.25-.17.22-.18A5.84,5.84,0,0,0,382,312.14Z" transform="translate(-334.08 -237.91)"/><path class="cls-1" d="M381.5,307a7.16,7.16,0,0,0-1.06-.88,6,6,0,0,0-1.52-.77,6.57,6.57,0,0,0-.92-.28l-.49-.11-.25,0-.24-.05-1-.15-.48-.06-.46-.06-.43,0-.39-.05-.67-.07-.6,0,.35.49c.23.29.56.71,1,1.16l.16.17.17.17.36.33c.25.23.52.45.8.66a4.37,4.37,0,0,0,.44.31,3.35,3.35,0,0,0,.45.27,7.1,7.1,0,0,0,.92.45l.23.09.23.07.46.1a5.52,5.52,0,0,0,.88.1,6.79,6.79,0,0,0,1.51-.16,3.49,3.49,0,0,0,.57-.18l.43-.17a3.79,3.79,0,0,0,.37-.19l-.2-.32A6.74,6.74,0,0,0,381.5,307Z" transform="translate(-334.08 -237.91)"/><path class="cls-1" d="M374.08,313.25a5,5,0,0,0,.84-1.18,4.35,4.35,0,0,0,.34-.93,2.27,2.27,0,0,0,.07-.37l-.42,0-.48,0a4.5,4.5,0,0,0-.63,0,7,7,0,0,0-.74.07c-.26,0-.53.07-.82.13a8.76,8.76,0,0,0-.9.25,8.67,8.67,0,0,0-.95.36,10.24,10.24,0,0,0-1,.51c-.33.17-.66.37-1,.57s-.66.4-1,.61l-.91.59c-.57.37-1.07.72-1.43,1l-.57.39.23,0,.62.07.94.06a10.93,10.93,0,0,0,1.16,0l1.29-.06c.11,0,.22,0,.33,0l.34,0,.66-.11.64-.13.32-.07.3-.09a11.12,11.12,0,0,0,1.13-.44c.16-.08.32-.16.47-.25s.29-.19.42-.29A5.94,5.94,0,0,0,374.08,313.25Z" transform="translate(-334.08 -237.91)"/><path class="cls-1" d="M374.68,308.14a6.9,6.9,0,0,0-.84-1.11,6.76,6.76,0,0,0-2.16-1.55l-.45-.22-.47-.2c-.62-.23-1.25-.49-1.81-.67l-.41-.14-.38-.14-.63-.2-.42-.14-.15,0s.08.21.23.57l.13.28.16.32c.12.23.25.48.41.74s.33.54.52.82.41.54.64.81.48.52.73.76a5.9,5.9,0,0,0,.81.63,5.06,5.06,0,0,0,.84.47,7.41,7.41,0,0,0,.84.27,6.39,6.39,0,0,0,.79.15,6,6,0,0,0,.72,0,5.47,5.47,0,0,0,.6,0,4.12,4.12,0,0,0,.46-.07c.25-.06.39-.11.39-.11a2.55,2.55,0,0,0-.12-.35A6.8,6.8,0,0,0,374.68,308.14Z" transform="translate(-334.08 -237.91)"/><path class="cls-1" d="M365.48,313.37a2.88,2.88,0,0,0,.47-.19,5.3,5.3,0,0,0,.79-.45,4.65,4.65,0,0,0,.61-.49l.25-.25.21-.25a5,5,0,0,0,.52-.84,3.27,3.27,0,0,0,.14-.35l-.41-.12-.21-.05-.26-.06a4.39,4.39,0,0,0-.61-.12c-.23,0-.47-.06-.74-.07a7.33,7.33,0,0,0-.83,0,7.5,7.5,0,0,0-.93.06,7.4,7.4,0,0,0-1,.16c-.47.11-1,.26-1.43.41-.31.09-.61.2-.91.31l-.45.17-.23.09-.22.08-1.61.64-1.17.48-.45.19.33.12.38.13.51.14c.37.1.81.22,1.29.33l.38.08.39.06c.26,0,.53.08.8.12l.5.06.51,0c.34,0,.68,0,1,0h.49l.48-.06c.31,0,.61-.1.88-.16A5.36,5.36,0,0,0,365.48,313.37Z" transform="translate(-334.08 -237.91)"/><path class="cls-1" d="M368.36,307.84c-.07-.18-.16-.39-.25-.6s-.22-.43-.35-.65a7.34,7.34,0,0,0-1.07-1.33,14.54,14.54,0,0,0-2.32-1.72l-.51-.32-.25-.15-.13-.07-.12-.07c-.31-.2-.6-.37-.85-.51l-.18-.09-.15-.1-.26-.15-.22-.12s0,.16.08.43.06.3.1.48.05.19.08.3l.09.31a13,13,0,0,0,.54,1.47,8,8,0,0,0,.38.78c.13.25.29.51.45.76a6.13,6.13,0,0,0,.83,1,6,6,0,0,0,.73.63,7.55,7.55,0,0,0,.77.44,5.86,5.86,0,0,0,.75.3,6.91,6.91,0,0,0,.69.17,5,5,0,0,0,.6.08l.25,0h.21a3.44,3.44,0,0,0,.41,0s0-.14-.05-.37A6,6,0,0,0,368.36,307.84Z" transform="translate(-334.08 -237.91)"/><path class="cls-1" d="M357.76,311.15l.54,0a4,4,0,0,0,.5-.09,6.69,6.69,0,0,0,.86-.28,5.28,5.28,0,0,0,1.25-.76,4.74,4.74,0,0,0,.68-.71c.14-.19.21-.31.21-.31a3.36,3.36,0,0,0-.38-.2,6.81,6.81,0,0,0-1-.45l-.34-.12-.37-.11c-.25-.07-.52-.14-.81-.2l-.45-.07-.23,0-.24,0a8.23,8.23,0,0,0-1-.05l-.55,0-.56,0c-.37,0-.75.08-1.14.14l-1.13.17-1.06.18-1.69.32-.68.14s.27.17.74.43l.37.21.46.22c.32.15.67.32,1,.48l.14.07.15.05.3.11.62.22c.21.08.42.14.64.21l.65.16c.44.1.87.18,1.28.24A8.32,8.32,0,0,0,357.76,311.15Z" transform="translate(-334.08 -237.91)"/><path class="cls-1" d="M361.9,304.92a5.79,5.79,0,0,0-.32-.73,6.25,6.25,0,0,0-.45-.78,18.44,18.44,0,0,0-2.66-2.84c-.22-.21-.43-.4-.62-.56l-.26-.24-.23-.21c-.28-.25-.46-.39-.46-.39s0,.22,0,.6c0,.19,0,.42,0,.68s0,.26,0,.4,0,.29.05.44.1.62.16.95a9.37,9.37,0,0,0,.26,1c.11.33.23.66.37,1,.08.16.15.32.23.47s.17.29.26.43a5.69,5.69,0,0,0,.59.76l.16.17.17.15.33.27a7.86,7.86,0,0,0,.67.45l.33.17.31.14a8.41,8.41,0,0,0,1,.32l.41.05a2.89,2.89,0,0,0,0-.37,5.18,5.18,0,0,0-.06-1A6.27,6.27,0,0,0,361.9,304.92Z" transform="translate(-334.08 -237.91)"/><path class="cls-1" d="M352.56,307a5.26,5.26,0,0,0,.76-.2c.23-.09.44-.18.62-.27a4,4,0,0,0,.82-.55,2.85,2.85,0,0,0,.27-.25,2.65,2.65,0,0,0-.32-.28,3.61,3.61,0,0,0-.38-.3c-.07-.06-.16-.11-.24-.17l-.27-.19c-.19-.12-.4-.26-.63-.38s-.49-.24-.75-.37a8.76,8.76,0,0,0-.87-.34l-.48-.13-.5-.13c-.35-.07-.72-.13-1.09-.17l-.29,0-.28,0-.57-.05c-.39,0-.77-.06-1.15-.08l-.55,0-.52,0-1.73-.06-.69,0,.17.17.19.18.27.24c.2.17.44.38.72.6l.43.35.49.35c.34.23.7.48,1.08.71s.78.44,1.18.64l.6.28.6.22a8.12,8.12,0,0,0,1.16.32A6.07,6.07,0,0,0,352.56,307Z" transform="translate(-334.08 -237.91)"/><path class="cls-1" d="M356.06,302.18c0-.13,0-.26,0-.39a6.67,6.67,0,0,0-.41-1.64,6.35,6.35,0,0,0-.41-.88c-.07-.15-.16-.29-.24-.43s-.17-.3-.26-.45a4.94,4.94,0,0,0-.27-.42l-.13-.21-.07-.1-.07-.1c-.18-.28-.35-.54-.53-.78s-.33-.48-.47-.69l-.39-.53-.09-.11-.06-.1-.11-.15-.1-.13s-.06.22-.14.59c0,.19-.08.41-.12.66s-.08.53-.1.84a9.71,9.71,0,0,0-.06,1c0,.33,0,.68,0,1l.06.53a2.34,2.34,0,0,0,0,.26,2.38,2.38,0,0,0,.05.26,6.16,6.16,0,0,0,.28,1c.05.16.12.31.18.46s.15.28.23.41a6.58,6.58,0,0,0,.51.72,3.87,3.87,0,0,0,.56.58,6.9,6.9,0,0,0,.56.45l.26.18.25.14a3.21,3.21,0,0,0,.41.21l.38.15a3.73,3.73,0,0,0,.11-.36,6.3,6.3,0,0,0,.16-1c0-.19,0-.41,0-.64S356.07,302.29,356.06,302.18Z" transform="translate(-334.08 -237.91)"/><path class="cls-1" d="M344.22,301.44c.28.14.55.27.81.38l.51.18.5.12a5,5,0,0,0,.9.1,4.89,4.89,0,0,0,.78,0,5.06,5.06,0,0,0,.66-.14,5.23,5.23,0,0,0,.92-.37c.21-.12.32-.2.32-.2s-.09-.13-.26-.34l-.14-.17a1.77,1.77,0,0,1-.17-.2l-.43-.45a7,7,0,0,0-.55-.5l-.31-.26-.35-.26a6.65,6.65,0,0,0-.79-.49,6.31,6.31,0,0,0-.9-.46c-.22-.1-.45-.18-.68-.27l-.18-.06-.18-.06-.36-.12-.91-.28-.93-.25c-.59-.17-1.17-.31-1.67-.43l-.37-.09-.33-.08-.53-.13-.48-.11.2.29a8.48,8.48,0,0,0,.55.74c.24.31.53.66.86,1,.16.19.35.37.53.56l.58.57.37.34.4.32c.27.21.54.42.81.61l.4.27Z" transform="translate(-334.08 -237.91)"/><path class="cls-1" d="M351.35,296.61a3.87,3.87,0,0,0-.06-.46,13.68,13.68,0,0,0-.87-2.75c-.07-.2-.15-.39-.23-.57s-.16-.35-.23-.53c-.13-.34-.27-.65-.39-.9s-.11-.25-.16-.36-.08-.19-.12-.27l-.11-.23s-.07.14-.18.39-.13.28-.2.46-.15.38-.22.59a15.49,15.49,0,0,0-.43,1.5,8.13,8.13,0,0,0-.15.86c0,.29-.06.58-.08.88,0,.11,0,.23,0,.34v.17c0,.06,0,.11,0,.16,0,.23,0,.44.07.66a5.27,5.27,0,0,0,.22.93,7.59,7.59,0,0,0,.36.81l.21.36a2.57,2.57,0,0,0,.22.32,5.34,5.34,0,0,0,.46.55c.15.16.3.3.43.42l.2.16.17.13.34.22a2.9,2.9,0,0,0,.18-.33,6,6,0,0,0,.34-.9,6.86,6.86,0,0,0,.25-1.37,5.41,5.41,0,0,0,0-.81C351.38,296.9,351.37,296.76,351.35,296.61Z" transform="translate(-334.08 -237.91)"/><path class="cls-1" d="M340.6,295.67a5.26,5.26,0,0,0,.92.5,4.61,4.61,0,0,0,.87.28,4.77,4.77,0,0,0,1.45.12,4.33,4.33,0,0,0,1-.18,1.77,1.77,0,0,0,.36-.13s-.06-.14-.19-.38a8,8,0,0,0-.56-1,10.34,10.34,0,0,0-1-1.23,9.44,9.44,0,0,0-1.47-1.28l-.46-.3-.47-.29c-.32-.19-.66-.38-1-.56l-1-.52-1-.48-1.56-.74-.63-.29.35.79c.05.11.12.25.18.39s.16.29.24.44q.25.48.57,1A12.39,12.39,0,0,0,340.6,295.67Z" transform="translate(-334.08 -237.91)"/><path class="cls-1" d="M347.84,290.42c0-.33-.06-.67-.11-1,0-.08,0-.16-.05-.24l0-.25c0-.17,0-.33-.08-.49-.06-.32-.14-.63-.19-.92-.1-.59-.24-1.09-.3-1.46s-.14-.59-.14-.59-.14.17-.36.48-.24.35-.37.56-.15.23-.22.35l-.22.38q-.21.4-.42.87l-.21.47-.09.25a2.25,2.25,0,0,0-.08.24c-.11.33-.2.68-.28,1a4.54,4.54,0,0,0-.09.51,4.45,4.45,0,0,0-.05.5,5.28,5.28,0,0,0,.23,1.83,5,5,0,0,0,.62,1.38,7.18,7.18,0,0,0,.63.86,2.7,2.7,0,0,0,.3.28,3.29,3.29,0,0,0,.24-.28,7.65,7.65,0,0,0,.52-.82,6.53,6.53,0,0,0,.52-1.29,5.77,5.77,0,0,0,.17-.79,6.23,6.23,0,0,0,.09-.89,3.68,3.68,0,0,0,0-.47Z" transform="translate(-334.08 -237.91)"/><path class="cls-1" d="M336.52,287.14a8.14,8.14,0,0,0,.75.94,5.73,5.73,0,0,0,1.58,1.15l.36.17.37.12a6.75,6.75,0,0,0,.66.15,5,5,0,0,0,1,0,2.89,2.89,0,0,0,.37,0,3.44,3.44,0,0,0-.09-.42c-.06-.26-.19-.62-.34-1.05a5.32,5.32,0,0,0-.29-.68c-.05-.12-.12-.24-.19-.37s-.12-.25-.2-.38a7.7,7.7,0,0,0-.5-.77c-.1-.14-.2-.27-.31-.4s-.22-.26-.33-.39a22.14,22.14,0,0,0-1.63-1.56c-.29-.25-.59-.5-.88-.73l-.43-.35-.41-.33c-.53-.43-1-.8-1.36-1.07l-.4-.31-.15-.11a2.32,2.32,0,0,1,0,.23c0,.14.07.35.13.62s.14.56.22.9c0,.17.09.35.15.54s.12.38.19.57c.14.39.28.8.45,1.21s.38.82.58,1.21a5.39,5.39,0,0,0,.32.58Q336.34,286.89,336.52,287.14Z" transform="translate(-334.08 -237.91)"/><path class="cls-1" d="M345,286.34l.15-.4c0-.14.08-.29.13-.44a9.19,9.19,0,0,0,.19-.94c0-.17,0-.33.05-.5l.06-.5c0-.34,0-.67.05-1s0-.64,0-.94c0-.14,0-.29,0-.43s0-.27,0-.4,0-.47,0-.66a3.52,3.52,0,0,1,0-.44v-.17l-.12.11a2.4,2.4,0,0,0-.34.29A12.27,12.27,0,0,0,344.2,281a10.77,10.77,0,0,0-1.2,1.6,7.58,7.58,0,0,0-.85,1.89,4.81,4.81,0,0,0-.12.48,3.87,3.87,0,0,0-.06.46,5.32,5.32,0,0,0,0,.89c0,.14,0,.28,0,.41s.05.27.08.39a5.71,5.71,0,0,0,.19.69,4.76,4.76,0,0,0,.44,1l.21.34a2.48,2.48,0,0,0,.3-.22,6.08,6.08,0,0,0,.69-.68c.13-.16.26-.33.39-.52s.13-.19.2-.29l.2-.33C344.81,286.85,344.93,286.61,345,286.34Z" transform="translate(-334.08 -237.91)"/><path class="cls-1" d="M342.73,281.7c.16-.16.34-.34.51-.53a5.65,5.65,0,0,0,.49-.66c.08-.11.16-.24.23-.36s.07-.14.11-.2l.11-.21a7.72,7.72,0,0,0,.52-1.32,12.5,12.5,0,0,0,.39-1.42c.12-.4.21-.8.29-1.16a2,2,0,0,1,.05-.26l.06-.25c0-.16.07-.32.1-.46s.1-.51.13-.67l0-.25-.38.21c-.24.14-.57.34-.95.6l-.6.44-.32.26-.31.27A13.35,13.35,0,0,0,342,277a8.39,8.39,0,0,0-.72,1.11c-.08.15-.15.3-.22.45s-.1.3-.15.44a7.6,7.6,0,0,0-.19.87c0,.14,0,.27-.05.41s0,.26,0,.39a5.16,5.16,0,0,0,.05.71,4.68,4.68,0,0,0,.1.6c0,.17.09.32.13.44s.14.39.14.39a3.62,3.62,0,0,0,.34-.16,6.34,6.34,0,0,0,.81-.53C342.4,282,342.56,281.85,342.73,281.7Z" transform="translate(-334.08 -237.91)"/><path class="cls-1" d="M335.37,271.27c0,.22.07.43.11.64a8.26,8.26,0,0,0,.33,1.15,5.11,5.11,0,0,0,2.1,2.63,4.35,4.35,0,0,0,.89.43l.36.1a4.19,4.19,0,0,0,.08-.42,4.77,4.77,0,0,0,.05-.48c0-.18,0-.39,0-.62a9.62,9.62,0,0,0-.5-3.47,20.16,20.16,0,0,0-.89-2.07c-.33-.69-.71-1.37-1-2s-.61-1.13-.83-1.51l-.34-.6-.05.22c0,.14-.08.36-.13.62s-.1.57-.15.93c0,.17-.06.35-.07.54s0,.4-.05.61c0,.41-.06.85-.07,1.29s0,.89.06,1.34C335.32,270.84,335.33,271.06,335.37,271.27Z" transform="translate(-334.08 -237.91)"/><path class="cls-1" d="M341.84,275.81c.18-.09.37-.2.57-.32s.4-.26.61-.42a7.39,7.39,0,0,0,.61-.54l.3-.31a1.15,1.15,0,0,1,.14-.17l.15-.19a7.87,7.87,0,0,0,.55-.79l.24-.43.25-.45c.16-.29.3-.6.44-.89s.28-.58.4-.85.11-.27.17-.39.12-.25.17-.37l.27-.6q0-.13.09-.24l.08-.17.06-.15-.58.18c-.36.13-.85.31-1.4.57l-.43.21-.22.11-.21.13c-.29.17-.58.36-.87.56l-.43.31-.2.17-.2.18a7,7,0,0,0-.7.74,5.55,5.55,0,0,0-1.2,3.09,4.23,4.23,0,0,0,0,.6c0,.18,0,.34,0,.47s.06.4.06.4a2.75,2.75,0,0,0,.37-.09A6.61,6.61,0,0,0,341.84,275.81Z" transform="translate(-334.08 -237.91)"/><path class="cls-1" d="M337.59,265a5.36,5.36,0,0,0,.59,1.86,5,5,0,0,0,.87,1.17l.41.36a3.47,3.47,0,0,0,.36.25c.2.12.33.18.33.18a.55.55,0,0,1,0-.1,1.39,1.39,0,0,1,.06-.13l.07-.16a9.78,9.78,0,0,0,.35-1.05c0-.11.05-.23.08-.35s.06-.24.08-.37a6.9,6.9,0,0,0,.12-.83,3.44,3.44,0,0,0,0-.46c0-.15,0-.31,0-.47a7.25,7.25,0,0,0-.05-1c0-.17-.06-.36-.08-.54s-.05-.36-.09-.55c-.07-.37-.15-.75-.24-1.12l-.08-.29-.06-.27c0-.19-.09-.37-.14-.55-.09-.36-.19-.71-.28-1-.05-.16-.09-.32-.14-.48l-.12-.44c-.08-.27-.15-.52-.2-.73-.13-.41-.2-.66-.2-.66s-.15.29-.37.77-.47,1.18-.73,2c0,.1-.07.2-.1.3s-.05.21-.08.31-.11.43-.16.64-.1.44-.14.66-.05.22-.07.32,0,.23,0,.34a11.79,11.79,0,0,0-.11,1.3c0,.21,0,.42,0,.62A5.16,5.16,0,0,0,337.59,265Z" transform="translate(-334.08 -237.91)"/><path class="cls-1" d="M341.9,269.12l.42-.05.54-.1a6.25,6.25,0,0,0,1.31-.46,2.31,2.31,0,0,0,.35-.18l.36-.21a6.87,6.87,0,0,0,.73-.51c.24-.2.46-.43.71-.66s.45-.49.67-.75l.32-.38.31-.38.29-.38.15-.19.14-.18c.18-.23.35-.45.5-.66l.1-.15.11-.14a3,3,0,0,0,.18-.24,6,6,0,0,0,.35-.5s-.22,0-.59.06c-.19,0-.42,0-.67.08s-.55.09-.84.16-.61.15-.93.25l-.49.16-.49.19a10.22,10.22,0,0,0-.94.46,5.31,5.31,0,0,0-.86.56,5.61,5.61,0,0,0-1.85,2.75,6,6,0,0,0-.22,1.05,1.11,1.11,0,0,0,0,.17.62.62,0,0,0,0,.13v.1Z" transform="translate(-334.08 -237.91)"/><path class="cls-1" d="M340.84,259.58a4.26,4.26,0,0,0,.11.42,5,5,0,0,0,.62,1.33,4.54,4.54,0,0,0,.62.75,2.5,2.5,0,0,0,.29.24,6.91,6.91,0,0,0,.8-1.31,8.18,8.18,0,0,0,.59-1.46c0-.14.09-.28.13-.43s.08-.3.11-.46a7.81,7.81,0,0,0,.15-1,11.64,11.64,0,0,0,.06-1.47v-.49c0-.16,0-.32,0-.48,0-.32,0-.63,0-.94,0-.62-.08-1.21-.12-1.74s-.07-1-.1-1.26,0-.49,0-.49-.31.4-.75,1c-.1.16-.23.33-.34.52s-.24.4-.36.61a15.32,15.32,0,0,0-.74,1.4,13.58,13.58,0,0,0-.72,1.89,8,8,0,0,0-.35,1.84,7.08,7.08,0,0,0,0,1C340.79,259.28,340.81,259.43,340.84,259.58Z" transform="translate(-334.08 -237.91)"/><path class="cls-1" d="M334.14,274.1q0,.3,0,.63a2.11,2.11,0,0,0,0,.35c0,.11,0,.24,0,.36.06.49.13,1,.23,1.56A17.43,17.43,0,0,0,335,279a9.81,9.81,0,0,0,.8,1.69,3.47,3.47,0,0,0,.31.44q.17.21.33.39a5.41,5.41,0,0,0,.67.62,4,4,0,0,0,.65.42,4.64,4.64,0,0,0,.62.28,4.58,4.58,0,0,0,1,.24,3.17,3.17,0,0,0,.37,0,3.33,3.33,0,0,0,0-.42c0-.14,0-.3,0-.48s0-.4-.07-.62-.09-.47-.15-.73-.07-.26-.11-.39l-.12-.42a6.66,6.66,0,0,0-.34-.86l-.22-.45c-.08-.15-.16-.3-.25-.45a11.17,11.17,0,0,0-.83-1.24c-.36-.51-.77-1-1.17-1.51l-.3-.35-.27-.35-.53-.63c-.34-.4-.62-.73-.83-1a3.4,3.4,0,0,1-.24-.28l-.08-.09a.31.31,0,0,0,0,.09v.25C334.12,273.4,334.12,273.72,334.14,274.1Z" transform="translate(-334.08 -237.91)"/><path class="cls-1" d="M345.38,255.32a4.29,4.29,0,0,0,.47.86,3,3,0,0,0,.22.29,3.69,3.69,0,0,0,.32-.29l.33-.35.4-.48c.14-.17.29-.37.44-.59l.22-.34L348,254a7.14,7.14,0,0,0,.42-.83c.06-.14.12-.3.18-.46s.12-.32.17-.5c.1-.33.2-.69.28-1.06,0-.19.07-.38.11-.56s.07-.38.11-.57c.07-.37.13-.75.18-1.13,0-.18.05-.37.07-.55s.06-.35.08-.52c.1-.67.17-1.27.22-1.71l.08-.68-.18.14-.46.43-.66.66c-.13.13-.26.25-.39.4l-.39.45c-.27.32-.55.65-.81,1s-.51.74-.74,1.12a8.5,8.5,0,0,0-.61,1.15q-.13.28-.24.57a4.4,4.4,0,0,0-.18.55,6,6,0,0,0-.19,1.94A5.18,5.18,0,0,0,345.38,255.32Z" transform="translate(-334.08 -237.91)"/><path class="cls-1" d="M356.32,254.64a15.13,15.13,0,0,0-1.47-.36,11.17,11.17,0,0,0-2-.2,7.75,7.75,0,0,0-2.06.23,3.68,3.68,0,0,0-.47.15c-.15,0-.29.12-.43.18a7,7,0,0,0-.77.44,2.85,2.85,0,0,0-.33.25l-.3.26c-.18.17-.35.34-.5.51a4.61,4.61,0,0,0-.36.48l-.25.4c-.12.22-.18.36-.18.36a3.56,3.56,0,0,0,.34.14,5.18,5.18,0,0,0,.95.24,6.33,6.33,0,0,0,1.37.1,6.18,6.18,0,0,0,1.68-.27,6.58,6.58,0,0,0,.91-.32l.46-.2.46-.22c.3-.14.6-.3.88-.46l.83-.45.37-.22.35-.2.57-.33.22-.14.16-.09.14-.08A5.87,5.87,0,0,0,356.32,254.64Z" transform="translate(-334.08 -237.91)"/><path class="cls-1" d="M351.1,250.7a3,3,0,0,0,.16.34l.1,0,.26-.16a6.21,6.21,0,0,0,.9-.65l.27-.23.29-.25c.2-.18.39-.38.59-.6s.19-.23.29-.35l.29-.37a9.05,9.05,0,0,0,.55-.86c.17-.32.35-.64.51-1s.31-.7.46-1.06c.07-.18.15-.35.22-.53l.21-.52c.14-.35.26-.69.38-1s.24-.62.34-.89.18-.52.26-.72l.22-.65-.74.41-.38.23c-.13.07-.27.17-.42.27-.3.2-.62.42-.95.66s-.67.52-1,.81l-.49.45-.25.23-.23.24c-.31.33-.59.66-.85,1l-.19.25-.17.26c-.1.17-.2.34-.29.51a5.53,5.53,0,0,0-.41,1,5.13,5.13,0,0,0-.2.89,5,5,0,0,0,0,1.45A4.56,4.56,0,0,0,351.1,250.7Z" transform="translate(-334.08 -237.91)"/><path class="cls-1" d="M352.85,252.56l.49.23a6.33,6.33,0,0,0,1.33.4,2.63,2.63,0,0,0,.39.06l.42,0a4.39,4.39,0,0,0,.89,0,10.5,10.5,0,0,0,1.94-.33l.24-.05a2.27,2.27,0,0,1,.25-.06l.48-.13.45-.14.45-.13.79-.25.34-.1.3-.09.57-.19s-.19-.13-.52-.32l-.59-.32-.37-.18c-.13-.06-.26-.13-.4-.18a13.19,13.19,0,0,0-1.9-.64c-.34-.07-.68-.13-1-.18l-.52,0h-.51a5.73,5.73,0,0,0-.95.13l-.44.11c-.14,0-.27.1-.4.15s-.51.23-.73.35l-.32.19-.27.21a7.09,7.09,0,0,0-.8.71,2.22,2.22,0,0,0-.19.23l-.07.09.31.21Z" transform="translate(-334.08 -237.91)"/><path class="cls-1" d="M356.78,245.85a4.94,4.94,0,0,0,.07,1,2.11,2.11,0,0,0,.09.36,6.46,6.46,0,0,0,1.41-.59,7.92,7.92,0,0,0,1.34-.83,7.32,7.32,0,0,0,.72-.58,7.19,7.19,0,0,0,.71-.74,11.23,11.23,0,0,0,.93-1.16l.54-.78.53-.8.93-1.46c.27-.44.5-.82.67-1.08s.25-.43.25-.43-.49.14-1.22.4c-.18.07-.38.13-.59.22l-.65.29c-.23.1-.46.2-.7.32l-.36.18-.36.2c-.29.17-.59.34-.87.52l-.43.28-.4.3c-.26.21-.51.42-.74.63s-.22.21-.33.32l-.29.33a6.7,6.7,0,0,0-.59.87,4,4,0,0,0-.38.82A5,5,0,0,0,356.78,245.85Z" transform="translate(-334.08 -237.91)"/><path class="cls-1" d="M357.87,248.71a5.79,5.79,0,0,0,.76.62,7.21,7.21,0,0,0,1.22.65l.18.06.19.08.4.13a7,7,0,0,0,.87.18,14.55,14.55,0,0,0,2.88,0l.31,0,.3,0,.58,0,.52-.06.46,0c.57-.05.93-.11.93-.11s-.11-.11-.32-.29a10.29,10.29,0,0,0-.86-.72c-.18-.15-.38-.29-.6-.45l-.69-.43c-.25-.14-.5-.28-.77-.41l-.4-.19-.41-.16a8.83,8.83,0,0,0-1.29-.35,5.16,5.16,0,0,0-.95-.06,5.1,5.1,0,0,0-.89.07,7.38,7.38,0,0,0-1.44.47,6,6,0,0,0-1.23.8A2.19,2.19,0,0,0,357.87,248.71Z" transform="translate(-334.08 -237.91)"/><path class="cls-1" d="M352.57,258.71l.14-.13,0,0-.11,0-.31,0c-.27,0-.66-.06-1.12-.07-.24,0-.49,0-.75,0l-.82.06-.86.12-.44.08-.42.11a8.48,8.48,0,0,0-1.25.47,6.55,6.55,0,0,0-.81.51l-.35.28c-.11.1-.22.2-.32.31a5.87,5.87,0,0,0-1.43,2.59l.37.07a6.5,6.5,0,0,0,1,.05,5.91,5.91,0,0,0,1.36-.19l.39-.1.39-.13a7.3,7.3,0,0,0,.82-.36l.3-.17.3-.19a4.89,4.89,0,0,0,.6-.41l.29-.22.3-.22.56-.47.24-.2.23-.19.44-.37.39-.36.35-.31C352.28,259,352.45,258.83,352.57,258.71Z" transform="translate(-334.08 -237.91)"/><path class="cls-1" d="M364,241.86a5.09,5.09,0,0,0-.56,1.36,4,4,0,0,0-.13,1,2.21,2.21,0,0,0,0,.37l.42-.05.48-.09.6-.15a8.31,8.31,0,0,0,1.48-.55,9.25,9.25,0,0,0,.83-.42l.42-.27.21-.15.21-.15c.29-.21.57-.45.86-.7l.84-.78c.55-.53,1.09-1.09,1.56-1.59s.89-.92,1.19-1.24l.46-.51s-.32,0-.85.09l-.92.13c-.35.06-.73.15-1.13.24l-.62.15-.31.09-.32.1c-.42.14-.85.29-1.26.46a6.46,6.46,0,0,0-.6.27c-.2.1-.39.2-.57.31s-.36.2-.53.31l-.25.17-.22.18A5.84,5.84,0,0,0,364,241.86Z" transform="translate(-334.08 -237.91)"/><path class="cls-1" d="M364.5,247a6.6,6.6,0,0,0,1.06.88,6,6,0,0,0,1.52.77,6.57,6.57,0,0,0,.92.28l.49.11.24,0,.25,0,1,.15c.16,0,.32,0,.48.06l.45.06.44,0,.39,0,.67.07.6,0s-.12-.19-.35-.49-.56-.71-1-1.16l-.16-.17-.17-.17-.36-.33c-.25-.23-.52-.45-.8-.66s-.29-.22-.44-.31a4,4,0,0,0-.44-.27,6.6,6.6,0,0,0-.93-.45l-.23-.09-.23-.07-.46-.1a5.52,5.52,0,0,0-.88-.1,6.72,6.72,0,0,0-1.51.16,5,5,0,0,0-.58.18l-.43.18a3.15,3.15,0,0,0-.36.18,3.67,3.67,0,0,0,.19.32A7,7,0,0,0,364.5,247Z" transform="translate(-334.08 -237.91)"/><path class="cls-1" d="M371.92,240.75a5,5,0,0,0-.84,1.18,5.25,5.25,0,0,0-.34.93,2.27,2.27,0,0,0-.07.37l.42,0,.48,0a4.5,4.5,0,0,0,.63,0,6.87,6.87,0,0,0,.73-.07c.27,0,.54-.07.83-.13a6.79,6.79,0,0,0,.9-.25,8.67,8.67,0,0,0,.95-.36,10.24,10.24,0,0,0,1-.51c.33-.17.66-.36,1-.56s.66-.41,1-.62l.91-.58,1.43-1,.56-.39-.22,0-.62-.07-.94-.06a10.93,10.93,0,0,0-1.16,0l-1.29.06-.33,0-.33,0-.67.11-.64.13-.32.07-.31.09a11.9,11.9,0,0,0-1.12.44,3.54,3.54,0,0,0-.47.26,3.07,3.07,0,0,0-.42.28A6.06,6.06,0,0,0,371.92,240.75Z" transform="translate(-334.08 -237.91)"/><path class="cls-1" d="M371.32,245.86a7.37,7.37,0,0,0,.84,1.11,7.73,7.73,0,0,0,1.31,1.09,6.86,6.86,0,0,0,.85.46l.45.22.46.2c.63.24,1.26.49,1.82.67l.41.15.38.13.63.2.42.14.15.05s-.08-.21-.23-.57l-.13-.28-.16-.32c-.12-.23-.26-.47-.41-.74s-.33-.54-.53-.82-.4-.54-.63-.81a10.59,10.59,0,0,0-.74-.76,6,6,0,0,0-.8-.63,5.9,5.9,0,0,0-.84-.47,8.12,8.12,0,0,0-.84-.27,6.2,6.2,0,0,0-.8-.15,5.77,5.77,0,0,0-.71,0,5.47,5.47,0,0,0-.6,0,4.12,4.12,0,0,0-.46.07l-.4.11s0,.13.13.35A5.66,5.66,0,0,0,371.32,245.86Z" transform="translate(-334.08 -237.91)"/><path class="cls-1" d="M380.52,240.62a4.15,4.15,0,0,0-.47.2,6,6,0,0,0-.8.45,6.51,6.51,0,0,0-.61.49l-.24.25-.21.25a5,5,0,0,0-.52.84,3.27,3.27,0,0,0-.14.35l.41.12.21.05.25.07c.19,0,.39.08.62.11a5.32,5.32,0,0,0,.73.07,5.77,5.77,0,0,0,.84,0,7.5,7.5,0,0,0,.93-.06,7.4,7.4,0,0,0,1-.16c.47-.1,1-.26,1.43-.41.31-.09.61-.2.91-.31l.45-.17.23-.09.21-.08,1.62-.63,1.17-.49.45-.19-.33-.12-.38-.12a4.5,4.5,0,0,0-.51-.15c-.37-.11-.81-.22-1.29-.33l-.38-.08-.39-.06-.8-.12-.5-.06-.51,0c-.34,0-.68,0-1,0a3.93,3.93,0,0,0-.49,0l-.48.05c-.31,0-.61.1-.88.16Z" transform="translate(-334.08 -237.91)"/><path class="cls-1" d="M377.65,246.16a5.35,5.35,0,0,0,.24.6c.1.21.22.43.35.66a7.21,7.21,0,0,0,1.07,1.32,14.45,14.45,0,0,0,2.31,1.72l.52.32.25.15.13.07.12.07c.31.2.6.37.85.51l.18.09.16.1.25.15.22.12-.08-.43c0-.13-.06-.29-.1-.48s-.05-.2-.08-.29l-.09-.32a13,13,0,0,0-.54-1.47,8,8,0,0,0-.38-.78c-.14-.25-.29-.51-.45-.76a6.13,6.13,0,0,0-.83-1,6,6,0,0,0-.73-.63,7.55,7.55,0,0,0-.77-.44,5.86,5.86,0,0,0-.75-.3,6.91,6.91,0,0,0-.69-.17l-.6-.09h-.46a3.44,3.44,0,0,0-.41,0s0,.14.05.37A5.23,5.23,0,0,0,377.65,246.16Z" transform="translate(-334.08 -237.91)"/><path class="cls-1" d="M388.24,242.85a4.56,4.56,0,0,0-.54,0,4,4,0,0,0-.5.09,6.33,6.33,0,0,0-.87.29,4.79,4.79,0,0,0-1.24.75,6,6,0,0,0-.68.71c-.14.19-.21.31-.21.31a3.36,3.36,0,0,0,.38.2,6.81,6.81,0,0,0,1,.45l.34.12.37.11a8,8,0,0,0,.81.2l.45.07.23,0,.24,0a6.74,6.74,0,0,0,1,0,5,5,0,0,0,.54,0l.56,0c.37,0,.75-.08,1.14-.14l1.13-.17,1.06-.19,1.69-.31.68-.14s-.27-.17-.74-.43l-.38-.21-.45-.22c-.32-.15-.67-.32-1-.48l-.14-.07-.15-.05-.3-.11-.62-.22-.64-.21-.65-.16a12.53,12.53,0,0,0-1.29-.23A7,7,0,0,0,388.24,242.85Z" transform="translate(-334.08 -237.91)"/><path class="cls-1" d="M384.1,249.08a5.79,5.79,0,0,0,.32.73,5.6,5.6,0,0,0,.45.78,18.44,18.44,0,0,0,2.66,2.84l.62.57.26.23a2.4,2.4,0,0,1,.23.21l.46.4s0-.23,0-.61c0-.19,0-.42,0-.67l0-.41c0-.14,0-.29-.05-.44,0-.3-.1-.62-.17-1a5.89,5.89,0,0,0-.26-1,8.33,8.33,0,0,0-.36-1c-.08-.16-.15-.32-.23-.47s-.17-.29-.26-.43a5.69,5.69,0,0,0-.59-.76l-.16-.17-.17-.15-.33-.27a5.9,5.9,0,0,0-.67-.44,2.68,2.68,0,0,0-.33-.18l-.32-.13a6.75,6.75,0,0,0-1-.33l-.41-.05s0,.14,0,.37a7.16,7.16,0,0,0,.4,2.32Z" transform="translate(-334.08 -237.91)"/><path class="cls-1" d="M393.44,247a5.73,5.73,0,0,0-1.38.47,4,4,0,0,0-.82.55,2.85,2.85,0,0,0-.27.25,3.78,3.78,0,0,0,.31.29l.39.29.24.17.27.19c.19.12.4.26.63.38s.49.24.75.37a8.76,8.76,0,0,0,.87.34l.48.13.5.13c.35.07.71.13,1.09.17l.29,0,.28,0,.57,0c.38,0,.77.06,1.15.08l.55,0,.52,0,1.73.06h.69l-.17-.16-.19-.18-.27-.24c-.2-.17-.44-.38-.72-.6l-.43-.35-.49-.35c-.34-.23-.7-.48-1.08-.71s-.78-.44-1.18-.64c-.2-.09-.39-.19-.6-.27s-.4-.16-.6-.23a8.37,8.37,0,0,0-1.15-.32A6.13,6.13,0,0,0,393.44,247Z" transform="translate(-334.08 -237.91)"/><path class="cls-1" d="M389.94,251.83l0,.38a7.83,7.83,0,0,0,.83,2.52l.24.44.26.43a3.87,3.87,0,0,0,.27.43l.13.21.07.1.07.1c.18.28.35.54.53.78s.33.48.47.69l.39.53.09.11.06.1.11.15.1.13s.06-.21.14-.59c0-.19.08-.41.12-.66s.08-.53.1-.84a9.71,9.71,0,0,0,.06-1c0-.33,0-.68,0-1,0-.17,0-.35-.05-.53s0-.17,0-.26a2.38,2.38,0,0,0-.05-.26,6.47,6.47,0,0,0-.28-1l-.18-.46c-.07-.14-.15-.28-.23-.41a6.58,6.58,0,0,0-.51-.72,3.87,3.87,0,0,0-.56-.58,6.9,6.9,0,0,0-.56-.45l-.26-.18-.25-.14a3.21,3.21,0,0,0-.41-.21l-.38-.15a3.73,3.73,0,0,0-.11.36,6.59,6.59,0,0,0-.16.95c0,.2,0,.42,0,.65S389.93,251.7,389.94,251.83Z" transform="translate(-334.08 -237.91)"/><path class="cls-1" d="M401.78,252.57q-.42-.23-.81-.39l-.51-.18-.5-.12a6,6,0,0,0-.9-.1,4.84,4.84,0,0,0-.78,0,5.14,5.14,0,0,0-.66.13,5.23,5.23,0,0,0-.92.37c-.21.12-.32.2-.32.2s.09.13.26.34l.14.17a1.77,1.77,0,0,1,.17.2c.12.14.27.29.43.45a7,7,0,0,0,.55.5l.31.26.35.26a6.65,6.65,0,0,0,.79.49,6.31,6.31,0,0,0,.9.46c.22.1.45.18.68.27l.18.06.18.06.36.13c.3.09.6.19.91.27l.93.25c.59.17,1.17.31,1.67.43l.37.09.33.08.53.13.48.11-.2-.29c-.13-.18-.3-.44-.55-.74s-.53-.66-.86-1c-.16-.19-.35-.37-.53-.56s-.38-.38-.59-.57l-.36-.34-.4-.32c-.27-.21-.54-.42-.81-.6l-.4-.28Z" transform="translate(-334.08 -237.91)"/><path class="cls-1" d="M394.65,257.39c0,.15,0,.3.05.46a15.09,15.09,0,0,0,.87,2.75q.12.3.24.57c.07.18.16.35.22.53.14.34.28.65.4.9l.16.36c.05.1.08.2.12.27l.11.23s.07-.14.18-.39.13-.28.2-.46.15-.38.22-.59a15.49,15.49,0,0,0,.43-1.5,8.41,8.41,0,0,0,.15-.85c0-.3.06-.59.08-.89,0-.11,0-.22,0-.34v-.17c0-.06,0-.11,0-.17a4.78,4.78,0,0,0-.07-.65,5.27,5.27,0,0,0-.22-.93,7.59,7.59,0,0,0-.36-.81l-.21-.36A3.78,3.78,0,0,0,397,255c-.15-.19-.31-.38-.46-.54s-.3-.3-.43-.42l-.19-.16-.18-.13a3.56,3.56,0,0,0-.34-.22,2.9,2.9,0,0,0-.18.33,6,6,0,0,0-.34.9,6.86,6.86,0,0,0-.25,1.37,5.41,5.41,0,0,0,0,.81C394.62,257.1,394.63,257.24,394.65,257.39Z" transform="translate(-334.08 -237.91)"/><path class="cls-1" d="M405.4,258.32a7,7,0,0,0-.92-.5,5.39,5.39,0,0,0-.87-.27,4.77,4.77,0,0,0-1.45-.12,4.33,4.33,0,0,0-1,.18,3.1,3.1,0,0,0-.36.13s.06.14.19.38a8,8,0,0,0,.56,1,11.21,11.21,0,0,0,1,1.23,9.44,9.44,0,0,0,1.47,1.28l.46.3.47.29c.32.19.66.38,1,.56l1,.52,1,.48,1.56.74c.39.19.63.29.63.29l-.35-.79q-.09-.18-.18-.39l-.24-.44c-.17-.32-.36-.66-.57-1A12.47,12.47,0,0,0,405.4,258.32Z" transform="translate(-334.08 -237.91)"/><path class="cls-1" d="M398.16,263.58c0,.33.06.67.11,1,0,.08,0,.16.05.25l0,.24c0,.17,0,.33.08.49.06.32.14.63.18.92.11.59.25,1.09.31,1.46s.14.59.14.59.14-.17.36-.48.24-.34.37-.56.15-.23.22-.35l.21-.38c.15-.27.29-.56.43-.87l.21-.47.09-.25a1.83,1.83,0,0,0,.08-.25,7.87,7.87,0,0,0,.28-1,4.54,4.54,0,0,0,.09-.51,4.45,4.45,0,0,0,.05-.5,5.31,5.31,0,0,0-.23-1.83,5,5,0,0,0-.62-1.38,7.18,7.18,0,0,0-.63-.86,2.7,2.7,0,0,0-.3-.28,3.29,3.29,0,0,0-.24.28,6.46,6.46,0,0,0-.51.82,6,6,0,0,0-.53,1.29,5.77,5.77,0,0,0-.17.79,8.06,8.06,0,0,0-.1.89c0,.16,0,.31,0,.47Z" transform="translate(-334.08 -237.91)"/><path class="cls-1" d="M409.48,266.86a8.14,8.14,0,0,0-.75-.94,5.88,5.88,0,0,0-1.58-1.15l-.37-.17c-.12,0-.24-.09-.36-.12a4.61,4.61,0,0,0-.66-.14,5.19,5.19,0,0,0-1,0,2.89,2.89,0,0,0-.37,0,3.44,3.44,0,0,0,.09.42c.06.26.19.62.34,1.05.08.21.17.44.29.69l.18.36c.07.12.13.25.21.38a9.14,9.14,0,0,0,.5.78l.31.39.33.4a22,22,0,0,0,1.63,1.55l.88.73.43.35.41.33c.53.43,1,.8,1.36,1.07.17.13.31.23.4.31l.15.11a2.32,2.32,0,0,1,0-.23c0-.14-.07-.35-.13-.61s-.14-.57-.22-.91c0-.17-.09-.36-.15-.54s-.13-.38-.19-.57c-.14-.4-.28-.8-.45-1.21s-.38-.82-.58-1.21l-.32-.58C409.72,267.22,409.6,267,409.48,266.86Z" transform="translate(-334.08 -237.91)"/><path class="cls-1" d="M401,267.66l-.15.4c0,.14-.08.29-.13.44a8.87,8.87,0,0,0-.19.95c0,.16,0,.32-.05.49l-.06.5c0,.34,0,.67-.05,1s0,.64,0,.94v.43c0,.14,0,.27,0,.4s0,.47,0,.66a3.52,3.52,0,0,1,0,.44v.17l.12-.11a3.14,3.14,0,0,0,.34-.29A13.86,13.86,0,0,0,401.8,273a10.77,10.77,0,0,0,1.2-1.6,7.49,7.49,0,0,0,.85-1.9A3.59,3.59,0,0,0,404,269a3.78,3.78,0,0,0,.06-.47,5.19,5.19,0,0,0,0-.88,2.73,2.73,0,0,0,0-.41c0-.14-.05-.27-.08-.39a5.71,5.71,0,0,0-.19-.69,4.76,4.76,0,0,0-.44-1c-.13-.22-.22-.34-.22-.34a3.17,3.17,0,0,0-.29.22,4.92,4.92,0,0,0-.69.69c-.13.15-.26.32-.4.51l-.19.29-.2.33A6.35,6.35,0,0,0,401,267.66Z" transform="translate(-334.08 -237.91)"/><path class="cls-1" d="M403.27,272.3a6.7,6.7,0,0,0-.51.54,4.84,4.84,0,0,0-.5.65l-.22.36-.11.2-.11.2a7.93,7.93,0,0,0-.52,1.34c-.16.46-.29,1-.4,1.41s-.2.8-.28,1.16a2,2,0,0,1-.05.26l-.06.25c0,.17-.07.32-.1.46s-.1.51-.13.67l0,.25.38-.21c.24-.14.56-.34.94-.6l.61-.44.32-.26.31-.27A12.25,12.25,0,0,0,404,277a8.39,8.39,0,0,0,.72-1.11c.08-.15.15-.3.22-.45s.1-.3.15-.44a7.16,7.16,0,0,0,.19-.87c0-.14,0-.27.05-.41s0-.26,0-.39a5.16,5.16,0,0,0-.05-.71c0-.22-.06-.42-.1-.6s-.09-.32-.13-.44-.14-.39-.14-.39a3.62,3.62,0,0,0-.34.16,6.34,6.34,0,0,0-.81.53Z" transform="translate(-334.08 -237.91)"/></svg>